<svg width="105" height="53" viewBox="0 0 105 53" fill="none" xmlns="http://www.w3.org/2000/svg">
<path d="M15.7256 33.8752C15.4922 33.8208 15.2786 33.748 15.0846 33.6567C14.8974 33.5362 14.7464 33.2935 14.6315 32.9285C14.5201 32.5489 14.4562 32.1958 14.4401 31.8691C14.4419 31.5313 14.4649 31.2676 14.509 31.078C14.5362 30.9614 14.5763 30.8554 14.6292 30.7601C14.6802 30.5413 14.6886 30.2742 14.6544 29.9588C14.6071 29.5019 14.6147 29.0732 14.6772 28.6726C14.7398 28.2721 14.7822 27.8591 14.8043 27.4338L14.8505 26.2453C14.8955 25.6562 14.917 25.2999 14.915 25.1764C14.8998 24.9115 14.9026 24.6354 14.9234 24.3482C14.9622 24.0497 14.9605 23.4958 14.9184 22.6865C14.9076 22.4688 14.7637 22.3276 14.4866 22.2631C14.3554 22.2325 14.1971 22.2187 14.0119 22.2217C13.8447 22.2135 13.581 22.1905 13.2208 22.1527C12.864 22.1004 12.4798 22.0339 12.068 21.9534C11.3466 21.8161 10.5455 21.691 9.66471 21.5781C9.37744 21.5574 9.10644 21.5327 8.85172 21.5041C8.61499 21.4643 8.45287 21.4343 8.36537 21.4139C8.08828 21.3493 7.87222 21.3528 7.71719 21.4243C7.58014 21.4847 7.45188 21.6393 7.3324 21.8882C7.13421 22.211 6.96759 22.4643 6.83253 22.6481C6.70087 22.8173 6.56292 23.0466 6.41867 23.3359C6.33175 23.577 6.12287 23.9127 5.79203 24.343C5.52531 24.696 5.37327 24.9527 5.3359 25.1131L5.32211 25.2713C5.26437 25.5193 5.15098 25.808 4.98196 26.1377C4.76339 26.548 4.39567 27.1696 3.87881 28.0024C3.75155 28.2188 3.62938 28.4133 3.5123 28.5859C3.40981 28.7619 3.34278 28.8846 3.31121 28.9542C3.13779 29.2366 2.90115 29.4275 2.60128 29.5268C2.31939 29.6149 2.02532 29.6233 1.71906 29.5519C1.44537 29.4728 1.28636 29.2974 1.24202 29.0257L1.14555 28.4497C1.11339 28.2577 1.1109 28.1034 1.13807 27.9868C1.18902 27.768 1.33846 27.6875 1.58638 27.7452C1.7468 27.7826 1.8428 27.7665 1.87436 27.697L1.91003 27.5439C1.9372 27.4272 1.92402 27.2858 1.87049 27.1195C1.8661 27.0724 1.87239 27.0124 1.88938 26.9395C1.94712 26.6915 2.11565 26.331 2.39496 25.858C2.5436 25.6159 2.65728 25.4578 2.73599 25.3839C2.83269 25.2988 2.90481 25.1542 2.95237 24.95C2.97275 24.8625 3.01281 24.7565 3.07255 24.6321C3.14687 24.511 3.22509 24.4062 3.3072 24.3177C3.38931 24.2292 3.57342 23.9339 3.85952 23.4316C4.06011 23.0325 4.261 22.7641 4.46218 22.6265C4.66336 22.4888 4.77074 22.3908 4.78433 22.3325C4.79452 22.2888 4.79013 22.2416 4.77115 22.1911C4.73659 22.0754 4.74309 21.9155 4.79065 21.7113C4.83141 21.5363 4.90523 21.3844 5.01212 21.2555C5.05487 21.204 5.09203 21.1434 5.1236 21.0739C5.17315 20.9932 5.21201 20.9254 5.24018 20.8705C5.31151 20.5642 5.53228 20.1774 5.90249 19.7102C6.03075 19.5556 6.18229 19.268 6.35711 18.8475C6.58927 18.3788 6.72503 18.126 6.76439 18.089C6.8499 17.9859 6.91133 17.8542 6.9487 17.6938C6.98606 17.5333 7.25638 17.0659 7.75965 16.2914C8.23715 15.4955 8.52085 15.0696 8.61075 15.0136C8.71524 14.9611 8.83451 14.8121 8.96857 14.5665C9.10603 14.3064 9.20193 14.0597 9.25628 13.8264C9.31402 13.5785 9.44709 13.2712 9.65547 12.9046L10.1014 12.1782C10.1679 12.0246 10.3435 11.7657 10.6282 11.4015C10.9275 11.0407 11.2401 10.4909 11.566 9.75191C11.7486 9.36395 11.8702 9.13861 11.931 9.07588C12.0379 8.94703 12.1083 8.80968 12.1423 8.66385C12.1796 8.50343 12.2731 8.33302 12.4228 8.15263C12.587 7.97563 12.6844 7.82151 12.715 7.69026C12.7252 7.6465 12.7516 7.59886 12.7944 7.54732C12.8517 7.49917 12.9146 7.46002 12.9832 7.42986C13.0663 7.40309 13.1095 7.38241 13.1129 7.36783L13.1231 7.32408C13.1299 7.29491 13.1165 7.25336 13.083 7.19942C13.064 7.14887 13.0715 7.05068 13.1055 6.90485C13.1598 6.67151 13.3041 6.38224 13.5382 6.03703C13.6869 5.79491 13.8489 5.59434 14.0243 5.43532C14.4976 5.05357 14.7546 4.77519 14.7954 4.60019C14.809 4.54185 14.808 4.48012 14.7924 4.41499C14.7914 4.35326 14.7977 4.29323 14.8113 4.23489C14.8588 4.03072 14.99 3.83065 15.2047 3.63468C15.4948 3.37937 15.7565 3.2789 15.9899 3.33325C16.5149 3.45553 16.9046 3.86149 17.1591 4.55113C17.417 5.22619 17.481 6.04058 17.3511 6.99432C17.2954 7.3657 17.2831 7.61652 17.3142 7.74677C17.34 7.76815 17.3517 7.817 17.3493 7.89331C17.2644 8.2579 17.2448 8.50702 17.2905 8.64068C17.3508 8.77773 17.3743 9.10606 17.3609 9.62568C17.3333 9.94213 17.3228 10.4163 17.3294 11.0482C17.3697 12.1953 17.3649 12.9091 17.3149 13.1896C17.2829 13.4589 17.2585 13.63 17.2415 13.7029C17.1667 14.0238 17.0339 14.2311 16.8429 14.325C16.7564 14.3664 16.6755 14.4167 16.6002 14.476C16.5394 14.5388 16.5057 14.5847 16.4989 14.6139C16.4489 14.8944 16.5041 15.0533 16.6646 15.0907C16.9786 15.1946 17.0779 15.4944 16.9624 15.9903C16.8911 16.2965 16.9006 16.5524 16.9911 16.758C17.0962 16.967 17.1646 17.2673 17.1964 17.6591C17.2315 18.0363 17.2236 18.3343 17.1727 18.553C17.1251 18.7572 17.1135 18.939 17.1379 19.0984C17.1646 19.1815 17.1661 19.2741 17.1424 19.3762L16.7555 20.0471L16.7147 20.2221C16.7225 20.2547 16.7449 20.2907 16.7818 20.33C16.8669 20.4267 16.9044 20.4969 16.8942 20.5407C16.8874 20.5699 16.8918 20.617 16.9074 20.6821C16.9263 20.7327 16.9526 20.7849 16.9862 20.8389C17.0757 20.9827 17.1119 21.0911 17.0949 21.164C16.9974 21.6487 16.9745 22.143 17.0263 22.647C17.0502 23.0062 17.0333 23.3098 16.9756 23.5577C16.9518 23.6598 16.937 23.7563 16.9312 23.8472C16.94 23.9415 16.9556 24.0066 16.978 24.0426C17.082 24.1898 17.095 24.4312 17.0169 24.7666C16.9829 24.9124 16.9361 25.0476 16.8763 25.172C16.82 25.2819 16.785 25.366 16.7714 25.4243C16.7375 25.5702 16.7468 25.6953 16.7993 25.7998C16.8718 26.0166 16.92 26.3046 16.944 26.6638C16.9743 27.1936 16.9572 27.597 16.8927 27.8741C16.8519 28.0491 16.7827 28.1483 16.685 28.1717C16.5907 28.1804 16.5368 28.214 16.5232 28.2723C16.5028 28.3598 16.5515 28.448 16.6691 28.537C16.7868 28.6259 16.8459 28.8011 16.8465 29.0626L16.8759 29.5307C16.9937 31.2032 17.0021 32.2891 16.9012 32.7883C16.7823 33.2987 16.5224 33.6226 16.1214 33.7598C15.9338 33.8391 15.8019 33.8776 15.7256 33.8752ZM9.33366 19.633C9.40658 19.65 9.54632 19.6441 9.75289 19.6153C10.1481 19.569 10.9095 19.6003 12.0372 19.7092C12.3099 19.7266 12.5882 19.753 12.8721 19.7884C13.1594 19.8092 13.3866 19.8236 13.5538 19.8318C13.7356 19.8434 13.8849 19.8628 14.0015 19.89C14.1362 19.906 14.24 19.9225 14.3129 19.9395C14.3712 19.953 14.4206 19.9722 14.4609 19.997C14.5159 20.0252 14.5652 20.0443 14.609 20.0545C14.711 20.0783 14.7963 20.0751 14.8649 20.045C14.9514 20.0036 15.0403 19.8859 15.1316 19.692L15.2197 19.4127C15.2333 19.3543 15.2182 19.3201 15.1745 19.3099C15.1307 19.2997 15.1017 19.193 15.0876 18.9898C15.0199 18.6205 15.0461 18.1115 15.1664 17.463C15.2683 17.0255 15.2998 16.7254 15.2609 16.5626C15.2487 16.4828 15.2613 16.3628 15.2986 16.2024L15.3868 15.9231C15.4275 15.7481 15.4223 15.5393 15.3712 15.2968C15.3346 15.0576 15.3283 14.887 15.352 14.7849C15.369 14.712 15.4079 14.6442 15.4686 14.5815C15.5439 14.5221 15.585 14.4779 15.5918 14.4487L15.5969 14.4269C15.5891 14.3943 15.5465 14.3459 15.4692 14.2818C15.3404 14.1749 15.2827 14.0923 15.2963 14.034L15.3371 13.859C15.3395 13.7827 15.3509 13.7008 15.3713 13.6133C15.3819 13.3697 15.3835 13.1318 15.3761 12.8994C15.3058 12.1451 15.3114 11.5929 15.3929 11.2429C15.4575 10.9658 15.5661 10.8297 15.7187 10.8345C15.8893 10.8281 15.978 10.8103 15.9848 10.7811L16.0205 10.628C16.034 10.5697 15.9388 10.5167 15.7346 10.4692C15.3846 10.3877 15.2741 10.0698 15.4032 9.51563L15.6253 8.76018C15.666 8.58517 15.6747 8.44883 15.6514 8.35113C15.6124 8.18831 15.5897 8.0216 15.5834 7.85099C15.5916 7.68378 15.5446 7.58828 15.4425 7.5645L15.4206 7.55941C15.3118 7.5648 15.1859 7.64311 15.0431 7.79433C14.9182 7.93437 14.8286 8.12106 14.7742 8.3544C14.6927 8.7044 14.1346 9.68139 13.0999 11.2854C12.8623 11.6451 12.6545 12.0426 12.4762 12.4777C12.3126 12.9162 12.1419 13.2531 11.9641 13.4885L11.5757 14.0668C11.5014 14.1879 11.4472 14.3213 11.4132 14.4671C11.3827 14.5984 11.2605 14.7929 11.0467 15.0506C10.9612 15.1537 10.8847 15.2511 10.8172 15.343C10.7642 15.4383 10.7327 15.5079 10.7225 15.5516C10.6681 15.7849 10.4277 16.1902 10.0011 16.7673C9.85149 16.9477 9.72862 17.2112 9.63251 17.5578C9.55438 17.8932 9.39485 18.2481 9.1539 18.6225C8.98388 18.8904 8.88359 19.09 8.85301 19.2212C8.81905 19.3671 8.857 19.4682 8.96687 19.5245C9.09473 19.5697 9.21699 19.6058 9.33366 19.633ZM21.4794 34.9155C21.2752 34.868 21.0397 34.7901 20.7728 34.6818C20.59 34.6084 20.4769 34.4668 20.4336 34.2568C20.4048 34.0503 20.4375 33.7119 20.5316 33.2419C20.6257 32.7718 20.6832 32.3931 20.704 32.1058C20.6952 32.0115 20.7793 31.4853 20.9564 30.5272C21.1873 29.5355 21.3732 28.6717 21.5138 27.9357C21.5842 27.5677 21.7077 27.0046 21.8843 26.2462L23.0802 21.0129C23.1291 20.6707 23.5386 18.8135 24.3087 15.4413L25.2178 11.3404C25.5507 9.91119 25.8105 8.79554 25.9973 7.99344C26.2021 7.18016 26.3762 6.59802 26.5194 6.24701C26.6807 5.88482 26.8444 5.67696 27.0106 5.62343C27.1802 5.55531 27.3963 5.55182 27.6588 5.61297L28.1619 5.73016C28.3255 6.414 28.4178 6.84292 28.4387 7.01693C28.4631 7.17635 28.4202 7.55843 28.3101 8.16315L27.6472 11.3066C27.4569 12.1233 27.2393 13.1565 26.9944 14.4063L26.8568 14.997C26.8228 15.1428 26.7901 15.2505 26.7585 15.32C26.7303 15.3749 26.7055 15.4153 26.6842 15.4411C26.6774 15.4702 26.665 15.4904 26.647 15.5016C26.629 15.5128 26.611 15.524 26.5931 15.5352C26.5066 15.5765 26.4582 15.6191 26.448 15.6628C26.4378 15.7066 26.4624 15.7661 26.5217 15.8414L26.5166 15.8633C26.5828 15.9094 26.6039 15.9836 26.5802 16.0856C26.571 16.1911 26.5494 16.3168 26.5154 16.4626L26.0793 18.1368C25.9129 18.8514 25.8322 19.3631 25.8371 19.6717C25.8601 19.9692 25.9226 20.1298 26.0247 20.1536C26.0685 20.1638 26.1426 20.1426 26.2471 20.0901C26.3661 20.0409 26.4689 19.9957 26.5554 19.9543C26.6565 19.9164 26.7503 19.8767 26.8368 19.8354C27.1795 19.6845 27.5102 19.5848 27.829 19.536C28.0142 19.5331 28.2079 19.4936 28.4101 19.4177C28.7561 19.2523 29.1989 19.2324 29.7385 19.3581C30.6135 19.5619 31.3887 19.9962 32.0642 20.6609C32.512 21.1803 32.862 21.823 33.1141 22.5889C33.3808 23.3583 33.4649 23.9544 33.3664 24.3774L33.2782 24.6566C33.2545 24.7587 33.2817 24.8727 33.36 24.9986C33.4384 25.1244 33.469 25.2238 33.452 25.2967C33.4384 25.3551 33.436 25.4314 33.4448 25.5257C33.4536 25.62 33.4607 25.7216 33.4661 25.8304C33.5114 26.1639 33.456 26.666 33.2997 27.3369C32.9261 28.941 32.3132 30.3512 31.4611 31.5672C31.1133 32.0704 30.849 32.3471 30.6682 32.3972C30.585 32.424 30.4799 32.5455 30.3526 32.7619C29.7998 33.6171 28.9766 34.148 27.883 34.3545C26.7894 34.561 25.9363 34.593 25.3238 34.4503C24.8863 34.3484 24.4967 34.1731 24.1549 33.9243C24.0586 33.8097 23.9667 33.7421 23.8792 33.7218C23.7917 33.7014 23.6774 33.5979 23.5364 33.4113C23.3953 33.2247 23.2811 33.1212 23.1936 33.1008C23.1061 33.0804 23.0012 33.3328 22.8789 33.8578C22.743 34.4411 22.5487 34.7802 22.296 34.8751C22.0579 34.9734 21.7857 34.9869 21.4794 34.9155ZM25.8864 31.8369C26.251 31.9219 26.6472 31.9373 27.0749 31.8831C28.2302 31.6756 29.2865 30.5072 30.2437 28.3778C30.5244 27.7667 30.731 27.1767 30.8635 26.608C31.0401 25.8496 31.0814 25.1443 30.9873 24.492C30.8527 23.3537 30.5635 22.6483 30.1196 22.3758C29.6791 22.0887 29.3567 21.9213 29.1526 21.8738C28.5546 21.7345 27.8472 21.9003 27.0303 22.3711C26.7786 22.5278 26.6017 22.5942 26.4996 22.5704L26.4172 22.5281C26.3589 22.5146 26.3122 22.5498 26.2772 22.6339C26.2423 22.718 26.2 22.8004 26.1505 22.8811C26.1155 22.9652 26.0822 23.0421 26.0507 23.1116C25.973 23.2472 25.8318 23.3912 25.6272 23.5434C25.4406 23.6844 25.3303 23.8279 25.2964 23.9737L25.2484 24.3776C25.2009 24.5818 25.1055 24.8594 24.9622 25.2104C24.8641 25.4335 24.7743 25.7201 24.6928 26.0701C24.5603 26.6389 24.4454 27.3962 24.3481 28.3422C24.2899 28.7899 24.2947 29.1984 24.3624 29.5678C24.4447 29.9406 24.626 30.4825 24.9062 31.1935C25.0269 31.4676 25.2022 31.6391 25.4321 31.7081C25.6766 31.7804 25.8281 31.8234 25.8864 31.8369ZM36.8749 37.5328L36.4863 37.4192C35.7731 37.1147 35.176 36.5759 34.6949 35.8028C34.2319 35.0184 34.0213 34.2391 34.0633 33.4647C34.0851 33.2392 34.075 32.9524 34.0331 32.6044C33.983 32.4236 33.9875 32.1402 34.0466 31.7543C34.0762 31.5613 34.1368 31.2679 34.2285 30.8741C34.3169 30.495 34.3938 30.1977 34.4593 29.9823C34.5249 29.767 34.623 29.5438 34.7536 29.3129C34.8989 29.0854 35.124 28.7458 35.4291 28.2941C35.536 28.1652 35.6458 27.9909 35.7585 27.7712C35.825 27.6175 35.8667 27.5043 35.8837 27.4314C35.9313 27.2272 36.0702 27.0597 36.3006 26.9288L36.6293 26.7056L36.2763 26.4389C35.9447 26.1464 35.8451 25.7158 35.9776 25.147C36.1339 24.4762 36.4399 23.8556 36.8956 23.2852C37.3659 22.7183 37.8958 22.3574 38.4853 22.2026C39.2926 22.037 39.9588 22.0154 40.4838 22.1376C40.9505 22.2463 41.3047 22.4749 41.5464 22.8233C41.6213 22.9638 41.7025 23.0442 41.79 23.0646L41.9213 23.0951C42.1546 23.1495 42.433 23.4065 42.7564 23.8662C43.11 24.3944 43.4157 24.9961 43.6736 25.6711C43.9495 26.335 44.0483 26.8346 43.9702 27.1701C43.9363 27.3159 43.9375 27.5084 43.9741 27.7475C44.1864 28.7502 44.2166 29.6106 44.0648 30.3285C43.9163 31.032 43.8302 31.4347 43.8064 31.5368C43.5313 32.7181 43.1508 33.5596 42.6649 34.0614C42.4715 34.2316 42.2859 34.4344 42.1081 34.6697C41.9449 34.9084 41.8497 35.0861 41.8225 35.2028L41.8123 35.2466C41.7851 35.3632 41.6967 35.5118 41.5471 35.6922C41.4008 35.858 41.2293 36.0333 41.0325 36.2181C40.8391 36.3883 40.6756 36.4962 40.542 36.542C40.4229 36.5911 40.2931 36.6531 40.1527 36.728C40.0268 36.8064 39.9156 36.8881 39.8189 36.9732C39.3917 37.2888 38.8992 37.4892 38.3412 37.5745C37.8012 37.6486 37.3124 37.6347 36.8749 37.5328ZM37.4588 35.2242C37.6046 35.2582 37.7572 35.263 37.9167 35.2386C38.1378 35.2133 38.5664 34.9902 39.2025 34.5695C39.4397 34.4095 39.6117 34.2651 39.7186 34.1362C39.8896 33.9301 40.0341 33.7715 40.1522 33.6607C40.2703 33.5498 40.3779 33.3519 40.475 33.067C40.5721 32.7822 40.6617 32.5955 40.7438 32.507C40.8259 32.4185 41.0235 31.8341 41.3366 30.754L41.6285 29.5997C41.7067 29.2642 41.7435 29.073 41.7391 29.0258C41.6876 28.9831 41.6754 28.9033 41.7026 28.7867C41.7298 28.67 41.7146 28.4051 41.6571 27.992C41.5099 26.9737 41.3312 26.2556 41.1211 25.8376C40.9557 25.4916 40.8328 25.1939 40.7525 24.9446C40.6868 24.6987 40.5698 24.5408 40.4016 24.4708C40.248 24.4043 40.142 24.3642 40.0837 24.3507C39.8795 24.3031 39.6673 24.3229 39.4472 24.41C39.0944 24.6045 38.8245 24.8722 38.6374 25.213C38.465 25.5572 38.3567 25.8241 38.3126 26.0137C38.2684 26.2033 38.2585 26.3778 38.2829 26.5372C38.3432 26.6743 38.382 26.937 38.3991 27.3254C38.4163 27.7137 38.5032 28.0338 38.6598 28.2855C38.8344 28.526 38.9064 28.7119 38.8758 28.8432L38.7877 29.1225C38.7741 29.1808 38.8111 29.2202 38.8986 29.2406C39.1174 29.2915 39.1993 29.5335 39.1446 29.9667L39.1242 30.0542C38.9917 30.6229 38.539 30.8173 37.7661 30.6372C37.3286 30.5353 37.0377 30.629 36.8935 30.9183C36.7638 31.211 36.682 31.4302 36.648 31.5761C36.5495 31.999 36.5327 32.5332 36.5976 33.1787C36.626 33.585 36.6198 33.8757 36.579 34.0507L36.5164 34.2206C36.496 34.3081 36.5031 34.4097 36.5376 34.5254C36.5756 34.6265 36.631 34.6855 36.7039 34.7025C36.7914 34.7229 36.8945 34.8084 37.0132 34.959C37.1352 35.0951 37.2838 35.1835 37.4588 35.2242ZM51.778 41.373C51.7197 41.3594 51.6704 41.3403 51.63 41.3155C51.3991 41.1848 51.2248 41.075 51.1071 40.9861C50.9894 40.8972 50.9065 40.8241 50.8584 40.7668C50.8136 40.6948 50.7852 40.619 50.773 40.5393C50.7297 40.3294 50.7318 40.1223 50.7793 39.9181C50.8269 39.7139 50.8973 39.5766 50.9906 39.5061C51.0985 39.439 51.1609 39.3689 51.1779 39.296C51.1949 39.2231 51.1518 39.1439 51.0488 39.0584C50.9972 39.0156 50.9423 38.9875 50.8839 38.9739C50.7235 38.9365 50.3641 39.0604 49.8057 39.3454C49.1001 39.7345 48.5329 39.9253 48.1042 39.9177C47.6935 39.8989 47.4152 39.8725 47.2693 39.8386C46.8464 39.7401 46.5399 39.538 46.3497 39.2323C46.0768 38.7536 45.9163 38.4856 45.8682 38.4283C45.8234 38.3564 45.777 38.2917 45.7288 38.2344C45.6068 38.0983 45.5282 37.8417 45.493 37.4645C45.4758 37.0762 45.45 36.8242 45.4154 36.7085C45.3755 36.4839 45.3802 36.1007 45.4296 35.5587C45.4793 34.8169 45.5603 34.2054 45.6724 33.7241C45.7505 33.3887 45.816 33.1733 45.869 33.078C45.9399 32.9716 45.9838 32.8819 46.0008 32.809C46.0144 32.7506 46.0095 32.6726 45.9862 32.5749C45.953 32.3212 46.1182 31.4141 46.4816 29.8537C46.7364 28.7599 47.0152 27.6948 47.3181 26.6584C47.8933 24.7168 48.531 23.8275 49.231 23.9905C49.3914 24.0279 49.5528 24.127 49.7152 24.2878C49.8776 24.4486 49.9708 24.7086 49.9948 25.0678C50.0187 25.427 49.9922 25.8052 49.915 26.2024C49.8233 26.5961 49.6813 26.909 49.4889 27.1409C49.3572 27.3101 49.2693 27.4895 49.2251 27.6791C49.1742 27.8979 49.1889 28.1319 49.2692 28.3812C49.3183 28.5003 49.2019 29.165 48.92 30.3755C48.475 32.2859 48.2674 33.3753 48.2971 33.6436C48.3195 33.6796 48.272 34.1144 48.1547 34.9481C47.9244 36.2012 47.8634 36.925 47.9719 37.1194C48.0837 37.2992 48.1761 37.3976 48.249 37.4146C48.4678 37.4656 48.8211 37.3019 49.309 36.9235C50.3678 36.14 51.0678 35.5112 51.4088 35.0372C51.7644 34.5665 52.0594 33.8281 52.2938 32.8218C52.552 31.7134 52.7187 31.1296 52.794 31.0703C52.8727 30.9963 52.9308 30.8792 52.9681 30.7188L52.9855 30.4461C53.0127 30.3294 53.1252 30.2095 53.323 30.0865C53.5208 29.9634 53.6332 29.8436 53.6604 29.7269C53.691 29.5956 53.629 29.4659 53.4743 29.3376C53.2156 29.0621 53.113 28.7768 53.1663 28.4818C53.2231 28.1721 53.2616 27.9735 53.282 27.886C53.3873 27.4339 53.5655 26.9988 53.8167 26.5807C54.1105 26.111 54.4512 25.8368 54.8386 25.7579C55.1136 25.6989 55.3387 25.6899 55.5137 25.7306C55.7908 25.7952 55.9644 25.974 56.0345 26.267C56.1334 26.7667 55.9994 27.804 55.6325 29.3791C55.4525 30.152 54.9731 32.4081 54.1945 36.1473L53.4805 39.5095C53.3379 40.122 53.2367 40.4905 53.1769 40.6149C52.9865 40.9703 52.7178 41.1999 52.3708 41.3035C52.136 41.3872 51.9385 41.4104 51.778 41.373ZM58.0659 43.0913C57.9346 43.0607 57.8029 42.9993 57.6706 42.907C57.2831 42.5246 57.0911 41.9955 57.0947 41.3199C57.1129 40.6476 57.1645 40.1292 57.2494 39.7646C57.3581 39.298 57.5346 38.8701 57.779 38.4812C57.8465 38.3893 57.8921 38.2923 57.9159 38.1902C57.9295 38.1319 57.919 38.0449 57.8845 37.9292C57.8509 37.8753 57.8314 37.7939 57.826 37.685C57.8386 37.5649 57.901 37.2643 58.0131 36.783L58.7213 33.7423C58.8266 33.2902 58.9395 32.9706 59.06 32.7834C59.1523 32.6512 59.2069 32.5486 59.2239 32.4756C59.2443 32.3881 59.2445 32.2883 59.2245 32.176C59.1758 31.8571 59.2295 31.3623 59.3858 30.6914C59.4503 30.4144 59.5243 30.1625 59.6079 29.936C59.7094 29.6983 59.7754 29.5138 59.806 29.3825C59.8399 29.2367 59.8486 29.1003 59.8321 28.9735C59.8335 28.8354 59.8603 28.588 59.9127 28.2312C59.983 27.8632 60.0636 27.4515 60.1543 26.996C60.4852 25.4433 60.7035 24.3411 60.8092 23.6892C60.9183 23.0228 60.9325 22.6648 60.8518 22.6152C60.826 22.5938 60.7329 22.5645 60.5725 22.5271C60.4155 22.4752 60.2786 22.4356 60.1619 22.4084L59.7412 22.3335C59.085 22.1806 58.5606 21.9893 58.1683 21.7596C57.545 21.3991 57.2673 21.0731 57.3353 20.7814C57.3692 20.6356 57.5075 20.5371 57.75 20.486C57.9814 20.4169 58.1668 20.314 58.3062 20.1773C58.4311 20.0373 58.553 19.9427 58.6721 19.8936C58.7912 19.8444 58.9618 19.838 59.1839 19.8744C59.3881 19.922 59.691 20.0079 60.0925 20.1322C60.4211 20.2394 60.6803 20.3152 60.8698 20.3593C61.1469 20.4239 61.3124 20.4394 61.3664 20.4058C61.4237 20.3577 61.4929 20.2585 61.5741 20.1082C61.6586 19.9434 61.7314 19.7298 61.7925 19.4673C61.8197 19.3506 61.8272 19.2524 61.815 19.1727C61.8052 19.0167 61.8564 18.698 61.9685 18.2168C62.264 16.948 62.4904 16.009 62.6477 15.3999C62.9516 14.4252 63.2495 13.872 63.5416 13.7401C63.8371 13.5937 64.0578 13.5375 64.2036 13.5714C64.4078 13.619 64.592 13.7849 64.7565 14.0692C65.0147 14.5445 65.0632 15.2937 64.9017 16.317C64.6567 17.5668 64.4831 18.5103 64.3808 19.1476C64.293 19.7883 64.2546 20.2175 64.2653 20.4353C64.2941 20.6419 64.3595 20.757 64.4616 20.7808L64.5323 20.7742C64.685 20.779 64.8724 20.7996 65.0945 20.836C65.2987 20.8835 65.4939 20.9367 65.68 20.9954C65.8662 21.0542 65.9851 21.1049 66.0366 21.1477C66.1028 21.1938 66.1723 21.2254 66.2452 21.2424C66.3619 21.2695 66.5218 21.276 66.725 21.2619C67.0808 21.2525 67.4337 21.2886 67.7837 21.3701C68.542 21.5467 69.0197 21.7733 69.2167 22.0498C69.4594 22.4599 69.571 22.7396 69.5517 22.8889L69.4905 23.1514C69.4362 23.3847 69.3069 23.4776 69.1027 23.43L68.9766 23.3776C68.7578 23.3266 68.4371 23.4825 68.0143 23.8453C67.8749 23.982 66.9447 23.8499 65.2239 23.4491C64.6697 23.32 64.2798 23.2445 64.0543 23.2228C63.8321 23.1864 63.6873 23.2142 63.6198 23.3061C63.5668 23.4013 63.5267 23.5073 63.4996 23.624L63.4552 23.9135L63.1597 25.1822C63.1213 25.2809 63.0801 25.4251 63.0359 25.6147L62.854 26.4948C62.5449 27.8219 62.3619 28.6403 62.3052 28.9499C61.8161 31.0499 61.5343 32.1605 61.46 32.2816C61.4206 32.3185 61.3925 32.3734 61.3755 32.4464C61.3517 32.5485 61.352 32.6792 61.3764 32.8386C61.3993 33.1361 61.3769 33.4307 61.3089 33.7223C61.1968 34.2036 60.9574 34.6706 60.5906 35.1233C60.5872 35.1378 60.586 35.176 60.587 35.2377C60.6059 35.2883 60.6361 35.3568 60.6775 35.4433C60.7456 35.6129 60.758 35.8234 60.7149 36.0747C60.596 36.5851 60.4744 37.0411 60.3501 37.4427L60.1841 37.9575C60.1851 38.0192 60.2007 38.0843 60.2308 38.1529C60.2766 38.2865 60.2247 38.6742 60.0753 39.3159C59.9995 39.575 59.8462 40.2004 59.6152 41.192C59.425 42.0087 59.1775 42.543 58.8729 42.7949C58.5828 43.0502 58.3138 43.149 58.0659 43.0913ZM80.5247 48.553C80.4664 48.5394 80.4002 48.4932 80.3263 48.4145C80.3005 48.3931 80.2383 48.3633 80.1396 48.3249L79.8064 48.2703L79.3689 48.1684C78.8273 47.9193 78.4748 47.6834 78.3114 47.4609C78.2039 47.3282 78.1078 47.1137 78.0232 46.8172C77.9876 46.6398 77.9042 46.5358 77.7729 46.5052L77.7511 46.5001C77.6198 46.4696 77.4737 46.3048 77.3127 46.006C77.1696 45.6959 77.0385 45.3348 76.9193 44.9227C76.818 44.4993 76.7683 44.1188 76.7701 43.7809C76.7783 43.6137 76.7368 43.2966 76.6457 42.8295C76.58 42.5836 76.5406 42.3899 76.5274 42.2484C76.5176 42.0924 76.5365 41.9123 76.5841 41.7081C76.6656 41.3581 76.6796 41.1 76.626 40.9338C76.5905 40.7564 76.6001 40.4511 76.6548 40.018C76.7072 39.6612 76.7156 39.3941 76.6801 39.2167C76.6445 39.0393 76.6344 38.7525 76.6498 38.3564C76.6798 37.9636 76.7317 37.576 76.8054 37.1934C76.8703 36.7165 76.9049 36.271 76.9091 35.8569C76.9167 35.4282 76.97 34.9024 77.0689 34.2797C77.1692 33.519 77.289 32.8397 77.4283 32.2417C77.5064 31.9063 77.5703 31.6982 77.6198 31.6175C77.6873 31.5256 77.733 31.4287 77.7568 31.3266C77.7626 31.2357 77.7567 31.0959 77.7391 30.9073C77.7249 30.7042 77.7467 30.4786 77.8045 30.2307C77.8384 30.0849 77.8972 29.8987 77.9807 29.6721C78.0642 29.4456 78.1229 29.2594 78.1569 29.1136C78.1943 28.9531 78.2086 28.8258 78.1998 28.7315C78.191 28.6372 78.2048 28.479 78.2411 28.2568C78.2809 28.0201 78.3263 27.7923 78.3772 27.5736C78.4282 27.3548 78.475 27.2197 78.5178 27.1681C78.5639 27.102 78.7222 26.5546 78.9925 25.526C79.0944 25.0885 79.1883 24.7183 79.2742 24.4154C79.3781 24.1014 79.4425 23.9242 79.4672 23.8838C79.51 23.8323 79.5772 23.6096 79.669 23.2159C79.7233 22.9826 79.768 22.8238 79.8029 22.7397C79.8413 22.641 79.893 22.5839 79.9582 22.5683C80.0379 22.5561 80.0811 22.5355 80.0879 22.5063C80.0947 22.4771 80.0645 22.4086 79.9974 22.3007C79.9103 22.0806 79.9075 21.7955 79.9891 21.4455C80.1385 20.8038 80.3816 20.2224 80.7182 19.7012C80.9951 19.3044 81.2284 19.1281 81.418 19.1723L81.7023 19.2385C81.7495 19.2341 81.7961 19.1989 81.8423 19.1327C81.957 19.0364 82.0581 18.9985 82.1456 19.0189C82.3643 19.0698 82.4823 19.2895 82.4994 19.6779C82.5082 19.7721 82.5209 19.8827 82.5375 20.0096C82.572 20.1253 82.6083 20.2336 82.6462 20.3347C82.7265 20.584 82.6835 21.066 82.517 21.7806C82.4083 22.2473 82.2637 22.7363 82.0831 23.2478C82.0345 23.3902 81.9571 23.6566 81.8508 24.047C81.7445 24.4373 81.628 24.8714 81.5013 25.3493C81.3926 25.816 81.2834 26.2518 81.1737 26.6567C81.064 27.0617 80.9832 27.3426 80.9313 27.4997C80.8827 27.6421 80.8296 27.8373 80.7718 28.0852C80.7175 28.3185 80.6704 28.5536 80.6307 28.7903C80.6089 29.0159 80.5114 29.5005 80.3381 30.2443L79.8358 32.2029C79.7441 32.5966 79.7012 32.9787 79.7072 33.3491C79.7224 33.614 79.7237 33.8065 79.7111 33.9265C79.633 34.262 79.5538 34.5357 79.4737 34.7476C79.4082 34.963 79.355 35.1582 79.3143 35.3332C79.2769 35.4936 79.2587 35.6047 79.2597 35.6664C79.3212 36.3265 79.301 36.8752 79.1991 37.3127C79.1685 37.444 79.1453 37.5769 79.1293 37.7116C79.1279 37.8496 79.135 37.9512 79.1505 38.0164C79.1661 38.0815 79.1121 38.4456 78.9884 39.1086C78.8389 39.7503 78.7992 40.2177 78.8694 40.5108C78.9195 40.6916 78.9442 40.9817 78.9433 41.3813C78.9182 41.6214 78.9489 41.9515 79.0356 42.3714C79.1515 42.7981 79.218 43.2057 79.2351 43.594C79.3697 44.7324 79.6225 45.4293 79.9935 45.6848C80.3791 45.9438 80.6593 46.0936 80.8343 46.1344C81.2718 46.2363 81.7452 46.0852 82.2545 45.681L84.4316 43.8589C84.8082 43.5622 85.1389 43.2318 85.4236 42.8676L86.2267 41.9938C86.5945 41.6029 86.8395 41.1449 86.9618 40.6199L86.9909 40.396C87.0486 40.1481 87.1208 40.0035 87.2073 39.9621C87.2938 39.9208 87.3455 39.8636 87.3625 39.7907C87.3795 39.7178 87.3488 39.6184 87.2705 39.4925C87.2102 39.3555 87.248 38.9953 87.3838 38.4119L87.6014 37.3787C87.7765 36.2971 87.9676 35.3115 88.1748 34.4219L88.7557 31.9281C88.9119 31.2573 89.0301 30.8159 89.1102 30.6039C89.1632 30.5086 89.1998 30.4172 89.2202 30.3297C89.2508 30.1985 89.2488 30.075 89.2142 29.9593C89.1977 29.8325 89.2529 29.4302 89.38 28.7526C89.5163 27.9695 89.7594 26.8269 90.1092 25.3248C90.4047 24.056 90.5897 23.3611 90.664 23.24C90.6999 23.2176 90.7281 23.1627 90.7485 23.0752C90.7723 22.9731 90.7849 22.853 90.7863 22.715C90.8023 22.5803 90.8238 22.4547 90.851 22.338C90.9733 21.813 91.1564 21.4559 91.4003 21.2667C91.5835 21.1403 91.8227 21.1037 92.1177 21.1571C92.3948 21.2216 92.6365 21.3394 92.8426 21.5104C93.0668 21.6702 93.1568 21.845 93.1126 22.0345C93.1024 22.0783 93.0944 22.1456 93.0886 22.2365C93.1008 22.3162 93.1113 22.4032 93.1201 22.4975C93.1586 22.8601 93.1083 23.3404 92.969 23.9383L92.779 24.6551L92.6297 25.1969C92.5652 25.474 92.5305 25.6888 92.5257 25.8415C92.5209 25.9941 92.4799 26.269 92.4028 26.6661C92.3291 27.0487 92.2379 27.4733 92.1292 27.94C92.0205 28.4067 91.9147 28.8279 91.8118 29.2037C91.7123 29.5649 91.6501 29.7657 91.6254 29.806C91.6152 29.8498 91.6033 29.9008 91.5897 29.9591C91.5217 30.2508 91.4633 30.5678 91.4143 30.91C91.3664 31.3139 91.3135 31.6399 91.2558 31.8878C91.2184 32.0482 91.1716 32.1833 91.1152 32.2932C91.0769 32.3919 91.0458 32.4923 91.022 32.5944C90.9948 32.711 90.9929 32.8182 91.0163 32.9159C91.0431 32.999 91.0196 33.2319 90.9459 33.6144L90.6758 34.7738C90.5695 35.1642 90.4792 35.4199 90.4049 35.541C90.3621 35.5925 90.3357 35.6402 90.3255 35.6839C90.3051 35.7714 90.3139 35.8657 90.3518 35.9668C90.4078 36.0567 90.417 36.1819 90.3797 36.3423L90.3018 36.5778C90.1489 37.2341 90.0565 37.6968 90.0245 37.9661C89.8746 38.8076 89.7437 39.469 89.6316 39.9502L88.9132 43.0346C88.7035 44.0006 88.5704 44.6383 88.5136 44.948C88.4976 45.0826 88.4659 45.2521 88.4183 45.4562C88.362 45.5661 88.2804 45.6855 88.1735 45.8143C88.0812 45.9466 88.0316 46.0273 88.0248 46.0564L88.0044 46.1439L88.0898 46.3714C88.1522 46.6319 88.078 47.2143 87.8674 48.1184C87.7078 48.8039 87.5621 49.2312 87.4305 49.4004C87.102 49.7544 86.6899 49.8736 86.194 49.7581C85.7565 49.6562 85.5785 49.4303 85.66 49.0803C85.6906 48.949 85.6213 48.8176 85.4521 48.6859C85.2975 48.5576 85.2718 48.2057 85.3751 47.6302C85.4397 47.3531 85.4789 47.0855 85.4929 46.8274C85.5103 46.5547 85.5039 46.3841 85.4738 46.3156C85.4772 46.301 85.4716 46.292 85.457 46.2886C85.4132 46.2784 85.2587 46.3808 84.9934 46.5957L84.5364 46.9736C83.3109 48.0104 82.2145 48.493 81.2472 48.4214C81.0216 48.3996 80.8622 48.424 80.7689 48.4945C80.679 48.5505 80.5976 48.5699 80.5247 48.553ZM94.3116 50.7495C94.0491 50.6883 93.7844 50.6036 93.5175 50.4953C93.1923 50.3734 92.9361 50.2523 92.7489 50.1318C92.5617 50.0113 92.3976 49.8578 92.2566 49.6712C92.0494 49.4384 91.8658 49.2035 91.7058 48.9663C91.5638 48.718 91.4995 48.5647 91.5131 48.5063C91.5267 48.448 91.4749 48.2745 91.3576 47.9858C91.1377 47.4119 91.0461 46.9139 91.0829 46.492C91.1343 46.0734 91.1769 45.7913 91.2109 45.6454C91.2992 45.2663 91.4423 45.0151 91.64 44.8921C91.8558 44.7578 92.0074 44.7009 92.0949 44.7213C92.1824 44.7417 92.2165 44.8265 92.1971 44.9757C92.1923 45.1283 92.2337 45.2148 92.3212 45.2352C92.4087 45.2556 92.535 45.2082 92.7002 45.0929C92.8834 44.9665 93.048 44.9202 93.1938 44.9542C93.4417 45.0119 93.6049 45.3344 93.6834 45.9215C93.7951 46.7624 93.8456 47.3046 93.835 47.5481C93.8336 47.6862 93.8944 47.8541 94.0175 48.0519L94.202 48.3485C94.6633 48.3483 94.9158 48.3534 94.9596 48.3635C95.2357 48.3664 95.4299 48.3578 95.5421 48.3378C95.6724 48.3066 95.7584 48.2344 95.8002 48.1211C95.8419 48.0079 95.8815 47.871 95.9189 47.7106L95.9851 47.4262C96.1685 46.6387 96.1137 45.7188 95.8207 44.6666C95.5364 43.7087 95.1619 43.0064 94.697 42.5599C94.5458 42.4171 94.4329 42.1755 94.3584 41.8353C94.3161 41.6871 94.3017 41.5838 94.3153 41.5254C94.3289 41.4671 94.2087 41.2239 93.9548 40.7957C93.7155 40.371 93.5669 40.052 93.509 39.8386C93.3322 39.0133 93.3066 38.3309 93.4323 37.7913C93.5274 37.3829 93.6948 37.0606 93.9343 36.8243C94.1884 36.5913 94.3274 36.4238 94.3512 36.3218C94.3783 36.2051 94.5212 36.0539 94.7797 35.8681C95.8823 35.0948 97.0315 34.8474 98.2274 35.1259C98.694 35.2346 99.0606 35.443 99.3271 35.7511C99.4088 35.8624 99.5936 36.0592 99.8815 36.3415C100.132 36.5844 100.282 36.8653 100.331 37.1841C100.435 37.5311 100.508 37.7097 100.552 37.7199C100.61 37.7335 100.647 37.8728 100.662 38.1377C100.681 38.388 100.661 38.6371 100.604 38.885C100.508 39.2934 100.376 39.5316 100.206 39.5997C100.04 39.6533 99.8405 39.6529 99.6072 39.5985C99.3009 39.5272 99.0194 39.4155 98.7627 39.2634C98.6013 39.1644 98.4009 38.9024 98.1616 38.4777C97.9369 38.0564 97.7696 37.8175 97.6597 37.7612C97.5678 37.6936 97.4927 37.6531 97.4344 37.6395C97.3177 37.6123 97.1779 37.6182 97.0151 37.6572C96.4392 37.7536 96.0985 38.0279 95.9932 38.48C95.8608 39.0488 96.1032 39.8893 96.7204 41.0017C97.1509 41.7939 97.3956 42.3275 97.4545 42.6026C97.5135 42.8777 97.5451 43.0388 97.5495 43.0859C97.6278 43.2118 97.6961 43.2815 97.7545 43.2951C97.8935 43.3582 98.0027 43.4836 98.082 43.6712C98.1088 43.7543 98.2048 43.9689 98.3702 44.3149C98.4977 44.5598 98.5736 44.762 98.598 44.9214C98.6223 45.0809 98.6808 45.3251 98.7732 45.6541C98.838 45.8383 98.8645 46.0213 98.8529 46.2031C98.8559 46.3883 98.8295 46.6666 98.7738 47.038C98.6919 47.5878 98.6203 47.9939 98.5592 48.2564C98.498 48.5189 98.4106 48.7292 98.297 48.8872C98.1979 49.0486 98.0465 49.2363 97.8429 49.4502C96.8304 50.6289 95.6533 51.062 94.3116 50.7495Z" fill="#008080"/>
</svg>
