<svg width="113" height="74" viewBox="0 0 113 74" fill="none" xmlns="http://www.w3.org/2000/svg">
<path d="M21.7907 39.1923C21.5098 39.136 21.2518 39.0569 21.0165 38.955C20.7883 38.818 20.5988 38.5336 20.448 38.1017C20.3006 37.6522 20.2112 37.2326 20.1798 36.8428C20.1694 36.439 20.187 36.123 20.2327 35.8948C20.2609 35.7544 20.3048 35.6262 20.3645 35.5104C20.4173 35.247 20.4174 34.9275 20.3648 34.5518C20.2912 34.0076 20.2844 33.4949 20.3442 33.0139C20.404 32.5329 20.4393 32.0378 20.45 31.5287L20.461 30.1067C20.4928 29.4009 20.5052 28.9743 20.4982 28.8268C20.4702 28.5108 20.4633 28.1808 20.4775 27.8367C20.5127 27.4786 20.4901 26.8167 20.4096 25.8511C20.3886 25.5913 20.2114 25.4279 19.8778 25.3611C19.7198 25.3295 19.5302 25.3189 19.309 25.3293C19.1089 25.3258 18.7929 25.3081 18.361 25.2764C17.9327 25.2271 17.471 25.162 16.9759 25.0811C16.1087 24.9439 15.1466 24.8242 14.0898 24.7221C13.7457 24.7079 13.4209 24.6885 13.1155 24.6638C12.8311 24.6251 12.6362 24.5952 12.5309 24.5741C12.1973 24.5073 11.9393 24.5195 11.7567 24.6107C11.5951 24.6879 11.4476 24.8775 11.3141 25.1794C11.0892 25.5726 10.8995 25.8815 10.745 26.1062C10.5939 26.3133 10.4376 26.5924 10.276 26.9435C10.1811 27.2349 9.94394 27.6438 9.56457 28.1704C9.25897 28.6022 9.08682 28.9146 9.04814 29.1077L9.03755 29.2973C8.97777 29.5958 8.85301 29.9451 8.66328 30.3453C8.41735 30.8438 8.00104 31.6004 7.41436 32.6149C7.27032 32.8782 7.13155 33.1152 6.99806 33.3258C6.88213 33.54 6.80659 33.6892 6.77145 33.7734C6.57472 34.1175 6.29902 34.3544 5.94435 34.4842C5.61075 34.5999 5.25962 34.6209 4.89097 34.5471C4.56095 34.4627 4.36438 34.259 4.30128 33.9359L4.16455 33.2512C4.11898 33.023 4.11026 32.8386 4.13839 32.6982C4.19114 32.4349 4.36673 32.3331 4.66516 32.3929C4.85827 32.4316 4.97239 32.4088 5.00752 32.3245L5.04445 32.1402C5.07258 31.9997 5.05157 31.8312 4.9814 31.6346C4.9744 31.5784 4.97969 31.5064 4.99727 31.4186C5.05705 31.1202 5.24503 30.6831 5.56122 30.1074C5.72985 29.8125 5.85982 29.6194 5.95114 29.5281C6.06353 29.4228 6.14434 29.2473 6.19357 29.0015C6.21467 28.8962 6.2586 28.7681 6.32536 28.6171C6.40967 28.4696 6.49925 28.3415 6.59408 28.2327C6.68892 28.1239 6.89795 27.764 7.22116 27.1532C7.44603 26.6687 7.67611 26.3405 7.91142 26.1685C8.14672 25.9965 8.2714 25.8754 8.28547 25.8052C8.29602 25.7526 8.28901 25.6964 8.26445 25.6367C8.21885 25.4997 8.22067 25.3084 8.2699 25.0626C8.3121 24.8519 8.39467 24.6676 8.51761 24.5097C8.56678 24.4465 8.60894 24.3728 8.64408 24.2885C8.70029 24.1902 8.7442 24.1077 8.77582 24.041C8.84967 23.6724 9.09911 23.2019 9.52414 22.6297C9.67167 22.4402 9.84207 22.0909 10.0353 21.5818C10.2953 21.0131 10.4482 20.7059 10.4938 20.6603C10.5922 20.5339 10.6607 20.3741 10.6994 20.181C10.7381 19.9879 11.0437 19.4192 11.6163 18.4749C12.1574 17.506 12.4805 16.9864 12.5859 16.9162C12.7088 16.8495 12.8458 16.667 12.9969 16.3686C13.1515 16.0526 13.2569 15.7542 13.3132 15.4733C13.3729 15.1749 13.5205 14.8028 13.7559 14.3569L14.2618 13.4722C14.3356 13.2862 14.5358 12.9702 14.8625 12.5244C15.2067 12.0821 15.5598 11.4133 15.9217 10.5181C16.1255 10.0476 16.2626 9.77381 16.3328 9.69658C16.4557 9.53862 16.5348 9.37186 16.57 9.19631C16.6086 9.00321 16.714 8.79608 16.8862 8.57493C17.0758 8.35729 17.1865 8.16948 17.2181 8.01148C17.2287 7.95882 17.2586 7.90089 17.3077 7.83771C17.3745 7.77804 17.4482 7.7289 17.529 7.6903C17.6273 7.65522 17.6782 7.6289 17.6817 7.61135L17.6923 7.55869C17.6993 7.52358 17.6818 7.47441 17.6397 7.4112C17.6151 7.3515 17.6204 7.23388 17.6556 7.05833C17.7118 6.77745 17.8735 6.42638 18.1404 6.00512C18.3091 5.71023 18.4952 5.4645 18.699 5.26794C19.2504 4.7941 19.5472 4.45185 19.5894 4.24119C19.6034 4.17097 19.5999 4.09723 19.5789 4.01998C19.5754 3.94624 19.5807 3.87427 19.5948 3.80405C19.644 3.55828 19.7933 3.3143 20.0427 3.0721C20.3798 2.7562 20.6889 2.62638 20.9697 2.68264C21.6017 2.80924 22.0826 3.27989 22.4124 4.09459C22.7457 4.89173 22.8525 5.86261 22.7328 7.00722C22.68 7.45313 22.6746 7.75333 22.7167 7.90784C22.7483 7.93242 22.7641 7.99036 22.7641 8.08165C22.6761 8.52053 22.662 8.81897 22.7216 8.977C22.7988 9.13853 22.8391 9.53005 22.8424 10.1515C22.8212 10.5307 22.8263 11.0978 22.8577 11.8527C22.9486 13.2221 22.9694 14.0753 22.9201 14.4124C22.8919 14.7354 22.869 14.9408 22.8515 15.0286C22.7741 15.4148 22.623 15.6675 22.3983 15.7869C22.2964 15.8395 22.2016 15.9027 22.1138 15.9764C22.0436 16.0536 22.0049 16.1098 21.9979 16.1449C21.9486 16.4819 22.0206 16.6698 22.2137 16.7085C22.5928 16.821 22.7226 17.1756 22.6031 17.7725C22.5292 18.1412 22.5502 18.4466 22.666 18.6889C22.7993 18.9348 22.8923 19.2912 22.9448 19.7582C23.0008 20.2076 23.0025 20.564 22.9497 20.8273C22.9005 21.0731 22.8934 21.2908 22.9285 21.4804C22.9636 21.5787 22.9688 21.6894 22.9442 21.8122L22.5068 22.6285L22.4646 22.8391C22.4751 22.8777 22.5032 22.9199 22.5488 22.9655C22.6541 23.0779 22.7015 23.1605 22.6909 23.2131C22.6839 23.2482 22.6909 23.3044 22.712 23.3817C22.7365 23.4414 22.7699 23.5028 22.812 23.566C22.9243 23.7346 22.9716 23.8628 22.9541 23.9506C22.8556 24.5334 22.8466 25.125 22.9272 25.7255C22.9692 26.1538 22.9603 26.5172 22.9005 26.8157C22.8759 26.9386 22.8618 27.0544 22.8583 27.1633C22.8723 27.2756 22.8933 27.3529 22.9214 27.395C23.0513 27.5671 23.0757 27.855 22.9949 28.2588C22.9597 28.4344 22.9087 28.5976 22.842 28.7486C22.7787 28.882 22.7401 28.9838 22.726 29.054C22.6908 29.2296 22.7066 29.3788 22.7733 29.5017C22.868 29.758 22.9364 30.1004 22.9784 30.5288C23.0344 31.1608 23.0289 31.6436 22.9621 31.9771C22.9199 32.1878 22.8409 32.3089 22.725 32.3405C22.6126 32.3545 22.5494 32.3966 22.5354 32.4668C22.5143 32.5722 22.5757 32.6758 22.7196 32.7776C22.8635 32.8795 22.9407 33.0867 22.9512 33.3992L23.0036 33.9575C23.2067 35.9519 23.2572 37.2493 23.1552 37.8497C23.0321 38.4641 22.7335 38.8608 22.2595 39.0397C22.0382 39.1415 21.882 39.1923 21.7907 39.1923ZM13.6218 22.4098C13.7095 22.4274 13.8763 22.4151 14.1221 22.3731C14.5926 22.303 15.5038 22.3121 16.8556 22.4002C17.1821 22.4109 17.5157 22.432 17.8563 22.4638C18.2003 22.4779 18.4725 22.4868 18.6726 22.4903C18.8903 22.4974 19.0694 22.515 19.2098 22.5432C19.3713 22.5573 19.4959 22.5731 19.5837 22.5907C19.6539 22.6048 19.7136 22.6258 19.7628 22.6539C19.8295 22.6856 19.8892 22.7067 19.9418 22.7172C20.0647 22.7418 20.1665 22.7348 20.2473 22.6962C20.3491 22.6436 20.451 22.4997 20.5529 22.2644L20.6478 21.9274C20.6619 21.8572 20.6426 21.8168 20.5899 21.8062C20.5373 21.7957 20.4987 21.6693 20.4742 21.427C20.3795 20.9881 20.392 20.3789 20.5116 19.5994C20.6171 19.0728 20.6435 18.7129 20.5909 18.5198C20.5734 18.425 20.584 18.281 20.6227 18.0879L20.7176 17.7509C20.7598 17.5402 20.7458 17.2909 20.6757 17.003C20.6231 16.7185 20.6091 16.5149 20.6337 16.392C20.6513 16.3042 20.6952 16.2217 20.7655 16.1445C20.8533 16.0708 20.9007 16.0164 20.9077 15.9813L20.913 15.9549C20.9025 15.9163 20.8498 15.8601 20.755 15.7864C20.5971 15.6634 20.5251 15.5668 20.5392 15.4966L20.5814 15.286C20.5814 15.1947 20.592 15.0964 20.6131 14.991C20.6167 14.6996 20.6097 14.4152 20.5923 14.1378C20.4802 13.2389 20.4664 12.5788 20.5508 12.1575C20.6176 11.8239 20.7423 11.6572 20.9248 11.6572C21.1285 11.6433 21.2338 11.6187 21.2409 11.5836L21.2778 11.3993C21.2919 11.3291 21.176 11.2693 20.9302 11.2201C20.5089 11.1357 20.3651 10.76 20.4987 10.0929L20.736 9.18179C20.7782 8.97113 20.7835 8.80786 20.752 8.69198C20.6993 8.49885 20.666 8.30046 20.6521 8.09681C20.6556 7.89667 20.596 7.78429 20.4731 7.75968L20.4468 7.7544C20.3168 7.7649 20.1693 7.86316 20.0043 8.04921C19.8603 8.22121 19.7601 8.44765 19.7038 8.72853C19.6195 9.14985 18.9888 10.3382 17.812 12.2936C17.5415 12.7324 17.3078 13.2151 17.111 13.7417C16.9318 14.2719 16.7403 14.6808 16.5366 14.9687L16.094 15.6743C16.0097 15.8218 15.9499 15.9833 15.9147 16.1588C15.8831 16.3168 15.7443 16.5538 15.4985 16.8697C15.4001 16.9961 15.3123 17.1154 15.235 17.2278C15.1753 17.3436 15.1401 17.4279 15.1296 17.4805C15.0733 17.7614 14.8011 18.2546 14.3128 18.9603C14.1407 19.1814 14.0036 19.5009 13.9017 19.9187C13.8208 20.3224 13.6433 20.7525 13.3693 21.2089C13.1761 21.5354 13.0637 21.7776 13.032 21.9356C12.9969 22.1111 13.046 22.2305 13.1794 22.2938C13.3339 22.343 13.4813 22.3817 13.6218 22.4098ZM27.0684 58.4358C26.928 58.4077 26.7805 58.2777 26.6261 58.0459C26.4717 57.8142 26.405 57.6456 26.4261 57.5403C26.4332 57.5052 26.4525 57.4542 26.4841 57.3875C26.5298 57.3419 26.5579 57.2928 26.5684 57.2401C26.579 57.1874 26.579 57.1418 26.5685 57.1032C26.5229 56.9662 26.5124 56.8363 26.537 56.7134C26.6566 56.1165 27.6188 55.6428 29.4236 55.2923C29.6168 55.2397 29.7168 55.1958 29.7239 55.1607C29.7309 55.1256 29.7801 55.0624 29.8714 54.9711C30.2472 54.6447 30.6178 54.2533 30.9831 53.797C31.2746 53.4354 31.5205 53.1651 31.7207 52.9861C31.9209 52.8071 32.1632 52.4631 32.4478 51.954C32.7324 51.445 32.9344 50.9834 33.0539 50.5691C33.2507 49.9512 33.4913 49.6159 33.7758 49.5633C33.8706 49.5458 33.9232 49.5107 33.9338 49.458C33.9408 49.4229 33.9128 49.3351 33.8496 49.1947C33.8005 49.0753 33.79 48.9454 33.8181 48.8049L33.8814 48.6259C34.1906 47.9027 34.4876 46.967 34.7723 45.819C34.8532 45.5065 34.9288 45.2203 34.9991 44.9605C35.0904 44.6867 35.1537 44.5076 35.1888 44.4234C35.2415 44.3426 35.2872 44.2514 35.3259 44.1495C35.3856 44.0337 35.4242 43.9319 35.4418 43.8441C35.4594 43.7563 35.484 43.6791 35.5156 43.6124C35.5473 43.5457 35.5824 43.5071 35.621 43.4966C35.6807 43.472 35.7229 43.3983 35.7475 43.2754L35.7633 43.0595C35.8338 42.4345 36.1257 40.8405 36.6391 38.2775L36.7551 37.6982C36.822 37.3646 36.8694 37.082 36.8976 36.8503C36.9751 36.0989 36.9699 35.7144 36.8822 35.6968C36.8295 35.6863 36.5415 35.939 36.0182 36.455C35.4984 36.9534 34.9329 37.4062 34.3219 37.8133C33.7108 38.2204 33.2999 38.4029 33.0893 38.3607C33.019 38.3466 32.789 38.4009 32.3993 38.5237C32.0095 38.6465 31.4301 38.713 30.6612 38.7233C30.5207 38.6952 30.4171 38.6653 30.3504 38.6337C30.3013 38.6056 30.2434 38.5301 30.1767 38.4072C29.9556 38.0525 29.5572 37.717 28.9815 37.4008C28.9147 37.3692 28.8305 37.2428 28.7288 37.0216L28.3762 36.0471C28.2324 35.5801 28.1517 35.1622 28.1343 34.7935L28.1502 34.3037C28.1082 33.9666 28.0978 33.7454 28.1189 33.6401L28.1611 33.4294C28.2173 33.3311 28.321 32.9046 28.4722 32.1497L28.6463 31.2807C28.6885 31.0701 28.7552 30.8735 28.8466 30.6909C28.9414 30.4908 29.0837 30.2363 29.2734 29.9274C29.6669 29.2393 29.8812 28.8075 29.9164 28.6319C29.9339 28.5441 30.0007 28.3932 30.1166 28.179C30.2501 27.9684 30.3801 27.7753 30.5066 27.5998C30.6506 27.4278 30.7524 27.3295 30.8121 27.305C30.9983 27.1962 31.2108 26.8644 31.4497 26.3097C31.5797 26.0254 31.8326 25.72 32.2084 25.3935C32.3805 25.2637 32.5245 25.1373 32.6404 25.0145C32.7563 24.8916 32.816 24.8214 32.8195 24.8039C32.8653 24.5756 33.1445 24.2755 33.6572 23.9035C34.1875 23.535 34.7442 23.2174 35.3271 22.9507C35.9136 22.6665 36.3771 22.5402 36.7177 22.5719C37.0758 22.6072 37.3075 22.5897 37.4129 22.5195C37.5393 22.4352 37.7342 22.4195 37.9975 22.4723C38.1731 22.5074 38.2819 22.5566 38.324 22.6198C38.3661 22.683 38.575 22.7797 38.9507 22.9097C39.3895 23.0889 39.8284 23.2225 40.2672 23.3104C40.7763 23.4124 41.1099 23.5248 41.2678 23.6478L41.5732 24.0376C41.7768 24.2975 41.8977 24.7873 41.9361 25.5071C41.9639 26.4622 41.8829 27.4137 41.693 28.3617C41.5875 28.8883 41.4452 29.3254 41.266 29.673C41.2098 29.7713 41.1641 29.9082 41.1289 30.0837C41.0832 30.3119 41.055 30.5893 41.0444 30.9159C40.9388 31.8077 40.3866 34.7464 39.3879 39.732C39.0538 41.3997 38.6407 43.2341 38.1485 45.2354L38.022 45.7304C37.9025 46.0534 37.7848 46.2763 37.6689 46.3992C37.553 46.522 37.4792 46.6625 37.4476 46.8205L37.4159 47.1154C37.4017 47.3682 37.3542 47.6965 37.2734 48.1002C37.2065 48.4338 37.0748 48.8182 36.878 49.2535L36.2718 50.7755C36.0153 51.5092 35.527 52.4887 34.8068 53.7139C34.5257 54.2054 34.3167 54.5195 34.1797 54.6564C34.0919 54.7302 33.9989 54.8302 33.9005 54.9566C33.8197 55.0865 33.7495 55.2093 33.6897 55.3252C33.5387 55.6236 33.291 55.9483 32.9468 56.2993C32.6202 56.6538 32.3006 56.9276 31.988 57.1206C31.6087 57.3733 31.254 57.5944 30.9239 57.7839C29.8141 58.4928 28.9433 58.784 28.3113 58.6574C28.206 58.6363 28.1042 58.5976 28.0059 58.5414C27.9216 58.5063 27.818 58.4764 27.6952 58.4518C27.5723 58.4272 27.4546 58.4219 27.3423 58.4359C27.2299 58.4499 27.1386 58.4499 27.0684 58.4358ZM31.5627 35.7268C31.8611 35.7866 32.2685 35.6217 32.7847 35.2321C33.4345 34.7232 33.7892 34.4108 33.8489 34.2949C34.1299 33.986 34.3442 33.7824 34.4917 33.6842C34.7726 33.4666 35.0115 33.1857 35.2082 32.8417L35.7825 32.0255C36.0179 31.671 36.1918 31.3041 36.3043 30.9249C36.4765 30.4299 36.7523 29.9648 37.1316 29.5295C37.7076 28.8415 38.0255 28.4395 38.0853 28.3237C38.1661 28.1938 38.2135 28.0937 38.2275 28.0235C38.217 27.9849 38.1837 27.9234 38.1275 27.8392C38.0749 27.7373 38.1066 27.3967 38.2227 26.8174L38.6077 25.0321C38.232 24.9934 37.9107 25.002 37.6438 25.0581C37.398 25.1002 37.0311 25.2002 36.543 25.358C36.3463 25.4282 36.1954 25.4527 36.09 25.4316C36.0374 25.4211 36.0058 25.3965 35.9952 25.3578C35.9426 25.256 35.89 25.1998 35.8373 25.1893C35.7846 25.1787 35.7354 25.2875 35.6897 25.5158C35.6616 25.6562 35.6317 25.7598 35.6001 25.8265C35.5158 25.9739 35.1997 26.3214 34.6518 26.869C33.8439 27.7114 33.4259 28.2029 33.3978 28.3433C33.3908 28.3784 33.2063 28.661 32.8445 29.1911C32.5003 29.7247 32.2719 30.1354 32.1595 30.4233C32.0646 30.7147 31.9504 30.9201 31.8169 31.0394C31.687 31.2325 31.6097 31.3905 31.5851 31.5134C31.5218 31.7381 31.3234 31.817 30.9898 31.7502C30.8669 31.7256 30.8002 31.7396 30.7897 31.7923C30.7791 31.8449 30.8563 31.9608 31.0213 32.1399C31.095 32.2277 31.1424 32.3103 31.1634 32.3875C31.202 32.4683 31.2143 32.5894 31.2002 32.7509C31.2037 32.916 31.1825 33.1582 31.1368 33.4777C30.9292 34.8786 31.0712 35.6283 31.5627 35.7268ZM37.3389 23.4359C37.4091 23.4499 37.4846 23.392 37.5654 23.2621L37.6287 23.0831C37.6427 23.0129 37.6392 22.9391 37.6182 22.8619C37.6007 22.7671 37.5568 22.7126 37.4866 22.6986C37.3286 22.6669 37.225 22.774 37.1757 23.0198L37.1651 23.2094C37.1932 23.3428 37.2511 23.4183 37.3389 23.4359ZM49.2367 43.6769C49.0436 43.6382 48.9066 43.5468 48.8259 43.4029C48.7417 43.2764 48.7084 43.1693 48.726 43.0816C48.7471 42.9762 48.7049 42.913 48.5996 42.8919C48.4416 42.8603 48.2222 42.9076 47.9412 43.0339C47.7867 43.076 47.6217 43.0795 47.4461 43.0443C47.1302 42.981 46.7703 42.772 46.3666 42.4172C45.6681 41.8025 45.2066 41.0071 44.9822 40.0309C44.5016 38.5104 44.4038 37.0392 44.6886 35.6173C44.7801 35.1608 44.9118 34.7764 45.084 34.464C45.2561 34.1515 45.3528 33.9426 45.3739 33.8373C45.3879 33.7671 45.3844 33.6934 45.3634 33.6161C45.2932 33.4195 45.2845 33.1895 45.3373 32.9261C45.3935 32.6453 45.4322 32.4522 45.4533 32.3468C45.6397 31.4164 45.891 30.709 46.2071 30.2245C46.5795 29.6418 46.843 29.1924 46.9975 28.8765C47.2189 28.5009 47.4999 28.1463 47.8406 27.8129C48.1988 27.4829 48.4675 27.1898 48.6466 26.9335C48.8258 26.6773 49.1436 26.4123 49.6002 26.1386L50.2481 25.7753C50.8276 25.4349 51.3052 25.1928 51.6809 25.049C52.5623 24.7508 53.1171 24.6246 53.3453 24.6703C53.5735 24.716 53.8228 24.702 54.0932 24.6284C54.2653 24.5898 54.4128 24.5828 54.5356 24.6074C54.6234 24.625 54.7077 24.6602 54.7884 24.7128C55.0166 24.8499 55.2939 24.9693 55.6205 25.0712C55.9645 25.1767 56.2015 25.3155 56.3313 25.4875C56.4823 25.6456 56.6209 25.9564 56.7471 26.4199C56.9716 27.1222 57.0487 27.6489 56.9784 28C56.9397 28.1931 56.8554 28.3405 56.7254 28.4423C56.599 28.5266 56.5253 28.6213 56.5042 28.7267L56.5094 28.8373C56.555 28.9742 56.5655 29.1041 56.5409 29.227C56.5022 29.4201 56.3353 29.6606 56.0403 29.9484C55.812 30.1766 55.6504 30.3907 55.5556 30.5908C55.4607 30.7909 55.3044 30.9787 55.0866 31.1542C54.8864 31.3332 54.6722 31.5368 54.4439 31.765C54.2367 31.9791 53.947 32.1493 53.5747 32.2756C53.2236 32.3878 52.8899 32.5949 52.5738 32.8968C52.2577 33.1986 52.0646 33.3425 51.9944 33.3285C51.9241 33.3144 51.7907 33.3881 51.594 33.5495C51.4781 33.6724 51.3763 33.725 51.2885 33.7075C51.2534 33.7004 51.1621 33.6547 51.0147 33.5704C50.8883 33.4721 50.7724 33.4124 50.6671 33.3913C50.5969 33.3772 50.5337 33.3737 50.4775 33.3807C50.2352 33.4052 50.0948 33.514 50.0561 33.7071C50.0385 33.7948 50.049 33.8791 50.0876 33.9599C50.1437 34.0442 50.1665 34.1127 50.156 34.1653C50.1349 34.2706 50.033 34.3689 49.8504 34.4602C49.566 34.604 49.1464 34.6934 48.5916 34.7284C48.1597 34.7879 47.8699 35.1864 47.7222 35.9237C47.578 36.6434 47.576 37.4282 47.7162 38.2779C47.874 39.1312 48.1722 39.7844 48.611 40.2375C48.8146 40.4061 49.127 40.5326 49.5483 40.6169C49.8117 40.6697 50.0539 40.6908 50.2751 40.6804C50.5701 40.6664 50.7263 40.6156 50.7439 40.5278C50.7615 40.44 50.9371 40.3382 51.2707 40.2225C51.6254 40.0927 51.808 40.0014 51.8185 39.9488C51.8291 39.8961 51.8905 39.8628 52.0029 39.8488C52.1363 39.8207 52.2153 39.7909 52.2399 39.7593C52.2434 39.7417 52.2329 39.7031 52.2084 39.6434C52.1838 39.5837 52.1768 39.5275 52.1873 39.4749C52.219 39.3169 52.3981 39.1063 52.7248 38.843L53.3833 38.2902C53.9452 37.7637 54.3122 37.4812 54.4843 37.4426C54.6564 37.404 54.7863 37.3935 54.874 37.4111C55.0847 37.4533 55.3234 37.5833 55.5902 37.8011C55.857 38.0188 56.0342 38.2278 56.122 38.428C56.2097 38.6281 56.2201 38.895 56.1533 39.2285C55.96 39.9202 55.3962 40.6837 54.462 41.5191C53.5453 42.358 52.6392 42.916 51.7438 43.1931L50.9063 43.4088C50.1619 43.6613 49.6053 43.7507 49.2367 43.6769ZM49.0718 31.6475C49.142 31.6615 49.3843 31.5914 49.7987 31.437C50.2552 31.2546 50.5484 31.1125 50.6784 31.0107C50.8118 30.8913 50.926 30.8229 51.0208 30.8054C51.1331 30.7914 51.2771 30.8019 51.4527 30.8371C51.9442 30.9356 52.2181 30.8444 52.2744 30.5635C52.2919 30.4757 52.2832 30.3827 52.2481 30.2843C52.2306 30.1895 52.2288 30.107 52.2429 30.0368C52.2535 29.9841 52.3606 29.8595 52.5643 29.6629C53.0103 29.2593 53.2878 28.9223 53.3968 28.652C53.5268 28.3676 53.6023 28.1728 53.6234 28.0674C53.6867 27.7514 53.613 27.5724 53.4024 27.5302C53.2444 27.4985 52.9968 27.595 52.6597 27.8196C52.4665 27.9635 52.2049 28.1302 51.8748 28.3197C51.4042 28.5724 50.7632 29.1743 49.9518 30.1256C49.3828 30.7785 49.0702 31.2454 49.0139 31.5263C48.9998 31.5965 49.0191 31.6369 49.0718 31.6475ZM60.7238 46.1423L60.5922 46.1159C60.4693 46.0913 60.3324 46.0456 60.1814 45.9789C59.7847 45.7716 59.5531 45.4239 59.4865 44.9358C59.4375 44.4513 59.5255 43.6472 59.7506 42.5237C59.9897 41.33 60.1656 40.3609 60.2782 39.6166C60.4611 38.4299 60.8444 36.3795 61.4282 33.4653C62.0893 30.165 62.5288 28.2445 62.7467 27.7039C63.1472 26.9807 63.5405 26.6578 63.9267 26.7352C64.0672 26.7633 64.183 26.823 64.2743 26.9143C64.3831 27.0092 64.4761 27.0917 64.5533 27.162C64.6306 27.2322 64.7008 27.2919 64.764 27.3411C64.8307 27.3727 64.8587 27.4149 64.8482 27.4675C64.8447 27.4851 64.8218 27.5079 64.7797 27.536C64.7551 27.5676 64.7358 27.6185 64.7217 27.6887C64.6971 27.8116 64.7269 27.9819 64.8111 28.1996C64.8567 28.3365 64.9111 28.4296 64.9743 28.4788C65.0585 28.5139 65.1042 28.5596 65.1112 28.6158C65.1393 28.6579 65.1533 28.7246 65.1532 28.8159C64.8649 30.2554 64.8524 31.0015 65.1157 31.0543C65.2035 31.0719 65.3071 31.0105 65.4265 30.87C65.5775 30.6629 65.8058 30.4804 66.1113 30.3225C66.4344 30.1681 66.7962 29.9119 67.1965 29.5539C68.4012 28.5536 69.495 28.1519 70.4781 28.3488C70.7766 28.4086 71.0644 28.521 71.3418 28.6861C71.6086 28.9039 71.949 29.3464 72.3631 30.0137C72.493 30.2771 72.5508 30.4439 72.5368 30.5141C72.5262 30.5668 72.5192 30.6475 72.5156 30.7564C72.5332 30.8512 72.5595 30.9477 72.5945 31.0461C72.7769 31.6851 72.4127 34.278 71.5019 38.8248L70.9375 41.6423C70.8109 42.2743 70.7124 42.8571 70.642 43.3908C70.6068 43.7489 70.5593 44.0772 70.4995 44.3757C70.2921 45.4114 69.9653 46.1767 69.5192 46.6717C69.1434 47.0894 68.736 47.2543 68.2972 47.1664C68.0689 47.1207 67.8214 46.9889 67.5547 46.7711C67.3054 46.5569 67.1686 46.3286 67.1441 46.0863C67.1231 45.8265 67.1231 45.6439 67.1442 45.5386C67.1794 45.363 67.2479 45.2489 67.3497 45.1963C67.4551 45.1261 67.5148 45.0559 67.5289 44.9857C67.5429 44.9155 67.5447 44.8154 67.5342 44.6855C67.5168 44.3168 67.5872 43.7375 67.7454 42.9475C67.8685 42.3331 67.9529 42.0031 67.9985 41.9574C68.0477 41.8942 68.0776 41.8363 68.0881 41.7837L67.9987 41.5466C67.918 41.3113 68.0148 40.5091 68.2891 39.1398C68.4016 38.578 68.5141 38.0619 68.6266 37.5915C68.7567 37.1245 68.8621 36.8261 68.9429 36.6962C69.0413 36.5698 69.1063 36.4276 69.1379 36.2696C69.1801 36.059 69.1697 35.8378 69.1065 35.606C69.0609 35.3778 69.1349 34.6896 69.3284 33.5415C69.4867 32.4777 69.45 31.886 69.2183 31.7666C69.0077 31.6331 68.876 31.5611 68.8234 31.5505C68.4723 31.4802 67.9982 31.796 67.401 32.4981C67.3483 32.5788 67.1692 32.7438 66.8637 32.993C66.5616 33.2246 66.2087 33.4826 65.8048 33.7669C65.271 34.153 64.8812 34.4583 64.6353 34.683C64.393 34.89 64.2384 35.0691 64.1717 35.22C64.1225 35.3745 64.0873 35.5044 64.0662 35.6097C64.0346 35.7677 64.0169 35.9468 64.0134 36.1469C64.0098 36.3471 63.9852 36.5612 63.9394 36.7895L63.681 37.9428C63.6282 38.3887 63.6088 38.7591 63.6227 39.0541C63.5841 39.2472 63.5489 39.3771 63.5173 39.4438C63.4892 39.4929 63.4295 39.5631 63.3381 39.6544C63.1976 39.8089 63.1169 39.9388 63.0958 40.0441C63.0887 40.0792 63.0957 40.1354 63.1168 40.2126C63.1413 40.2723 63.1166 40.6234 63.0427 41.266C62.9406 42.0489 62.879 42.63 62.8578 43.0092C62.8367 43.3884 62.8014 43.7009 62.7522 43.9467C62.7417 43.9993 62.7241 44.0415 62.6995 44.0731C62.6082 44.1643 62.5186 44.3837 62.4307 44.7313C62.3463 45.0613 62.1654 45.372 61.8879 45.6634C61.5156 46.0635 61.1276 46.2232 60.7238 46.1423ZM86.0724 51.0558C85.8969 51.0206 85.7073 50.9187 85.5037 50.7501C85.3142 50.6026 85.1843 50.4305 85.1141 50.2339C85.044 50.0372 85.0212 49.7405 85.0459 49.3438C85.0882 48.9505 85.1709 48.401 85.294 47.6953L85.6369 45.8468L85.895 45.7889C86.0635 45.7679 86.1636 45.7241 86.1952 45.6574C86.2058 45.6047 86.1742 45.4888 86.1005 45.3097C86.0304 45.1131 85.9971 44.869 86.0007 44.5776C86.0218 44.2897 86.0553 44.0316 86.101 43.8034L86.2223 43.3347C86.3278 42.8081 86.3771 42.2884 86.3702 41.7758C86.3703 41.6845 86.3474 41.616 86.3018 41.5704C86.2737 41.5282 86.1983 41.4948 86.0754 41.4702C85.8121 41.4175 85.6558 41.514 85.6065 41.7597C85.5854 41.8651 85.5872 41.9932 85.6117 42.1442C85.6538 42.2987 85.6555 42.4725 85.6168 42.6656C85.5606 42.8552 85.471 42.9834 85.3481 43.05C85.2427 43.1202 85.1514 43.3484 85.074 43.7346C84.9966 44.1208 84.8789 44.3894 84.7209 44.5403C84.3696 44.9265 84.1325 45.1985 84.0096 45.3565C83.5881 45.8198 83.3229 46.0954 83.2141 46.1831C83.1263 46.2568 82.9928 46.3762 82.8137 46.5411C82.6346 46.7061 82.4449 46.8781 82.2447 47.0571C81.7109 47.5345 81.1489 47.924 80.559 48.2258C79.667 48.668 79.0103 48.8468 78.589 48.7624C78.3959 48.7237 78.2713 48.6166 78.2152 48.441C78.1801 48.2514 78.1012 48.1443 77.9783 48.1197L77.9519 48.1144C77.8045 48.1214 77.6938 48.2179 77.62 48.404C77.5463 48.5901 77.4725 48.6848 77.3988 48.6883C77.153 48.6391 76.8809 48.5389 76.5825 48.3879C76.1998 48.2017 75.9699 48.0278 75.8927 47.8662C75.819 47.6872 75.8191 47.4133 75.893 47.0446L75.9879 46.7076C76.0406 46.4443 76.0055 46.3003 75.8827 46.2757C75.7949 46.2581 75.6808 46.2809 75.5403 46.344C75.3998 46.4072 75.2945 46.4317 75.2243 46.4177C75.0312 46.379 74.9435 46.0875 74.9612 45.5433C74.9647 45.4345 74.9525 45.2677 74.9245 45.0429C74.7983 44.2143 74.7704 43.5787 74.8408 43.1363C74.9147 42.6764 74.9674 42.3674 74.9991 42.2094C75.1433 41.4897 75.3559 40.7928 75.637 40.1187C75.7249 39.8624 75.8022 39.6132 75.869 39.3709C75.9533 39.1322 76.0447 38.904 76.1431 38.6863C76.2625 38.4546 76.3609 38.2826 76.4382 38.1702C76.656 37.8122 76.8106 37.4962 76.9019 37.2224C77.032 36.8467 77.2199 36.5466 77.4658 36.3219C77.7151 36.0797 77.8609 35.8533 77.9031 35.6426C77.9488 35.4144 78.2053 35.0458 78.6724 34.5368C79.1887 33.9647 79.8437 33.3838 80.6374 32.7941L81.3592 32.1992C82.3671 31.4516 83.238 31.0692 83.9719 31.0519C84.7233 31.038 85.257 31.0628 85.5729 31.1261C86.2751 31.2668 86.8948 31.5917 87.4318 32.101C87.6424 32.3258 87.8179 32.4523 87.9584 32.4804C88.1515 32.5191 88.3025 32.2663 88.4116 31.7221L88.6384 30.4529C88.7228 30.0316 88.816 29.7489 88.9178 29.605C89.0232 29.4435 89.0847 29.3189 89.1023 29.2311C89.1023 29.1398 89.0707 28.9783 89.0076 28.7466C88.962 28.5183 89.0219 27.9917 89.1872 27.1666C89.3525 26.3415 89.5511 25.6235 89.783 25.0126C89.8462 24.8792 89.8919 24.7423 89.92 24.6019C89.9482 24.4614 89.9552 24.335 89.9412 24.2227C89.9238 23.7627 90.0312 22.9534 90.2632 21.7948C90.5094 20.7485 90.7993 19.7567 91.1332 18.8193C91.4846 17.8854 91.8008 17.3097 92.0817 17.0921C92.3803 16.878 92.6524 16.7956 92.8982 16.8448C93.0737 16.88 93.2299 17.0117 93.3668 17.24C93.6651 17.7562 93.6665 18.7516 93.3711 20.2262C92.862 20.1242 92.5689 20.0838 92.4916 20.1048C92.4354 20.1118 92.3915 20.1943 92.3599 20.3523C92.3493 20.405 92.3511 20.4419 92.3651 20.4629C92.3967 20.4875 92.4915 20.5156 92.6495 20.5473C93.0181 20.6211 93.1901 20.9021 93.1654 21.3901C93.1617 21.8641 93.1353 22.224 93.086 22.4698C92.9841 22.9789 92.7996 23.4897 92.5326 24.0023C92.4166 24.2164 92.3463 24.3849 92.3217 24.5078C92.3006 24.6131 92.3059 24.7237 92.3374 24.8396C92.4707 25.3593 92.4336 26.137 92.2261 27.1728C92.1523 27.5414 92.0538 27.9417 91.9308 28.3735C91.7832 28.9282 91.6742 29.3811 91.6038 29.7322C91.5546 29.978 91.5247 30.1729 91.5141 30.3168C91.5211 30.6469 91.4823 31.0226 91.3979 31.4439C91.3135 31.7739 91.2011 31.9705 91.0607 32.0337C90.9237 32.0793 90.8429 32.1635 90.8183 32.2864C90.7972 32.3917 90.8411 32.5375 90.9498 32.7236C90.9955 32.7692 91.0306 32.8219 91.0551 32.8816C91.0586 33.0466 91.0427 33.3082 91.0075 33.6664C90.807 34.667 90.6558 35.4675 90.5538 36.0679C90.3041 37.3143 90.102 38.2324 89.9473 38.8222C89.7926 39.412 89.6345 39.7912 89.4729 39.9597C89.3149 40.1106 89.1007 40.1773 88.8303 40.1596C88.6864 40.1491 88.574 40.1631 88.4932 40.2017C88.416 40.2227 88.365 40.2947 88.3404 40.4176C88.3123 40.558 88.3597 40.6405 88.4825 40.6651C88.5352 40.6757 88.5967 40.6424 88.6669 40.5651C88.7547 40.4914 88.9478 40.4845 89.2463 40.5442C89.3656 40.5864 89.4569 40.6321 89.5201 40.6813C89.6183 40.9201 89.3615 42.5667 88.7496 45.6213C88.1518 48.6056 87.7335 50.2838 87.4946 50.6559C87.3049 50.8736 87.1644 50.9824 87.0731 50.9824L86.9362 50.9823C86.8133 50.9577 86.7695 50.8576 86.8046 50.6821C86.8117 50.647 86.8064 50.6276 86.7888 50.6241C86.7713 50.6206 86.7133 50.682 86.615 50.8084C86.4815 51.019 86.3006 51.1015 86.0724 51.0558ZM78.0264 45.8287C78.1668 45.8568 78.3986 45.7937 78.7217 45.6393C79.2203 45.4287 79.7769 45.0655 80.3916 44.5495C81.0237 44.0371 81.5734 43.4808 82.0406 42.8805C82.6482 42.1258 83.1154 41.5711 83.4421 41.2166C83.6212 41.0516 83.8249 40.7638 84.0533 40.353C84.1868 40.0511 84.4661 39.6141 84.8911 39.0419C85.3337 38.4732 85.5638 38.145 85.5813 38.0572C85.6024 37.9519 85.7781 37.6675 86.1083 37.2041C86.4596 36.7267 86.6616 36.3563 86.7143 36.093C86.746 35.8437 86.6565 35.5611 86.446 35.245C86.0494 34.5812 85.7335 34.1984 85.4983 34.0965C85.2841 33.9806 85.1244 33.9121 85.0191 33.891C84.668 33.8207 84.2607 33.8486 83.7972 33.9749C83.4109 34.0801 82.9421 34.0958 82.3909 34.0218C81.8397 33.9479 81.5237 33.9303 81.4429 33.9689C81.3797 34.011 81.313 34.025 81.2428 34.011C81.1725 33.9969 81.0883 33.9618 80.99 33.9055C80.8917 33.8493 80.825 33.8177 80.7899 33.8107C80.7583 33.7861 80.7337 33.772 80.7161 33.7685C80.6635 33.758 80.6248 33.8141 80.6002 33.937C80.5791 34.0424 80.6388 34.1091 80.7792 34.1372L81.3112 34.2164C81.8729 34.3289 82.1239 34.5344 82.0641 34.8328C82.0219 35.0435 81.762 35.2014 81.2845 35.3066C81.1721 35.3206 81.0948 35.4329 81.0526 35.6436L81.0263 35.7753C80.9559 36.1264 80.8013 36.488 80.5625 36.8601C80.3271 37.2146 80.0812 37.4849 79.8249 37.6709C79.6423 37.7622 79.5141 37.8552 79.4403 37.95C79.3841 38.0483 79.3331 38.2115 79.2874 38.4397C79.2276 38.7382 79.0432 39.2033 78.734 39.8353C78.4739 40.4953 78.3351 40.8692 78.3176 40.957L78.2806 41.2782L78.1963 41.4257C78.1014 41.5345 78.0136 41.7908 77.9327 42.1945C77.8131 42.7914 77.7357 43.4515 77.7003 44.1748C77.6545 44.7682 77.6614 45.1895 77.721 45.4388C77.7842 45.6706 77.8859 45.8005 78.0264 45.8287ZM85.4434 41.2067C85.5347 41.2067 85.5839 41.1892 85.5909 41.1541C85.6191 41.0136 85.5506 40.8538 85.3857 40.6747C85.3049 40.622 85.2294 40.5887 85.1592 40.5746C85.0258 40.6026 84.9433 40.6957 84.9116 40.8536C84.8975 40.9239 84.9116 40.9906 84.9537 41.0538C84.9993 41.0995 85.1187 41.1416 85.3118 41.1803L85.4434 41.2067ZM103.89 55.1453C103.609 55.0891 103.365 54.9398 103.158 54.6974C103 54.4832 102.891 54.2971 102.831 54.139C102.793 53.967 102.796 53.7212 102.842 53.4017C102.888 53.0822 102.978 52.5889 103.111 51.9218C103.22 51.3776 103.312 50.9668 103.386 50.6895C103.463 50.3946 103.521 50.1962 103.56 50.0944C103.619 49.9785 103.693 49.8837 103.781 49.81C103.872 49.7188 103.927 49.6293 103.944 49.5415C103.955 49.4888 103.955 49.4432 103.944 49.4045C103.916 49.1798 103.918 48.8972 103.95 48.5566C103.996 48.1458 103.983 47.9334 103.913 47.9193C103.843 47.9052 103.718 47.9807 103.539 48.1457L102.691 48.8248C101.922 49.3829 101.528 49.7058 101.511 49.7935C101.493 49.8813 101.056 50.1954 100.199 50.7359C99.3598 51.2799 98.8874 51.5413 98.7821 51.5202C98.6768 51.4991 98.5346 51.571 98.3554 51.736C98.092 51.9571 97.797 52.108 97.4705 52.1887C97.1474 52.2518 96.8806 52.2622 96.6699 52.22C96.5821 52.2025 96.4873 52.1743 96.3855 52.1357C96.2872 52.0795 96.1942 52.0426 96.1064 52.025C95.966 51.9969 95.75 52.0266 95.4586 52.1143C95.1847 52.2055 94.8897 52.2195 94.5738 52.1562C94.2929 52.0999 94.0067 51.9787 93.7154 51.7925C93.1326 51.4202 92.815 50.9548 92.7625 50.3965C92.7696 50.1788 92.6872 49.8611 92.5153 49.4432C92.3644 49.0112 92.3171 48.6548 92.3734 48.374C92.4086 48.1984 92.4946 48.0422 92.6316 47.9053C92.7651 47.6947 92.8442 47.5279 92.8688 47.405C92.8969 47.2646 92.932 47.1803 92.9742 47.1523C93.0339 47.1277 93.1252 47.1277 93.2481 47.1523C93.5465 47.2121 93.7115 47.163 93.7432 47.005C93.7678 46.8821 93.6765 46.7452 93.4694 46.5941C93.3887 46.5414 93.322 46.5098 93.2693 46.4993C93.2167 46.4887 93.2009 46.4308 93.222 46.3254C93.2782 46.0446 93.6067 45.5443 94.2073 44.8247C95.0574 43.7716 95.7106 43.1538 96.1671 42.9714C96.3603 42.9188 96.6043 42.7942 96.8993 42.5977C97.096 42.4362 97.4279 42.2836 97.8949 42.1398C98.3163 42.0416 98.599 41.9522 98.7429 41.8714C98.8869 41.7907 99.2012 41.7259 99.6858 41.6769C100.188 41.6314 100.629 41.6192 101.008 41.6404C101.552 41.6581 101.873 41.6494 101.972 41.6144C102.245 41.6144 102.795 41.6971 103.62 41.8624L103.883 41.9151C104.55 42.0488 104.947 42.0735 105.074 41.9893C105.218 41.9085 105.309 41.7716 105.348 41.5785C105.386 41.3854 105.392 41.1309 105.364 40.8148C105.357 39.8458 105.245 39.1294 105.027 38.6659C104.813 38.1848 104.42 37.823 103.848 37.5806C103.514 37.4225 103.244 37.2679 103.037 37.1168C102.851 36.9518 102.647 36.8288 102.426 36.748C102.082 36.6425 101.873 36.5003 101.799 36.3212C101.67 36.1491 101.543 36.0507 101.42 36.0261C101.245 35.991 101.097 36.1349 100.978 36.4579C100.943 36.6334 100.888 36.7686 100.814 36.8634C100.741 36.9581 100.612 37.0511 100.43 37.1424C100.124 37.3003 99.8977 37.5197 99.7501 37.8005C99.6061 38.0638 99.4621 38.2358 99.3181 38.3165C99.1952 38.3832 99.0196 38.3937 98.7914 38.348C98.5808 38.3058 98.4684 38.3198 98.4543 38.39L98.4068 38.7639C98.3435 39.0799 98.1363 39.2027 97.7852 39.1324C97.5921 39.0937 97.3868 38.9796 97.1691 38.7899C96.7058 38.3684 96.5321 37.868 96.6482 37.2887C96.7044 37.0078 96.8169 36.7199 96.9855 36.425C97.2701 35.916 97.6002 35.5896 97.976 35.4457C98.2463 35.3721 98.4219 35.2703 98.5027 35.1404C98.6397 34.9122 98.9628 34.7122 99.472 34.5403C100.002 34.3544 100.585 34.2246 101.221 34.1511C101.986 34.067 102.694 34.0901 103.343 34.2202C105.783 34.709 107.244 35.9419 107.724 37.9188C107.826 38.2314 107.898 38.4192 107.94 38.4824C108.157 38.7634 108.189 39.6096 108.034 41.0211C107.882 42.415 107.659 43.8492 107.364 45.3238L106.989 47.0565C106.785 48.0747 106.629 48.9015 106.52 49.537C106.259 50.8361 105.997 51.9613 105.734 52.9128C105.488 53.8677 105.296 54.4593 105.159 54.6875C104.896 54.9999 104.636 55.1578 104.38 55.1613C104.141 55.1682 103.978 55.1629 103.89 55.1453ZM95.9018 49.4916C96.0598 49.5233 96.281 49.5128 96.5654 49.4602C96.8534 49.3901 97.2994 49.169 97.9034 48.797C98.525 48.4285 99.1255 48.0284 99.705 47.5967C100.302 47.1686 100.688 46.8351 100.864 46.5964C101.04 46.3577 101.264 46.1014 101.538 45.8277C101.774 45.6557 101.986 45.4609 102.176 45.2432C102.387 45.0116 102.501 44.8518 102.518 44.7641C102.532 44.6938 102.425 44.6359 102.197 44.5902C101.109 44.3721 100.004 44.507 98.8842 44.9947C98.3258 45.2298 97.8939 45.4719 97.5883 45.7211C96.7559 46.5038 96.2221 47.0725 95.9867 47.4271C95.7549 47.7641 95.6108 48.073 95.5545 48.3539C95.5194 48.5294 95.5123 48.7015 95.5333 48.87C95.5262 49.179 95.563 49.3598 95.6438 49.4125C95.7456 49.4512 95.8316 49.4775 95.9018 49.4916Z" fill="#FFD600"/>
</svg>
