<svg width="70" height="69" viewBox="0 0 70 69" fill="none" xmlns="http://www.w3.org/2000/svg">
<g clip-path="url(#clip0_30_940)">
<path d="M69.8495 42.1763C69.857 39.2533 69.8651 36.2299 69.8478 33.2566C69.8325 30.5455 69.7356 27.7916 69.6418 25.1282L69.5817 23.4076C69.5597 22.7561 69.542 22.1041 69.5238 21.4526C69.466 19.3493 69.4081 17.1743 69.1946 15.0451C68.9754 12.8868 68.5641 10.7521 67.9653 8.66604C66.2914 2.8223 60.7102 0.173828 56.203 0.173828H56.1342C48.1732 0.221841 40.0804 0.44271 32.2563 0.656035C29.5191 0.730595 26.7823 0.802738 24.0455 0.872502L22.4916 0.910125C19.4099 0.98315 16.2231 1.05873 13.0937 1.2528C7.4393 1.60326 3.68273 3.89443 1.61021 8.25696C1.00661 9.52753 0.652598 10.9009 0.567166 12.3034C0.0404298 22.5735 0.276162 33.0122 0.504383 43.1069C0.533888 44.4105 0.562828 45.7125 0.591175 47.0135L0.611125 47.9421C0.671001 50.7165 0.733194 53.5852 0.751128 56.4055C0.787863 62.213 5.84926 67.6701 11.5823 68.0815C12.845 68.1488 14.1104 68.1473 15.373 68.0775C16.2156 68.0461 17.088 68.0116 17.9378 68.0246C21.7297 68.0763 25.5849 68.1502 29.3135 68.2212C31.4375 68.2615 33.5615 68.3008 35.6855 68.3391C37.209 68.3655 38.7331 68.3894 40.258 68.4112C42.9285 68.4512 45.6894 68.4923 48.4041 68.555C48.8819 68.5817 49.3566 68.6525 49.8214 68.7663C50.0528 68.8146 50.2816 68.8632 50.5122 68.9026C50.5287 68.9055 50.5454 68.9066 50.5622 68.9066H53.5219C53.5363 68.9066 53.5508 68.9057 53.5653 68.9037C54.1727 68.8143 54.7825 68.7353 55.3919 68.6565C56.7147 68.484 58.082 68.3083 59.4088 68.0211C65.2683 66.7524 69.9667 60.7186 69.8848 54.5707C69.8287 50.4408 69.8394 46.2398 69.8495 42.1763ZM65.9735 48.6626C65.9793 50.7516 65.9842 52.8408 65.9885 54.9301C65.9952 58.7987 62.8024 63.083 59.1557 64.0982C56.9608 64.7404 54.6908 65.0938 52.4036 65.149C49.2024 65.1777 46.0183 65.0369 42.6473 64.8905C41.3205 64.833 39.9714 64.7732 38.5919 64.7235L38.9168 39.3303C39.4895 39.3145 40.0492 39.3016 40.5988 39.2866C42.1775 39.2464 43.6687 39.2084 45.1638 39.1504C45.9654 39.1262 46.7637 39.0425 47.5528 38.9002C48.665 38.6909 49.2823 37.9751 49.2039 36.9861C49.1229 35.9634 48.3899 35.3286 47.2907 35.3286H47.2878C46.3891 35.3286 45.4791 35.3775 44.5978 35.4241C44.2599 35.4419 43.9218 35.46 43.5836 35.4752C42.5189 35.5238 41.4541 35.5739 40.3466 35.6265L39.0738 35.6868C39.0695 35.1504 39.0634 34.6148 39.0556 34.0806C38.9934 29.3725 38.9347 24.9256 40.6754 20.6102C42.1217 17.0248 45.9199 15.28 49.5111 16.5528C50.2452 16.8477 50.9426 17.2256 51.5896 17.6792C52.051 17.9753 52.5283 18.2829 53.0261 18.5351C53.3637 18.7076 54.2268 19.0876 54.9502 18.9088C55.7752 18.7075 56.1339 17.9172 55.8866 16.846C55.7116 16.1096 55.3777 15.4198 54.9083 14.8241C54.4388 14.2284 53.845 13.7412 53.1675 13.396C51.7077 12.5874 50.093 12.0934 48.4284 11.9462C46.764 11.799 45.0869 12.0018 43.5064 12.5415C40.5418 13.5788 38.213 15.8284 36.9458 18.8759C35.8275 21.5916 35.2209 24.4883 35.1558 27.4219C35.1041 29.3843 35.1159 31.3235 35.1287 33.3765C35.1336 34.199 35.1385 35.0331 35.1394 35.8826L34.2184 35.9594C33.3043 36.0362 32.4406 36.1086 31.5899 36.1667C31.2717 36.1885 30.9443 36.1891 30.6267 36.1897C30.4092 36.1897 30.1913 36.1897 29.9744 36.1969C28.4309 36.2434 28.0734 37.0881 28.0453 37.7902C28.0043 38.8111 28.695 39.4508 29.8925 39.5008C30.8618 39.5414 31.8439 39.5163 32.7938 39.4925C33.2115 39.4818 33.6289 39.4709 34.0463 39.4657C34.2699 39.4626 34.4937 39.464 34.7575 39.4646H34.912L35.1605 64.4233H34.6893C34.024 64.4233 33.2956 64.4233 32.567 64.4233C30.7482 64.4253 28.9287 64.4225 27.1087 64.4147C23.0273 64.4029 18.8071 64.3911 14.6568 64.4621C11.5438 64.5044 8.93215 63.6195 7.13355 61.8695C5.2424 60.0295 4.23579 57.2663 4.22277 53.881L4.20715 49.7945C4.1655 39.0362 4.12211 27.9115 4.13686 16.9704C4.10299 14.4163 4.7174 11.8948 5.92331 9.63914C7.01727 7.6413 8.63277 6.39646 10.5951 6.03881C13.6991 5.47301 16.7357 4.95835 19.761 4.87728C29.292 4.62112 41.8391 4.3247 54.3682 4.30228H54.4024C60.2555 4.30228 63.7127 7.04098 64.6779 12.4431C65.3516 16.2117 66.0663 20.6065 66.0175 25.0725C65.9298 32.9372 65.9518 40.932 65.9729 48.6634L65.9735 48.6626Z" fill="white"/>
</g>
<defs>
<clipPath id="clip0_30_940">
<rect width="70" height="69" fill="white"/>
</clipPath>
</defs>
</svg>
