<svg width="60" height="60" viewBox="0 0 60 60" fill="none" xmlns="http://www.w3.org/2000/svg">
<g clip-path="url(#clip0_28_12)">
<path d="M59.871 36.3719C59.8775 33.8512 59.8844 31.2439 59.8695 28.6798C59.8564 26.3418 59.7733 23.9669 59.693 21.67L59.6414 20.1862C59.6226 19.6244 59.6075 19.0621 59.5918 18.5003C59.5423 16.6864 59.4927 14.8107 59.3097 12.9745C59.1218 11.1133 58.7692 9.27234 58.256 7.47341C56.8212 2.43389 52.0373 0.149902 48.174 0.149902H48.115C41.2914 0.191307 34.3547 0.38178 27.6483 0.565747C25.3021 0.630046 22.9562 0.69226 20.6104 0.752424L19.2785 0.784869C16.6371 0.847844 13.9055 0.913026 11.2232 1.08038C6.37654 1.38261 3.15662 3.35847 1.38018 7.12062C0.862806 8.21634 0.55937 9.40069 0.486143 10.6102C0.0346541 19.4669 0.23671 28.469 0.432329 37.1745C0.457618 38.2986 0.482424 39.4215 0.506721 40.5434L0.523821 41.3442C0.575143 43.7368 0.628452 46.2107 0.643824 48.6429C0.675311 53.6512 5.01365 58.3572 9.9277 58.712C11.01 58.77 12.0947 58.7688 13.1769 58.7085C13.8991 58.6815 14.6469 58.6518 15.3753 58.6629C18.6255 58.7076 21.93 58.7713 25.1258 58.8325C26.9464 58.8672 28.767 58.9012 30.5876 58.9342C31.8934 58.957 33.1998 58.9776 34.5069 58.9964C36.7958 59.0309 39.1623 59.0663 41.4892 59.1204C41.8988 59.1434 42.3056 59.2044 42.7041 59.3026C42.9024 59.3442 43.0985 59.3862 43.2961 59.4201C43.3103 59.4226 43.3247 59.4236 43.339 59.4236H45.8759C45.8883 59.4236 45.9007 59.4228 45.9131 59.4211C46.4338 59.344 46.9564 59.2758 47.4788 59.2079C48.6126 59.0591 49.7846 58.9076 50.9218 58.66C55.9442 57.5658 59.9714 52.3624 59.9013 47.0606C59.8532 43.499 59.8623 39.8762 59.871 36.3719ZM56.5487 41.9656C56.5537 43.7671 56.5579 45.5688 56.5616 47.3705C56.5673 50.7067 53.8306 54.4014 50.7049 55.2769C48.8236 55.8308 46.8778 56.1355 44.9174 56.1831C42.1735 56.2079 39.4442 56.0864 36.5548 55.9602C35.4176 55.9106 34.2612 55.859 33.0788 55.8162L33.3572 33.9176C33.8481 33.904 34.3279 33.8928 34.799 33.8799C36.1522 33.8452 37.4303 33.8125 38.7119 33.7624C39.3989 33.7416 40.0832 33.6695 40.7595 33.5467C41.7128 33.3662 42.2419 32.7489 42.1747 31.896C42.1053 31.0141 41.4771 30.4666 40.5349 30.4666H40.5324C39.7621 30.4666 38.9821 30.5088 38.2266 30.549C37.9371 30.5643 37.6472 30.58 37.3574 30.5931C36.4447 30.635 35.5321 30.6781 34.5828 30.7235L33.4919 30.7756C33.4881 30.3129 33.4829 29.851 33.4762 29.3904C33.4229 25.3302 33.3726 21.4953 34.8647 17.7738C36.1043 14.6818 39.3599 13.1771 42.438 14.2748C43.0673 14.5291 43.6651 14.855 44.2197 15.2462C44.6152 15.5015 45.0242 15.7668 45.4509 15.9843C45.7403 16.133 46.4801 16.4607 47.1002 16.3065C47.8073 16.133 48.1147 15.4514 47.9028 14.5276C47.7528 13.8926 47.4666 13.2977 47.0642 12.784C46.6618 12.2703 46.1528 11.8501 45.5722 11.5524C44.3209 10.8551 42.9369 10.4291 41.51 10.3021C40.0834 10.1752 38.6459 10.3501 37.2912 10.8155C34.7501 11.7101 32.754 13.6501 31.6678 16.2782C30.7093 18.6201 30.1894 21.1182 30.1336 23.648C30.0892 25.3404 30.0994 27.0127 30.1103 28.7832C30.1145 29.4925 30.1187 30.2118 30.1195 30.9444L29.33 31.0106C28.5466 31.0768 27.8062 31.1393 27.0771 31.1894C26.8043 31.2082 26.5237 31.2087 26.2514 31.2092C26.065 31.2092 25.8783 31.2092 25.6923 31.2154C24.3693 31.2556 24.0629 31.984 24.0389 32.5895C24.0036 33.4699 24.5957 34.0215 25.6222 34.0647C26.453 34.0996 27.2947 34.078 28.109 34.0575C28.467 34.0483 28.8247 34.0389 29.1825 34.0344C29.3742 34.0317 29.5661 34.0329 29.7922 34.0334H29.9246L30.1376 55.5573H29.7337C29.1634 55.5573 28.5391 55.5573 27.9146 55.5573C26.3556 55.559 24.7961 55.5566 23.236 55.5499C19.7377 55.5397 16.1203 55.5295 12.563 55.5908C9.89472 55.6272 7.65613 54.8641 6.11447 53.3549C4.49348 51.7681 3.63067 49.3852 3.61952 46.4658L3.60613 42.9417C3.57043 33.664 3.53324 24.0703 3.54588 14.6349C3.51685 12.4323 4.04348 10.2579 5.07712 8.31259C6.0148 6.5897 7.39952 5.51617 9.0815 5.20774C11.7421 4.7198 14.3449 4.27598 16.938 4.20606C25.1075 3.98515 35.8621 3.72953 46.6014 3.71019H46.6306C51.6476 3.71019 54.6109 6.07198 55.4382 10.7307C56.0157 13.9806 56.6283 17.7706 56.5864 21.622C56.5113 28.4043 56.5301 35.2989 56.5482 41.9663L56.5487 41.9656Z" fill="#D27849"/>
</g>
<defs>
<clipPath id="clip0_28_12">
<rect width="60" height="59.5041" fill="white"/>
</clipPath>
</defs>
</svg>
