<svg width="35" height="53" viewBox="0 0 35 53" fill="none" xmlns="http://www.w3.org/2000/svg">
<g clip-path="url(#clip0_28_9)">
<path d="M33.6137 8.32394C33.5553 7.75203 33.9129 6.92044 33.1878 6.67717C29.5933 4.73899 25.741 3.32249 21.7812 2.35603C21.4055 2.29825 21.0271 2.34092 20.6585 2.46549C16.6476 8.64954 13.028 15.1655 10.6652 22.1838C8.66454 26.6675 7.98768 31.6016 7.38419 36.434C5.5017 36.8906 3.50677 37.1211 1.80065 38.094C0.808464 38.6837 1.49677 40.011 2.05862 40.667C4.05154 42.7546 6.33025 44.5761 8.85036 46.0049C10.8278 47.1028 12.5526 48.6826 14.7442 49.3641C16.0904 49.7971 17.3095 50.5163 18.5946 51.113C20.4262 48.7549 21.6607 46.0186 23.3721 43.5747C24.335 42.1043 25.5978 40.7324 25.9721 38.9755C26.2604 38.0545 25.4778 37.3907 24.963 36.7608C24.9585 36.5586 24.9419 36.1332 24.9374 35.931C24.3785 35.6483 23.8184 35.3756 23.2657 35.124C25.8058 26.8682 28.5818 18.5012 33.5905 11.3652C34.3402 10.4625 34.0361 9.28479 33.6137 8.32394ZM9.27328 44.1031C7.29832 42.9854 5.54854 41.5234 3.98268 39.8831C5.59889 39.2214 8.07804 39.3849 8.80613 37.4613C8.82579 36.2743 8.51304 35.0855 8.75347 33.9064C9.35005 30.0811 10.6223 26.4121 11.8524 22.7579C13.2495 18.6613 15.3184 14.8314 17.3822 11.0411C18.6158 8.78855 19.9893 6.62432 21.5387 4.58323C24.8029 5.47144 28.0245 6.53569 31.0592 8.03991C27.7217 11.6987 25.1323 15.9766 23.0138 20.4353C21.5965 23.4205 20.5584 26.5951 19.9146 29.8398C19.5657 31.9527 18.0802 33.6491 17.5763 35.712C17.6694 36.3287 18.0144 36.8664 18.2874 37.4152C19.8109 37.2457 21.3404 37.1879 22.8735 37.181C21.679 39.126 20.373 40.9964 18.8924 42.7337C17.5697 44.2593 16.6161 46.0535 15.421 47.6859C13.2199 46.7613 11.3424 45.273 9.27328 44.1031Z" fill="#008080"/>
</g>
<defs>
<clipPath id="clip0_28_9">
<rect width="28.87" height="48.77" fill="white" transform="translate(6.1864 0.375977) rotate(7.23598)"/>
</clipPath>
</defs>
</svg>
