<svg width="35" height="62" viewBox="0 0 35 62" fill="none" xmlns="http://www.w3.org/2000/svg">
<g clip-path="url(#clip0_28_33)">
<path d="M7.32249 4.80912C8.16377 3.98194 8.93312 3.08255 9.68581 2.16943C10.6403 2.18887 11.5241 2.62066 12.4595 2.77829C13.3573 2.93494 14.253 3.10483 15.1203 3.40318C15.1409 5.51282 15.3267 7.6154 15.6742 9.69945C16.3353 13.5379 16.8911 17.3964 17.8026 21.1826C18.7463 25.1729 19.6126 29.1935 21.0068 33.057C21.5521 34.7586 22.033 36.4928 22.6197 38.1879C23.4059 40.2873 24.3356 42.3297 25.1275 44.4273C25.6983 45.951 26.5225 47.3522 27.2598 48.7928C27.8579 48.7022 28.4575 48.6363 29.0585 48.5951C29.939 48.5556 30.8127 48.2537 31.6964 48.465C31.5642 48.739 31.4487 49.0266 31.2942 49.2886C29.8439 51.293 28.9005 53.6129 27.8572 55.8503C27.2494 57.0712 26.9861 58.6642 25.7448 59.401C24.9801 59.474 24.2318 59.2396 23.4879 59.0794C21.1979 58.4909 18.9025 57.8851 16.6643 57.1231C16.1111 56.9983 15.5615 56.3245 15.9738 55.7939C16.6001 54.8128 16.8581 53.6435 17.4267 52.6362C18.0619 52.1247 18.7996 51.7641 19.488 51.3243C18.1868 49.0632 17.0086 46.7387 15.959 44.3493C14.653 41.3717 13.3831 38.3703 12.4264 35.2594C11.1553 31.2129 10.1049 27.0982 9.23523 22.9464C8.48329 19.3753 8.07937 15.7469 7.79184 12.114C7.19442 9.72317 7.08613 7.25021 7.32249 4.80912ZM9.89331 3.10024C9.34765 3.6407 8.81864 4.19489 8.26554 4.73135C9.71861 4.77911 11.1638 4.96157 12.6096 5.10605C12.9624 4.76382 13.3096 4.42335 13.6624 4.08113C12.3834 3.83464 11.0886 3.63714 9.89331 3.10024ZM26.2187 49.2347C25.6342 47.7468 24.8266 46.3594 24.2438 44.8772C23.0715 41.8707 21.7047 38.9371 20.7608 35.8474C19.8413 32.7565 18.769 29.7128 18.0153 26.5768C17.0187 22.4958 16.0147 18.4108 15.4397 14.2497C14.9975 10.9984 14.3324 7.72793 14.5963 4.43443C14.062 4.97139 13.4631 5.44014 12.8242 5.83943C13.0835 8.47978 13.1999 11.1392 13.5681 13.771C14.4955 20.6129 16.2148 27.3294 18.2873 33.905C19.4055 37.5579 20.8219 41.1123 22.3177 44.6231C23.2536 46.7455 24.2157 48.8723 25.5548 50.7753C25.7811 50.2645 25.9999 49.7496 26.2187 49.2347ZM29.1976 50.4665C29.4605 50.1143 29.6176 49.7005 29.8285 49.3203C28.9693 49.4288 28.1049 49.52 27.2489 49.659C27.0295 50.2118 26.7969 50.7624 26.5626 51.3073C27.4431 51.0474 28.3491 50.8299 29.1976 50.4665ZM17.9833 53.1126C17.7663 53.6332 17.5436 54.1555 17.3209 54.6779C18.2933 53.9739 19.2692 53.2813 20.258 52.61C20.1721 52.4729 20.0022 52.2043 19.9146 52.0614C19.2727 52.4112 18.6252 52.7628 17.9833 53.1126ZM10.8421 24.9933C12.0109 29.6508 13.2208 34.3207 14.9836 38.7944C16.4848 42.5428 18.0745 46.2766 20.0843 49.7857C20.7155 50.8436 21.3217 51.9407 22.1942 52.8168C21.8742 53.3252 21.5334 53.8464 21.0249 54.1864C19.9482 54.9542 18.835 55.664 17.7108 56.3583C20.2716 57.2409 22.8853 57.9938 25.542 58.5254C26.5911 56.5067 27.2269 54.2946 28.2649 52.2604C27.3377 52.5096 26.3173 52.838 25.3822 52.441C24.6059 51.9759 24.2174 51.1011 23.7629 50.3538C22.0927 47.2811 20.8254 44.0081 19.5579 40.7541C17.9883 36.7245 16.7319 32.5853 15.6375 28.4086C14.1296 22.8359 12.9234 17.176 12.2717 11.4453C12.0749 9.76808 11.9853 8.07654 11.6927 6.41006C10.5028 6.33123 9.33275 6.07621 8.15124 5.94439C7.93128 7.63728 8.40576 9.31045 8.53109 10.9972C8.98993 15.7044 9.69287 20.399 10.8421 24.9933Z" fill="#333333"/>
</g>
<defs>
<clipPath id="clip0_28_33">
<rect width="59.4209" height="17.4767" fill="white" transform="matrix(0.29568 0.955287 0.955287 -0.29568 0 5.16748)"/>
</clipPath>
</defs>
</svg>
