<svg width="55" height="55" viewBox="0 0 55 55" fill="none" xmlns="http://www.w3.org/2000/svg">
<g clip-path="url(#clip0_28_33)">
<path d="M48.3744 46.0797C48.0158 47.2037 47.7544 48.358 47.5142 49.5167C46.6606 49.9445 45.6775 49.9745 44.7765 50.2711C43.9092 50.551 43.0376 50.8183 42.1312 50.9586C41.1295 49.1019 39.9849 47.3283 38.706 45.6466C36.3317 42.5589 34.0413 39.4044 31.4699 36.4797C28.7749 33.3894 26.1342 30.2362 23.0997 27.4682C21.824 26.2169 20.5901 24.907 19.2809 23.6808C17.6067 22.1899 15.8321 20.8165 14.1536 19.3298C12.9384 18.2479 11.556 17.3926 10.2321 16.4617C9.74521 16.8207 9.24552 17.1585 8.73301 17.4751C7.97246 17.9206 7.34026 18.5949 6.45986 18.8199C6.44912 18.516 6.41723 18.2076 6.43181 17.9038C6.78043 15.4545 6.53363 12.9623 6.41364 10.4965C6.3822 9.13299 5.87255 7.60098 6.62715 6.37048C7.26971 5.94942 8.041 5.80797 8.77383 5.60289C11.0741 5.05603 13.3872 4.52193 15.7226 4.15262C16.2702 4.00513 17.0704 4.34506 16.953 5.00675C16.8563 6.16663 17.1732 7.32143 17.1397 8.4776C16.8162 9.22624 16.3316 9.88916 15.9276 10.5992C18.1329 11.993 20.2589 13.5002 22.3013 15.1248C24.8448 17.1503 27.3674 19.2136 29.6641 21.5198C32.6749 24.5072 35.5223 27.6578 38.2272 30.9254C40.5572 33.7342 42.606 36.7559 44.5539 39.8359C46.197 41.6726 47.4456 43.8099 48.3744 46.0797ZM46.8967 48.79C47.1275 48.0575 47.3371 47.3206 47.5764 46.5881C46.2686 47.2232 44.905 47.7355 43.5586 48.2817C43.4059 48.7489 43.2575 49.212 43.1049 49.6793C44.3513 49.3011 45.5889 48.8722 46.8967 48.79ZM10.9472 15.5854C12.1579 16.6293 13.5192 17.4803 14.7257 18.5199C17.1644 20.6332 19.7411 22.5914 22.0165 24.8848C24.2709 27.1907 26.6384 29.3835 28.7671 31.8066C31.5512 34.9525 34.3438 38.0984 36.7923 41.5117C38.6991 44.182 40.8121 46.7653 42.114 49.802C42.3364 49.0779 42.6477 48.384 43.0268 47.7329C41.5666 45.5179 40.2239 43.2194 38.6712 41.0627C34.6613 35.442 30.0092 30.3015 25.1103 25.4502C22.4181 22.7398 19.5082 20.2555 16.5481 17.8468C14.7308 16.4054 12.8882 14.9723 10.8163 13.913C10.8543 14.4704 10.9007 15.0279 10.9472 15.5854ZM7.73755 15.8843C7.66909 16.3185 7.72307 16.7579 7.7137 17.1925C8.42322 16.696 9.14549 16.2123 9.83793 15.6904C9.77436 15.099 9.72342 14.5034 9.67673 13.9122C9.01895 14.5526 8.31877 15.1673 7.73755 15.8843ZM16.4252 8.31563C16.3745 7.75388 16.3281 7.18794 16.2816 6.622C15.7495 7.69816 15.2089 8.76579 14.6471 9.8206C14.787 9.90193 15.0625 10.0603 15.2067 10.1459C15.6115 9.53722 16.0204 8.92433 16.4252 8.31563ZM35.8514 29.8636C32.6462 26.288 29.3988 22.7205 25.7538 19.5845C22.6782 16.9681 19.5313 14.4059 16.1173 12.2383C15.0658 11.5967 14.0181 10.9086 12.8377 10.5403C12.8838 9.94133 12.9424 9.32137 13.2338 8.78351C13.8284 7.60235 14.4823 6.45543 15.1532 5.3171C12.4763 5.73007 9.81303 6.28242 7.21475 7.05055C7.22778 9.32557 7.69646 11.579 7.72644 13.8626C8.43055 13.2099 9.18023 12.4436 10.1925 12.359C11.0961 12.4085 11.8477 13.0013 12.5981 13.4506C15.5081 15.3904 18.155 17.6952 20.7934 19.9831C24.0605 22.8164 27.1015 25.8926 30.0168 29.0776C33.9487 33.3048 37.6543 37.7497 40.9023 42.5159C41.8583 43.908 42.7261 45.3627 43.7618 46.7006C44.8513 46.2157 46.0053 45.8958 47.112 45.4617C46.5174 43.8614 45.3177 42.6024 44.4205 41.1685C41.8202 37.218 39.0098 33.3924 35.8514 29.8636Z" fill="#333333"/>
</g>
<defs>
<clipPath id="clip0_28_33">
<rect width="59.4209" height="17.4767" fill="white" transform="matrix(-0.706913 -0.7073 -0.7073 0.706913 54.6856 42.3492)"/>
</clipPath>
</defs>
</svg>
