<svg width="114" height="115" viewBox="0 0 114 115" fill="none" xmlns="http://www.w3.org/2000/svg">
<g clip-path="url(#clip0_23_99)">
<path d="M104.067 60.7322C101.937 61.9809 99.5586 62.9884 97.8349 64.7879C97.0479 65.7872 98.2721 67.4226 99.4438 66.8424C101.157 65.934 102.79 64.8708 104.539 63.9984C105.532 63.4106 107.042 62.7414 106.786 61.3158C106.426 60.0991 104.947 60.1259 104.067 60.7322Z" fill="#FFD600"/>
<path d="M94.0155 69.4243C93.0884 70.4797 92.151 71.6137 91.7379 72.9662C91.3328 74.2124 93.2144 75.3766 94.0283 74.2304C95.0905 72.9192 96.1526 71.608 97.2253 70.2903C97.8307 69.5897 97.4083 68.3669 96.4992 68.2079C95.4939 67.9621 94.653 68.7767 94.0155 69.4243Z" fill="#FFD600"/>
<path d="M86.5237 81.1167C85.6393 82.2186 84.7315 83.3057 83.8172 84.3823C83.4449 84.869 82.9367 85.3948 83.0524 86.0641C83.1418 87.0249 84.472 87.639 85.2095 86.9887C86.8711 85.5893 88.3081 83.8913 89.549 82.1092C90.1752 81.3233 89.8586 79.9639 88.7919 79.7844C87.7909 79.5216 87.0865 80.4418 86.5237 81.1167Z" fill="#FFD600"/>
<path d="M79.777 88.1523C78.2655 88.8661 77.1246 90.1671 75.613 90.8809C74.6477 91.4664 73.4447 91.7321 72.7041 92.6163C72.1598 93.6569 73.2955 95.027 74.4339 94.583C76.9683 93.7852 79.4835 92.4772 81.2082 90.4161C81.9675 89.4191 80.9883 87.8526 79.777 88.1523Z" fill="#FFD600"/>
<path d="M66.9999 95.3657C64.6638 95.7967 62.463 97.0011 60.0286 96.8392C59.0246 96.8827 57.4507 96.4889 57.1055 97.7858C56.7483 98.7999 57.7371 99.6645 58.6861 99.6979C61.7195 100.105 64.8502 99.4535 67.6039 98.2038C69.0438 97.6349 68.5565 95.2046 66.9999 95.3657Z" fill="#FFD600"/>
<path d="M13.626 42.801C13.8929 40.6093 14.5728 38.5004 15.1569 36.3772C14.9409 34.6813 12.5231 34.9298 12.1724 36.433C11.1466 38.7371 10.745 41.2571 10.3284 43.7282C10.0375 44.8037 10.9244 46.1941 12.1395 45.8051C13.3994 45.4179 13.3733 43.8678 13.626 42.801Z" fill="#FFD600"/>
<path d="M45.2154 96.3414C44.5053 95.9601 43.5492 96.25 43.274 97.0404C42.8577 98.1484 43.97 99.0252 44.899 99.3607C46.7147 100.057 48.719 100.611 50.6639 100.228C52.0793 99.9064 51.9119 97.6445 50.5241 97.4858C48.7274 97.2271 46.8992 97.06 45.2154 96.3414Z" fill="#FFD600"/>
<path d="M10.9832 48.4204C10.0118 50.0246 10.7418 52.0177 11.1726 53.6849C11.4326 54.7596 12.4141 56.3537 13.7128 55.624C14.8826 55.0884 14.3188 53.6325 14.0487 52.7088C13.5106 51.2953 13.6038 49.7743 13.4229 48.3036C12.8449 47.4942 11.4619 47.4631 10.9832 48.4204Z" fill="#FFD600"/>
<path d="M33.026 88.3508C32.4841 87.505 31.0754 87.4315 30.6671 88.4331C30.0364 89.6421 31.2625 90.7544 32.034 91.5479C33.5163 92.8673 35.103 94.2392 37.0479 94.814C38.4546 94.9323 39.1371 92.9234 37.9361 92.1874C36.2648 90.9391 34.4328 89.9044 33.026 88.3508Z" fill="#FFD600"/>
<path d="M19.2677 67.6532C18.3708 65.9353 17.4633 64.2238 16.8297 62.3897C16.5162 61.2748 14.7022 61.4182 14.3942 62.4894C13.9095 63.9869 14.8224 65.4921 15.4113 66.8458C16.0051 67.8487 16.4683 69.1626 17.596 69.6821C18.7189 70.074 19.9488 68.7045 19.2677 67.6532Z" fill="#FFD600"/>
<path d="M28.2176 82.4805C26.5276 80.3881 24.8123 78.3257 23.5592 75.9248C23.0076 74.8239 21.5375 75.2951 21.1505 76.2838C21.0402 77.3222 21.5571 78.2701 21.8275 79.2661L23.274 81.6511C24.3465 82.6536 25.2392 83.91 26.5106 84.6903C27.7668 85.4218 29.3028 83.5042 28.2176 82.4805Z" fill="#FFD600"/>
</g>
<defs>
<clipPath id="clip0_23_99">
<rect width="82" height="83" fill="white" transform="translate(0 43.2795) rotate(-31.2386)"/>
</clipPath>
</defs>
</svg>
