<svg width="29" height="50" viewBox="0 0 29 50" fill="none" xmlns="http://www.w3.org/2000/svg">
<g clip-path="url(#clip0_30_928)">
<path d="M1.0388 20.5575C0.448803 22.1275 1.2788 23.7375 2.1888 24.9875C2.8488 25.8775 3.2388 27.0975 4.2888 27.5975C5.6388 27.3175 6.9088 26.7375 8.2588 26.4475C9.0188 26.2975 9.7088 25.9475 10.3288 25.4875C8.7588 30.6175 7.7388 35.9075 6.3788 41.0975C6.1288 42.4775 5.3888 44.1275 6.4688 45.3375C7.7588 46.6375 9.1388 47.8375 10.4388 49.1175C14.8788 40.7375 22.1788 34.4475 27.6488 26.7975C29.2388 24.9275 28.6088 22.0775 27.3188 20.2175C26.3988 18.4375 24.2688 18.0775 22.5588 17.4475C23.4688 15.2875 23.8888 12.9575 24.8988 10.8375C25.5288 9.24751 26.4288 7.73751 26.7388 6.03751C26.4588 4.72751 25.7988 3.52751 25.1188 2.37751C24.4788 1.15751 23.0488 0.697513 21.7788 0.507513C19.0688 0.187513 16.3188 0.567513 13.6088 0.227513C11.6788 0.0975135 9.6288 -0.302487 7.7788 0.457513C6.4688 4.08751 5.5988 7.88751 4.5688 11.6075C3.5088 14.6375 2.0688 17.5175 1.0388 20.5575ZM4.3788 25.8175C3.9988 25.3075 3.6288 24.7975 3.2588 24.2875C5.8788 23.7075 8.5288 23.2275 11.1588 22.6575C10.9488 23.2775 10.7488 23.8975 10.5388 24.5175C8.3988 24.3275 6.3588 25.1075 4.3788 25.8175ZM9.1188 2.49751C11.0988 2.61751 13.0688 2.93751 15.0488 3.08751C17.6088 3.20751 20.1788 2.99751 22.7388 3.23751C21.3488 6.37751 19.6488 9.36751 18.4188 12.5675C17.9188 14.0375 16.5288 15.6675 17.5088 17.2075C17.9988 18.1875 19.1188 18.5175 20.0888 18.8475C21.7288 19.3475 23.3188 19.9975 24.9088 20.6275C19.2288 27.6175 13.5688 34.6175 8.2588 41.8975C9.4288 36.3575 10.4088 30.7675 11.8288 25.2875C12.1488 23.7575 13.0688 22.3075 12.8688 20.6975C9.4588 20.3675 6.0788 21.5175 2.6988 21.9075C3.4188 18.5375 4.8788 15.3875 5.9288 12.1175C6.9488 8.89751 8.0488 5.70751 9.1188 2.49751Z" fill="#FFD600"/>
</g>
<defs>
<clipPath id="clip0_30_928">
<rect width="27.75" height="49.11" fill="white" transform="translate(0.838806 0.00756836)"/>
</clipPath>
</defs>
</svg>
