<svg width="312" height="163" viewBox="0 0 312 163" fill="none" xmlns="http://www.w3.org/2000/svg">
<path d="M222.381 91.1294C238.783 82.6921 255.146 74.1782 271.598 65.8383C287.214 57.921 304.75 66.7009 307.423 83.6385C308.97 93.4367 304.152 103.721 295.152 108.422C265.65 123.834 236.108 139.178 206.435 154.259C197.251 158.927 188.076 157.566 180.209 150.961C172.217 144.255 170.01 135.413 172.423 125.352C174.998 117.727 180.315 112.796 187.417 109.252C199.161 103.393 210.735 97.1881 222.381 91.1294Z" fill="#FABC05"/>
<path d="M234.42 84.9992C218.911 75.0138 203.358 65.099 187.909 55.0224C173.244 45.4565 172.081 25.8807 185.412 15.0949C193.123 8.85768 204.439 7.88706 213.01 13.3301C241.11 31.1746 269.168 49.0873 297.065 67.2434C305.699 72.8629 309.106 81.4906 307.322 91.6065C305.509 101.879 298.956 108.212 289.038 111.154C281.146 112.736 274.218 110.596 267.597 106.217C256.65 98.9761 245.49 92.0545 234.42 84.9992Z" fill="#109D58"/>
<path d="M89.4669 71.7336C78.9716 77.0705 68.4708 82.3965 57.9852 87.7516C51.8512 90.8843 45.7783 94.1363 39.6161 97.2106C27.2003 103.406 13.0041 98.781 6.69242 86.5643C0.668711 74.9066 5.11389 60.3597 17.0847 54.0949C46.3537 38.7793 75.6906 23.5881 105.122 8.58666C114.149 3.9854 123.244 5.03755 131.1 11.4008C139.391 18.1171 141.79 27.1391 139.38 37.4745C138.067 39.9411 137.216 42.8653 135.334 44.7694C132.272 47.8671 128.82 50.8089 125.03 52.9112C113.303 59.4143 101.339 65.4916 89.4669 71.7336Z" fill="#E94436"/>
<path d="M77.4396 77.7082C87.3101 84.1279 97.1729 90.5603 107.054 96.9638C112.832 100.71 118.685 104.343 124.429 108.141C136.002 115.797 139.096 130.403 131.671 141.977C124.586 153.023 109.767 156.448 98.3554 149.212C70.4569 131.522 42.6329 113.713 14.9253 95.7245C6.42771 90.2076 2.7914 81.8047 4.37449 71.8198C6.04507 61.2802 12.6587 54.6926 22.8143 51.6117C25.6064 51.5162 28.5644 50.7901 31.1554 51.4687C35.3685 52.5719 39.6432 54.0904 43.3583 56.3213C54.854 63.2251 66.0985 70.5477 77.4396 77.7082Z" fill="#4385F3"/>
</svg>
