<svg width="203" height="211" viewBox="0 0 203 211" fill="none" xmlns="http://www.w3.org/2000/svg">
<path d="M199.572 73.8056C197.256 74.0987 195.213 75.3257 193.023 76.0637C190.357 77.1018 187.47 77.475 184.857 78.6148C183.002 79.5517 183.471 82.7337 185.512 82.9966C187.879 83.14 190.179 82.2707 192.46 81.7223C195.41 80.8115 198.507 80.0248 201.05 78.207C202.785 76.9157 201.738 73.7233 199.572 73.8056Z" fill="#008080"/>
<path d="M174.541 84.1046C172.469 83.8443 170.674 85.3384 168.96 86.3088C166.43 88.1102 163.503 89.6878 161.806 92.3896C160.694 94.4324 163.5 97.0305 165.305 95.2922C168.448 92.799 171.903 90.7953 175.218 88.5606C177.165 87.646 176.729 84.294 174.541 84.1046Z" fill="#008080"/>
<path d="M137.98 122.057C136.37 121.878 135.228 123.361 134.236 124.436C131.602 127.584 128.968 130.732 126.288 133.869C125.238 135.177 123.656 136.85 124.591 138.654C125.504 140.186 127.672 140.134 128.703 138.782C132.408 134.598 136.437 130.659 139.672 126.105C140.812 124.592 139.838 122.306 137.98 122.057Z" fill="#008080"/>
<path d="M106.249 152.611C106.487 154.445 108.746 154.948 110.19 154.198C113.568 152.749 116.676 150.593 119.38 148.123C121.017 146.946 120.696 143.888 118.536 143.666C115.42 143.649 113.348 146.794 110.706 148.134C109.14 149.456 105.827 150.003 106.249 152.611Z" fill="#008080"/>
<path d="M151.498 101.771C149.234 104.218 147.097 106.745 145.044 109.371C144.14 110.605 143.017 112.132 143.65 113.765C144.579 115.31 147.002 115.586 147.913 113.88C150.782 110.255 154.124 107.03 156.979 103.421C158.246 101.988 157.022 99.6018 155.222 99.5154C153.652 99.4546 152.545 100.798 151.498 101.771Z" fill="#008080"/>
<path d="M94.1428 156.053C91.613 156.334 89.253 157.406 86.7183 157.627C84.8082 157.87 82.8968 157.717 81.0128 158.094C78.7256 158.749 79.1886 162.433 81.4718 162.675C86.0014 163.269 90.8711 162.799 95.0413 160.809C97.4322 159.932 96.7029 155.769 94.1428 156.053Z" fill="#008080"/>
<path d="M64.4272 159.296C60.8916 158.783 57.5923 157.429 54.2586 156.215C51.8919 155.311 50.0169 159.017 52.1622 160.38C55.4805 162.538 59.3532 163.843 63.2606 164.445C64.9101 164.742 67.3155 164.046 67.3039 162.01C67.5164 160.304 65.8371 159.447 64.4272 159.296Z" fill="#008080"/>
<path d="M31.4326 150.086C28.4621 148.475 26.011 145.952 22.8975 144.643C20.8194 143.927 18.7647 146.721 20.2958 148.381C23.7726 151.377 27.4924 154.184 31.5561 156.354C32.936 157.267 35.324 156.922 35.6125 155.027C36.1191 152.444 33.141 151.305 31.4326 150.086Z" fill="#008080"/>
<path d="M10.3421 143.624C12.4965 144.911 14.699 141.876 13.3458 139.972C11.0973 136.945 7.60343 135.061 4.49218 133.021C2.48447 131.858 0.164867 134.569 1.44136 136.464C4.10442 139.166 7.30444 141.365 10.3421 143.624Z" fill="#008080"/>
</svg>
