<svg width="70" height="69" viewBox="0 0 70 69" fill="none" xmlns="http://www.w3.org/2000/svg">
<g clip-path="url(#clip0_30_942)">
<path d="M68.5424 11.3327C67.5219 3.0042 60.4703 -0.338923 53.9367 0.0457076C50.0595 0.271811 46.2195 0.392191 41.6469 0.503675C37.504 0.604609 33.2555 0.691292 29.5073 0.767705C24.1289 0.877763 18.5673 0.991776 13.0448 1.14346C6.70461 1.31796 1.59233 5.37695 0.609173 11.0144C0.214419 13.2772 0.202928 15.5604 0.227313 18.096C0.298749 25.5007 0.407765 32.9828 0.5142 40.2187L0.525684 41.0022C0.567761 43.913 0.609041 46.8242 0.649586 49.7353C0.656472 50.2257 0.673685 50.7172 0.691472 51.2088L0.692941 51.2481C0.765078 52.4662 0.752917 53.6877 0.656521 54.904C0.315414 58.1524 1.56652 61.6158 4.00362 64.1683C6.71267 67.0055 10.552 68.448 14.8174 68.2318C19.4718 67.9923 24.2195 68.0379 28.8108 68.0819L29.1433 68.0853C34.5918 68.1369 40.1327 68.2746 45.4983 68.4086L48.2036 68.4759C48.6592 68.503 49.1113 68.5708 49.5543 68.6795C49.7867 68.7285 50.019 68.777 50.2506 68.8166C50.2838 68.8223 50.3177 68.8255 50.3512 68.8255H53.2869C53.3159 68.8252 53.3446 68.8232 53.373 68.8192C53.9597 68.7337 54.5492 68.6561 55.1368 68.5797L55.181 68.574C56.4983 68.4029 57.8605 68.2267 59.1882 67.9402C64.9156 66.7036 69.7679 60.7998 69.784 55.0486C69.788 53.6936 69.7929 52.3382 69.7983 50.9827L69.8009 50.3021C69.8296 42.8729 69.8612 35.1908 69.7005 27.6264C69.5832 22.1255 69.1936 16.6423 68.5424 11.3327ZM65.3579 54.648C65.3754 59.0899 61.4769 63.2487 56.4826 64.1158C52.6558 64.7801 48.7441 64.5543 44.9607 64.3368C43.5564 64.2558 42.1042 64.172 40.6611 64.134C39.023 64.0913 37.3545 64.0072 35.7319 63.9253L35.5884 63.9179C34.8901 63.8828 34.1913 63.8478 33.4982 63.8164H33.466C31.7006 63.8164 29.9351 63.8144 28.1693 63.8098C26.1201 63.8064 24.0382 63.803 21.9477 63.803C19.1979 63.803 16.9372 63.8087 14.8315 63.8213H14.7388C11.6502 63.8213 9.10243 62.9109 7.37079 61.1876C5.5703 59.3958 4.63075 56.7197 4.65456 53.4476C4.71022 45.7541 4.67662 37.9651 4.64392 30.4321C4.62556 26.1314 4.60665 21.6844 4.60435 17.2903C4.56124 14.7597 5.13713 12.2565 6.28258 9.99601C7.58159 7.51315 9.90198 6.19559 13.5844 5.84974C18.7518 5.36503 22.9214 5.10097 26.7063 5.01914C37.6331 4.78135 46.0422 4.69724 53.9715 4.74599C59.7554 4.78163 63.0958 7.48575 64.1846 13.0146C65.3895 19.1419 65.3723 25.4398 65.3542 31.5335L65.3525 32.0502C65.3281 40.6923 65.3295 47.8723 65.3574 54.648H65.3579Z" fill="white"/>
<path d="M36.4847 18.1908C32.8596 18.1235 29.6336 18.8557 26.8918 20.3577C23.5897 22.1654 20.0725 24.6061 19.0199 28.9949C17.6664 34.6373 18.2821 40.066 20.8497 45.1304C22.688 48.7572 25.5698 50.9888 29.1834 51.5836C31.3457 51.9588 33.5352 52.1558 35.7302 52.173C36.4187 52.173 37.1018 52.149 37.7576 52.102C42.6229 51.7533 46.4875 49.8147 49.2442 46.3396C53.5127 40.9585 54.2549 34.7975 51.4509 28.0278C48.7395 21.4811 43.5529 18.0781 36.4847 18.1908ZM48.3502 35.4898C48.3712 42.846 43.4083 47.7587 35.7061 48.0027C33.7466 48.0358 31.7892 47.8659 29.8651 47.4961C27.4024 47.0567 25.533 45.5837 24.3078 43.1183C22.2643 39.0042 21.7686 34.7519 22.8338 30.4793C23.6546 27.1873 26.0733 24.7728 30.2277 23.0977C31.7714 22.4808 33.4213 22.1675 35.0852 22.1751C36.5265 22.1819 37.9598 22.3916 39.342 22.7981C44.7966 24.3757 48.3324 29.3573 48.3502 35.4898Z" fill="white"/>
<path d="M55.1566 11.0273H55.0742C54.2678 11.0474 53.4998 11.3742 52.9286 11.9403C52.3577 12.5065 52.0266 13.2689 52.0045 14.0703C51.9845 14.4609 52.0444 14.8514 52.1807 15.2183C52.317 15.5852 52.5264 15.921 52.7966 16.2052C53.0786 16.4906 53.4163 16.7161 53.7887 16.868C54.1614 17.02 54.5607 17.0952 54.9635 17.0891C55.7576 17.0636 56.5115 16.7357 57.0689 16.1731C57.6266 15.6105 57.9451 14.8564 57.9589 14.0668C57.9847 12.4912 56.675 11.0713 55.1566 11.0273Z" fill="white"/>
</g>
<defs>
<clipPath id="clip0_30_942">
<rect width="70" height="69" fill="white"/>
</clipPath>
</defs>
</svg>
