<svg width="60" height="60" viewBox="0 0 60 60" fill="none" xmlns="http://www.w3.org/2000/svg">
<g clip-path="url(#clip0_28_23)">
<path d="M58.7506 9.77374C57.8759 2.59096 51.8317 -0.292281 46.2315 0.0394393C42.9081 0.234439 39.6167 0.33826 35.6973 0.434407C32.1462 0.521457 28.5047 0.596216 25.292 0.662117C20.6819 0.757035 15.9148 0.855364 11.1812 0.986184C5.74681 1.13668 1.36486 4.6373 0.52215 9.49927C0.183789 11.4507 0.17394 13.4199 0.194842 15.6067C0.256072 21.9928 0.349515 28.4456 0.440744 34.6861L0.450588 35.3619C0.486654 37.8723 0.522037 40.3829 0.55679 42.8936C0.562692 43.3165 0.577446 43.7405 0.592692 44.1644L0.593951 44.1983C0.655783 45.2488 0.645359 46.3023 0.562734 47.3513C0.270357 50.1528 1.34273 53.1398 3.43167 55.3411C5.75372 57.7881 9.04457 59.0321 12.7006 58.8457C16.6901 58.6392 20.7596 58.6785 24.6949 58.7164L24.9799 58.7193C29.6501 58.7638 34.3994 58.8826 38.9985 58.9982L41.3174 59.0562C41.7079 59.0796 42.0954 59.1381 42.4751 59.2318C42.6743 59.2741 42.8735 59.3159 43.0719 59.3501C43.1004 59.355 43.1294 59.3577 43.1582 59.3577H45.6745C45.6994 59.3574 45.724 59.3557 45.7483 59.3523C46.2512 59.2785 46.7565 59.2116 47.2601 59.1457L47.298 59.1408C48.4271 58.9933 49.5947 58.8413 50.7327 58.5942C55.6419 57.5277 59.8011 52.436 59.8149 47.476C59.8183 46.3074 59.8225 45.1384 59.8272 43.9694L59.8294 43.3824C59.854 36.9752 59.881 30.3499 59.7433 23.826C59.6427 19.0819 59.3088 14.3529 58.7506 9.77374ZM56.0211 47.1305C56.0361 50.9614 52.6945 54.5481 48.4136 55.2959C45.1335 55.8688 41.7807 55.6741 38.5377 55.4865C37.334 55.4166 36.0893 55.3443 34.8524 55.3116C33.4483 55.2747 32.0181 55.2022 30.6273 55.1316L30.5044 55.1252C29.9058 55.095 29.3068 55.0647 28.7127 55.0377H28.6852C27.1719 55.0377 25.6586 55.036 24.1451 55.032C22.3887 55.0291 20.6042 55.0261 18.8123 55.0261C16.4553 55.0261 14.5176 55.031 12.7127 55.0419H12.6333C9.98591 55.0419 7.80208 54.2567 6.31782 52.7705C4.77454 51.2252 3.96921 48.9172 3.98962 46.0952C4.03733 39.4601 4.00853 32.7425 3.9805 26.2458C3.96476 22.5367 3.94856 18.7014 3.94659 14.9119C3.90963 12.7294 4.40325 10.5705 5.38507 8.62095C6.49851 6.47964 8.48741 5.34333 11.6438 5.04505C16.073 4.62702 19.6469 4.39929 22.8911 4.32872C32.2569 4.12363 39.4648 4.05109 46.2612 4.09314C51.2189 4.12388 54.0821 6.45601 55.0153 11.2243C56.0481 16.5087 56.0334 21.9402 56.0179 27.1957L56.0164 27.6413C55.9955 35.0946 55.9967 41.2869 56.0206 47.1305H56.0211Z" fill="#D27849"/>
<path d="M31.2726 15.6882C28.1654 15.6302 25.4002 16.2617 23.0501 17.5571C20.2198 19.1161 17.205 21.221 16.3028 25.0062C15.1426 29.8723 15.6703 34.5543 17.8712 38.922C19.4469 42.0498 21.917 43.9745 25.0144 44.4875C26.8677 44.8111 28.7445 44.981 30.6258 44.9957C31.216 44.9957 31.8015 44.9751 32.3636 44.9345C36.5339 44.6338 39.8464 42.9619 42.2093 39.9648C45.8681 35.3239 46.5042 30.0105 44.1008 24.1721C41.7768 18.5259 37.3311 15.5911 31.2726 15.6882ZM41.4431 30.6076C41.461 36.9518 37.2072 41.1887 30.6052 41.3992C28.9257 41.4277 27.2479 41.2812 25.5986 40.9622C23.4878 40.5833 21.8855 39.313 20.8352 37.1867C19.0837 33.6385 18.6588 29.9712 19.5718 26.2863C20.2753 23.4472 22.3485 21.3649 25.9095 19.9202C27.2327 19.3881 28.6468 19.1179 30.0731 19.1245C31.3085 19.1303 32.537 19.3112 33.7217 19.6618C38.3971 21.0224 41.4278 25.3187 41.4431 30.6076Z" fill="#D27849"/>
<path d="M47.2771 9.51038H47.2065C46.5153 9.52769 45.857 9.80951 45.3674 10.2978C44.878 10.786 44.5943 11.4436 44.5753 12.1347C44.5581 12.4716 44.6095 12.8084 44.7263 13.1248C44.8431 13.4413 45.0226 13.7308 45.2543 13.976C45.496 14.2221 45.7854 14.4166 46.1046 14.5476C46.424 14.6787 46.7663 14.7435 47.1116 14.7383C47.7922 14.7163 48.4384 14.4334 48.9162 13.9482C49.3943 13.463 49.6672 12.8127 49.679 12.1317C49.7012 10.7729 48.5786 9.54824 47.2771 9.51038Z" fill="#D27849"/>
</g>
<defs>
<clipPath id="clip0_28_23">
<rect width="60" height="59.5082" fill="white"/>
</clipPath>
</defs>
</svg>
