<svg width="233" height="236" viewBox="0 0 233 236" fill="none" xmlns="http://www.w3.org/2000/svg">
<g clip-path="url(#clip0_23_77)">
<path d="M229.572 96.8056C227.256 97.0987 225.213 98.3257 223.023 99.0637C220.357 100.102 217.47 100.475 214.857 101.615C213.002 102.552 213.471 105.734 215.512 105.997C217.879 106.14 220.179 105.271 222.46 104.722C225.41 103.812 228.507 103.025 231.05 101.207C232.785 99.9157 231.738 96.7233 229.572 96.8056Z" fill="#008080"/>
<path d="M204.541 107.105C202.469 106.844 200.674 108.338 198.96 109.309C196.43 111.11 193.503 112.688 191.806 115.39C190.694 117.432 193.5 120.031 195.305 118.292C198.448 115.799 201.903 113.795 205.218 111.561C207.165 110.646 206.729 107.294 204.541 107.105Z" fill="#008080"/>
<path d="M167.98 145.057C166.37 144.878 165.228 146.361 164.236 147.436C161.602 150.584 158.968 153.732 156.288 156.869C155.238 158.177 153.656 159.85 154.591 161.654C155.504 163.186 157.672 163.134 158.703 161.782C162.408 157.598 166.437 153.659 169.672 149.105C170.812 147.592 169.838 145.306 167.98 145.057Z" fill="#008080"/>
<path d="M136.249 175.611C136.487 177.445 138.746 177.948 140.19 177.198C143.568 175.749 146.676 173.593 149.38 171.123C151.017 169.946 150.696 166.888 148.536 166.666C145.42 166.649 143.348 169.794 140.706 171.134C139.14 172.456 135.827 173.003 136.249 175.611Z" fill="#008080"/>
<path d="M181.498 124.771C179.234 127.218 177.097 129.745 175.044 132.371C174.14 133.605 173.017 135.132 173.65 136.765C174.579 138.31 177.002 138.586 177.913 136.88C180.782 133.255 184.124 130.03 186.979 126.421C188.246 124.988 187.022 122.602 185.222 122.515C183.652 122.455 182.545 123.798 181.498 124.771Z" fill="#008080"/>
<path d="M124.143 179.053C121.613 179.334 119.253 180.406 116.718 180.627C114.808 180.87 112.897 180.717 111.013 181.094C108.726 181.749 109.189 185.433 111.472 185.675C116.001 186.269 120.871 185.799 125.041 183.809C127.432 182.932 126.703 178.769 124.143 179.053Z" fill="#008080"/>
<path d="M94.4272 182.296C90.8916 181.783 87.5923 180.429 84.2586 179.215C81.8919 178.311 80.0169 182.017 82.1622 183.38C85.4805 185.538 89.3532 186.843 93.2606 187.445C94.9101 187.742 97.3155 187.046 97.3039 185.01C97.5164 183.304 95.8371 182.447 94.4272 182.296Z" fill="#008080"/>
<path d="M61.4326 173.086C58.4621 171.475 56.011 168.952 52.8975 167.643C50.8194 166.927 48.7647 169.721 50.2958 171.381C53.7726 174.377 57.4924 177.184 61.5561 179.354C62.936 180.267 65.324 179.922 65.6125 178.027C66.1191 175.444 63.141 174.305 61.4326 173.086Z" fill="#008080"/>
<path d="M40.3421 166.624C42.4965 167.911 44.699 164.876 43.3458 162.972C41.0973 159.945 37.6034 158.061 34.4922 156.021C32.4845 154.858 30.1649 157.569 31.4414 159.464C34.1044 162.166 37.3044 164.365 40.3421 166.624Z" fill="#008080"/>
</g>
<defs>
<clipPath id="clip0_23_77">
<rect width="152.83" height="179.016" fill="white" transform="translate(116.293 0.325439) rotate(40.2142)"/>
</clipPath>
</defs>
</svg>
