<svg width="60" height="60" viewBox="0 0 60 60" fill="none" xmlns="http://www.w3.org/2000/svg">
<g clip-path="url(#clip0_28_27)">
<path d="M41.8174 20.1766C38.9192 17.3534 35.1921 17.0487 32.0905 19.3818C30.8713 20.2988 29.6989 21.5861 28.5063 23.3162C26.9876 25.5215 26.5956 28.2097 26.2501 30.5809C25.6383 34.776 26.107 38.9415 26.5599 42.9684C26.6271 43.5635 26.7813 44.9322 28.1182 44.9319C28.161 44.9319 28.2053 44.9307 28.2508 44.9278C29.5786 44.8427 29.5835 43.7069 29.5867 42.9549C29.5867 42.8826 29.5867 42.812 29.5887 42.7434C29.6054 41.8417 29.5835 40.926 29.5622 40.0407C29.5319 38.7758 29.5002 37.4678 29.5833 36.1941C29.7375 33.5221 30.051 30.8617 30.5222 28.2269C30.9318 26.0231 32.1596 24.0554 33.9594 22.7188C35.8722 21.2638 37.5798 21.4356 39.1816 23.2428C40.3941 24.5996 41.2026 26.2687 41.5157 28.0614C41.8708 30.1444 42.1154 32.2852 42.3517 34.3562C42.444 35.1633 42.5362 35.9708 42.6348 36.7766L42.5925 36.7823C42.5347 36.7901 42.4813 36.8174 42.4415 36.86C42.4017 36.9025 42.3776 36.9574 42.3736 37.0154C42.3485 37.3808 42.3227 37.7462 42.2962 38.1116C42.233 38.9912 42.1676 39.901 42.1216 40.7978L42.1159 40.9065C42.0621 41.5565 42.0687 42.2098 42.1351 42.8585C42.2898 44.0061 43.0973 44.8311 44.1446 44.9113C45.1528 44.9883 46.0899 44.3054 46.4758 43.2126C46.5633 42.9537 46.6176 42.6847 46.6378 42.4119C47.0222 38.0415 47.2413 32.2896 45.5091 26.5557C44.708 23.9033 43.5001 21.816 41.8174 20.1766Z" fill="#D27849"/>
<path d="M17.8032 42.4222C17.8192 43.2064 18.0145 43.9765 18.3742 44.6739C18.5999 45.1099 19.3501 45.3364 19.8137 45.3364C19.8287 45.3364 19.8432 45.3364 19.8577 45.3364C20.2929 45.3223 20.8308 44.7986 20.9493 44.3955C21.1314 43.7277 21.2053 43.0352 21.1681 42.344C21.0206 38.2989 20.8506 34.1869 20.6869 30.2105L20.3606 22.2575C20.336 21.6518 20.2895 20.524 18.9181 20.4109C18.8731 20.4078 18.8279 20.4162 18.787 20.4355C17.7336 20.9463 17.7668 21.907 17.7936 22.6791C17.7983 22.8112 17.8029 22.9425 17.8024 23.0706C17.7833 28.3723 17.7651 35.3633 17.8032 42.4222Z" fill="#D27849"/>
<path d="M18.9928 12.5752C18.8263 12.4471 18.6542 12.3148 18.503 12.1771C18.4679 12.1448 18.4244 12.1233 18.3775 12.1149C18.3306 12.1065 18.2822 12.1116 18.2381 12.1297C16.5724 12.8037 16.4662 13.9635 16.6703 14.8178C16.7706 15.1594 16.9425 15.4758 17.1744 15.746C17.4062 16.0162 17.6929 16.2341 18.0153 16.3852C18.1112 16.42 18.2128 16.4368 18.3149 16.4344C18.8438 16.4344 19.5574 16.067 19.7891 15.692C19.9654 15.3845 20.0746 15.0431 20.1096 14.6904C20.1445 14.3376 20.1045 13.9815 19.9919 13.6454C19.8107 13.205 19.3949 12.8853 18.9928 12.5752Z" fill="#D27849"/>
<path d="M58.7115 9.97535C57.8369 2.79257 51.7924 -0.0906212 46.1924 0.2411C42.8691 0.436101 39.5777 0.540105 35.6583 0.636007C32.1072 0.723056 28.4656 0.797876 25.2529 0.863778C20.6428 0.958696 15.8755 1.05702 11.1421 1.18784C5.70772 1.33834 1.32577 4.83901 0.483063 9.70122C0.144702 11.6525 0.134853 13.6216 0.155754 15.8084C0.216984 22.1947 0.310428 28.6475 0.401657 34.8877L0.411741 35.5635C0.44797 38.0739 0.483353 40.5845 0.517944 43.0952C0.523846 43.5181 0.538597 43.9421 0.553843 44.366L0.555105 44.3999C0.616937 45.4504 0.606513 46.5039 0.523887 47.5529C0.231509 50.3544 1.30388 53.3414 3.39283 55.5427C5.71488 57.9897 9.00573 59.2337 12.6618 59.0473C16.6513 58.8408 20.7208 58.8803 24.6561 58.9182L24.9411 58.9209C29.6113 58.9657 34.3606 59.0844 38.9597 59.2L41.2786 59.2578C41.6691 59.2812 42.0566 59.3397 42.4363 59.4334C42.6352 59.4757 42.8347 59.5177 43.0331 59.5519C43.0616 59.5568 43.0904 59.5593 43.1194 59.5593H45.6357C45.6603 59.5593 45.6852 59.5573 45.7095 59.5539C46.2124 59.4801 46.7177 59.4135 47.2213 59.3476L47.2592 59.3426C48.3881 59.1951 49.5559 59.0429 50.6939 58.7958C55.6031 57.7293 59.7623 52.6379 59.7761 47.678C59.7795 46.509 59.7837 45.34 59.7883 44.171L59.7906 43.5843C59.8152 37.1771 59.8422 30.5515 59.7045 24.0276C59.6037 19.2825 59.2697 14.5545 58.7115 9.97535ZM55.982 47.3321C55.9973 51.163 52.6557 54.7497 48.3748 55.4975C45.0947 56.0704 41.7419 55.8757 38.4989 55.688C37.2952 55.6182 36.0505 55.5459 34.8136 55.5132C33.4093 55.4763 31.9793 55.4038 30.5885 55.3332L30.4656 55.3271C29.867 55.2968 29.268 55.2666 28.6739 55.2395H28.6464C27.1331 55.2395 25.6196 55.2376 24.1061 55.2339C22.3498 55.2309 20.5663 55.228 18.7734 55.228C16.4165 55.228 14.4788 55.2329 12.6751 55.2437H12.5956C9.94827 55.2437 7.76444 54.4583 6.28018 52.9721C4.7369 51.4268 3.93157 49.1188 3.95198 46.2968C3.99969 39.6617 3.97089 32.9444 3.94286 26.4479C3.92712 22.7384 3.91089 18.9031 3.90893 15.1135C3.87199 12.9309 4.36566 10.7721 5.34747 8.82257C6.46092 6.68126 8.44974 5.54495 11.6061 5.24667C16.0353 4.82863 19.6093 4.6009 22.8535 4.53033C32.2193 4.32525 39.4272 4.25271 46.2237 4.29476C51.1813 4.32549 54.0433 6.65765 54.9778 11.4247C56.0106 16.7091 55.9958 22.1406 55.9801 27.3961L55.9788 27.8417C55.9565 35.2962 55.9577 41.4894 55.9813 47.3321H55.982Z" fill="#D27849"/>
</g>
<defs>
<clipPath id="clip0_28_27">
<rect width="60" height="59.7541" fill="white"/>
</clipPath>
</defs>
</svg>
