<svg width="70" height="69" viewBox="0 0 70 69" fill="none" xmlns="http://www.w3.org/2000/svg">
<g clip-path="url(#clip0_30_946)">
<path d="M48.787 23.2986C45.4057 20.0385 41.0574 19.6867 37.4389 22.3808C36.0166 23.4397 34.6487 24.9262 33.2573 26.9241C31.4855 29.4705 31.0282 32.5746 30.6251 35.3128C29.9114 40.157 30.4582 44.9671 30.9866 49.6171C31.0649 50.3042 31.2448 51.8847 32.8046 51.8844C32.8545 51.8844 32.9062 51.883 32.9592 51.8796C34.5084 51.7813 34.5141 50.4698 34.5179 49.6015C34.5179 49.518 34.5179 49.4365 34.5202 49.3573C34.5397 48.316 34.5141 47.2586 34.4892 46.2364C34.4539 44.7757 34.4169 43.2654 34.5139 41.7945C34.6937 38.7091 35.0595 35.6371 35.6092 32.5945C36.0871 30.0498 37.5196 27.7776 39.6193 26.2341C41.851 24.554 43.8431 24.7525 45.7119 26.8392C47.1265 28.406 48.0698 30.3334 48.435 32.4034C48.8492 34.8088 49.1347 37.2808 49.4104 39.6723C49.518 40.6042 49.6255 41.5367 49.7406 42.4672L49.6912 42.4737C49.6238 42.4828 49.5616 42.5143 49.5151 42.5635C49.4686 42.6126 49.4405 42.6759 49.4359 42.7429C49.4066 43.1649 49.3765 43.5868 49.3455 44.0088C49.2718 45.0245 49.1955 46.0751 49.1419 47.1106L49.1353 47.2362C49.0724 47.9866 49.0802 48.7411 49.1576 49.4902C49.3381 50.8154 50.2802 51.768 51.5021 51.8606C52.6783 51.9495 53.7716 51.1609 54.2217 49.899C54.3239 49.6 54.3873 49.2894 54.4108 48.9745C54.8592 43.9278 55.1148 37.286 53.094 30.6648C52.1593 27.6019 50.7501 25.1917 48.787 23.2986Z" fill="white"/>
<path d="M20.7704 48.9862C20.789 49.8917 21.0169 50.7811 21.4365 51.5863C21.6999 52.0898 22.5752 52.3513 23.1159 52.3513C23.1334 52.3513 23.1504 52.3513 23.1673 52.3513C23.6751 52.3351 24.3026 51.7303 24.4408 51.2649C24.6533 50.4937 24.7395 49.6941 24.6961 48.8959C24.524 44.2249 24.3257 39.4767 24.1347 34.8849L23.754 25.7014C23.7253 25.002 23.6711 23.6997 22.0712 23.5691C22.0186 23.5654 21.9658 23.5752 21.9182 23.5975C20.6892 24.1873 20.728 25.2967 20.7592 26.1883C20.7647 26.3408 20.7701 26.4924 20.7695 26.6403C20.7471 32.7624 20.7259 40.8351 20.7704 48.9862Z" fill="white"/>
<path d="M22.1583 14.521C21.964 14.373 21.7633 14.2202 21.5868 14.0612C21.5459 14.024 21.4951 13.9991 21.4404 13.9894C21.3857 13.9797 21.3293 13.9856 21.2778 14.0064C19.3345 14.7848 19.2105 16.1241 19.4486 17.1105C19.5657 17.505 19.7662 17.8704 20.0368 18.1824C20.3073 18.4944 20.6417 18.7459 21.0179 18.9204C21.1298 18.9607 21.2483 18.98 21.3673 18.9773C21.9844 18.9773 22.817 18.553 23.0872 18.12C23.293 17.7649 23.4204 17.3707 23.4612 16.9634C23.502 16.5561 23.4552 16.1449 23.3239 15.7567C23.1125 15.2482 22.6273 14.879 22.1583 14.521Z" fill="white"/>
<path d="M68.4968 11.519C67.4763 3.22476 60.4244 -0.104553 53.8912 0.278496C50.0139 0.50367 46.174 0.623767 41.6013 0.734508C37.4584 0.835027 33.2099 0.921424 29.4618 0.997523C24.0833 1.10713 18.5214 1.22067 12.9992 1.37173C6.65901 1.54551 1.54673 5.58785 0.563572 11.2024C0.168818 13.4556 0.157327 15.7294 0.181712 18.2546C0.253147 25.6291 0.362164 33.0803 0.468599 40.2861L0.480364 41.0664C0.522631 43.9652 0.56391 46.8644 0.604267 49.7635C0.611152 50.2519 0.628362 50.7414 0.646149 51.231L0.647621 51.2701C0.719758 52.4832 0.707597 53.6996 0.611201 54.911C0.270093 58.146 1.5212 61.5952 3.9583 64.1371C6.66735 66.9627 10.5067 68.3992 14.7721 68.184C19.4265 67.9454 24.1742 67.9911 28.7655 68.0349L29.098 68.038C34.5465 68.0897 40.0874 68.2268 45.453 68.3603L48.1584 68.427C48.6139 68.454 49.0661 68.5216 49.509 68.6298C49.7411 68.6786 49.9738 68.7271 50.2053 68.7666C50.2386 68.7723 50.2721 68.7751 50.306 68.7751H53.2417C53.2704 68.7751 53.2993 68.7729 53.3277 68.7689C53.9144 68.6837 54.504 68.6068 55.0915 68.5307L55.1357 68.525C56.4528 68.3546 57.8152 68.1788 59.1429 67.8935C64.8703 66.662 69.7227 60.7828 69.7387 55.0555C69.7427 53.7056 69.7476 52.3557 69.7531 51.0058L69.7557 50.3283C69.7843 42.9297 69.8159 35.2789 69.6552 27.7456C69.5376 22.2662 69.148 16.8067 68.4968 11.519ZM65.3124 54.656C65.3302 59.0796 61.4317 63.2213 56.4373 64.0848C52.6105 64.7464 48.6989 64.5216 44.9154 64.3049C43.5111 64.2243 42.0589 64.1408 40.6159 64.103C38.9775 64.0604 37.3092 63.9767 35.6866 63.8952L35.5432 63.8881C34.8449 63.8531 34.146 63.8182 33.4529 63.787H33.4208C31.6553 63.787 29.8895 63.7847 28.1238 63.7804C26.0748 63.777 23.994 63.7736 21.9023 63.7736C19.1525 63.7736 16.8919 63.7793 14.7876 63.7918H14.6949C11.6063 63.7918 9.05851 62.8849 7.32687 61.1687C5.52638 59.3843 4.58683 56.7192 4.61064 53.4605C4.6663 45.7987 4.63271 38.042 4.6 30.5403C4.58164 26.2569 4.56271 21.8281 4.56041 17.4521C4.51732 14.9319 5.09327 12.439 6.23872 10.1878C7.53773 7.71516 9.85803 6.40302 13.5405 6.05859C18.7079 5.57587 22.8775 5.31291 26.6624 5.23141C37.5892 4.9946 45.9984 4.91083 53.9276 4.95939C59.7115 4.99488 63.0506 7.6879 64.1407 13.1926C65.3456 19.2947 65.3284 25.5666 65.3101 31.6352L65.3086 32.1498C65.2825 40.7577 65.284 47.9093 65.3115 54.656H65.3124Z" fill="white"/>
</g>
<defs>
<clipPath id="clip0_30_946">
<rect width="70" height="69" fill="white"/>
</clipPath>
</defs>
</svg>
