<svg width="264" height="47" viewBox="0 0 264 47" fill="none" xmlns="http://www.w3.org/2000/svg">
<path d="M246.546 19.0485C249.131 20.9753 252.131 22.3899 254.326 24.8289C256.302 26.7069 257.594 29.2679 259.887 30.7801C262.35 31.463 264.546 28.5606 263.204 26.3899C260.887 21.9509 256.765 18.707 252.619 16.0485C250.96 15.1705 248.765 13.6339 246.936 14.8534C245.473 15.6339 245.058 18.0485 246.546 19.0485Z" fill="#FFD600"/>
<path d="M222.4 8.04864C226.375 8.24376 230.229 9.34131 233.912 10.8291C235.546 11.7315 237.79 10.7803 238.058 8.85351C238.204 5.85354 234.863 4.7316 232.595 3.90234C229.156 3.0243 225.302 1.65846 221.839 3.0243C219.595 3.97551 219.839 7.85352 222.4 8.04864Z" fill="#FFD600"/>
<path d="M186.693 7.07309C190.351 6.65846 194.18 7.14626 197.766 6.12188C199.766 5.46336 199.376 3.04875 199.4 1.41462C198.034 1.07316 195.302 0.36585 193.937 0H192.01L195.059 0.34146C188.937 1.24389 182.376 0.634139 176.595 3.14631C174.449 4.02435 174.62 6.82919 176.181 8.19503C179.717 8.39015 183.156 7.24382 186.693 7.07309Z" fill="#FFD600"/>
<path d="M140.815 8.95116C145.279 9.12189 149.766 9.46335 154.254 9.31701C157.205 9.26823 157.888 4.51219 154.961 3.82927C150.01 3.07318 144.742 2.7805 139.84 3.92683C137.596 5.02438 138.303 8.78043 140.815 8.95116Z" fill="#FFD600"/>
<path d="M95.8645 9.43898C100.791 9.07313 105.718 8.56095 110.669 8.51217C113.352 8.31705 116.376 8.65851 118.742 7.04877C120.815 5.43903 119.376 1.8537 116.742 2.0976C110.791 2.07321 104.864 2.80491 98.962 3.26832C97.3523 3.561 95.6694 3.70734 94.3279 4.60977C92.3036 5.85366 93.3036 9.80483 95.8645 9.43898Z" fill="#FFD600"/>
<path d="M59.1576 13.195C62.3771 12.7072 65.499 11.6829 68.7673 11.3902C71.1575 10.9756 73.7672 11.0975 75.9867 9.878C78.1818 8.73167 77.4501 4.85366 74.8891 4.78049C71.7672 4.60976 68.7185 5.31707 65.6697 5.78048C63.0112 6.39023 60.1332 6.65852 57.8893 8.29265C55.9869 9.60971 56.7674 13.0243 59.1576 13.195Z" fill="#FFD600"/>
<path d="M28.597 24.7315C31.1335 23.951 33.2067 22.1461 35.5969 20.9998C38.3529 19.4876 41.4992 18.8535 44.3529 17.4876C46.1577 16.7803 46.5236 14.1462 45.109 12.8779C43.4992 11.5121 41.3285 12.3413 39.548 12.8291C35.1335 14.4633 30.6701 16.4389 27.1579 19.5852C25.3043 21.1949 26.3287 24.2193 28.597 24.7315Z" fill="#FFD600"/>
<path d="M1.37774 46.5362C3.81674 47.8044 5.30449 45.024 6.67033 43.4874C9.6703 39.6094 13.8166 36.8046 16.9629 33.0973C18.8897 30.7315 15.3532 27.2681 12.9873 29.0729C8.74347 31.8778 5.71911 36.0973 2.085 39.6094C0.694771 41.5118 -1.4271 44.8045 1.37774 46.5362Z" fill="#FFD600"/>
</svg>
