<svg width="100" height="31" viewBox="0 0 100 31" fill="none" xmlns="http://www.w3.org/2000/svg">
<path d="M6.65411 29.5665C6.48406 29.5914 6.32663 29.5948 6.18182 29.5766C6.10225 29.5725 6.01429 29.538 5.91791 29.4732C5.82814 29.3995 5.7562 29.3666 5.70209 29.3746C5.48998 29.382 5.18438 29.2097 4.78528 28.8577L4.3247 28.4634C4.17287 28.3435 3.97744 28.0879 3.73839 27.6966C3.49935 27.3053 3.27236 26.8886 3.05743 26.4463C2.85022 26.003 2.7196 25.651 2.66557 25.3905C2.64763 25.322 2.62856 25.2459 2.60835 25.162C2.58814 25.0781 2.56577 25.0064 2.54123 24.9468C2.39062 24.5662 2.28103 24.223 2.21246 23.9172C2.14275 23.6037 2.07954 23.2537 2.02282 22.8672L1.87615 21.7872C1.84325 21.5631 1.81765 21.2273 1.79937 20.7799C1.78533 20.5766 1.78083 20.4115 1.78587 20.2844C1.78212 19.8823 1.79028 19.5613 1.81035 19.3214C1.83319 18.9391 1.89071 18.524 1.98291 18.0761C2.01113 17.9457 2.03184 17.8716 2.04503 17.8538C2.06142 17.804 2.06564 17.7521 2.05769 17.698C2.03614 17.5511 2.09043 17.3023 2.22056 16.9516C2.34956 16.5931 2.50016 16.2473 2.67234 15.914C2.85112 15.572 3.01044 15.3393 3.15028 15.2162C3.19985 15.1773 3.25545 15.1257 3.31708 15.0614C3.48217 14.895 3.58234 14.7974 3.61758 14.7685C3.65283 14.7397 3.67818 14.7241 3.69364 14.7219C3.74002 14.715 3.87348 14.656 4.09402 14.5446C4.27819 14.4544 4.41665 14.4025 4.50941 14.3889L4.55579 14.3821L4.94862 14.3955C5.26801 14.4197 5.60932 14.5394 5.97254 14.7545C6.33576 14.9697 6.62622 15.2271 6.84392 15.5268C6.96277 15.691 7.04379 15.7857 7.08698 15.8109C7.19881 15.8735 7.33868 16.0464 7.5066 16.3297C7.67339 16.6053 7.83425 16.9212 7.98919 17.2775C8.00487 17.3305 8.09347 17.5307 8.25501 17.8781C8.56148 18.5675 8.73741 19.0667 8.78279 19.3759C8.80095 19.4996 8.79853 19.5908 8.77556 19.6494C8.76463 19.6826 8.76088 19.7108 8.76428 19.734C8.76882 19.7649 8.80165 19.8272 8.86278 19.9209C9.00049 20.1059 9.10565 20.4458 9.17825 20.9405C9.19527 21.0565 9.20229 21.1581 9.19931 21.2454C9.19633 21.3327 9.19551 21.4078 9.19686 21.4708C9.19707 21.526 9.19945 21.5691 9.20398 21.6L9.29896 22.1665C9.36023 22.5839 9.38618 22.8683 9.37681 23.0197C9.36631 23.1634 9.36844 23.2854 9.38319 23.3859L9.40191 23.5135C9.428 23.6912 9.42704 23.873 9.39902 24.0587C9.36782 24.2765 9.3564 24.4677 9.36476 24.6323C9.37313 24.7969 9.35681 25.0085 9.31582 25.2672C9.28142 25.517 9.26819 25.669 9.27613 25.7231C9.28975 25.8159 9.26173 26.0016 9.19209 26.2803C9.12904 26.5501 9.05054 26.8222 8.95657 27.0966C8.8626 27.3709 8.77775 27.5729 8.70201 27.7025C8.65811 27.78 8.60056 27.899 8.52936 28.0594C8.45951 28.2829 8.29973 28.5393 8.05004 28.8286C7.94111 28.9472 7.85573 29.0111 7.79389 29.0202C7.77843 29.0225 7.7184 29.0707 7.6138 29.1651C7.4146 29.368 7.0947 29.5018 6.65411 29.5665ZM6.53138 28.2461C6.77873 28.2098 7.0068 28.0421 7.21557 27.743C7.55831 27.2268 7.7628 26.8178 7.82904 26.5159C7.86479 26.329 7.91532 26.1084 7.98063 25.854C8.05368 25.5985 8.09627 25.3238 8.1084 25.0299L8.13245 24.3867C8.11509 23.8918 8.11669 23.4455 8.13726 23.0476C8.15868 22.8708 8.15635 22.6935 8.13025 22.5157C8.11324 22.3997 8.05296 22.0967 7.94944 21.6065C7.8886 21.2996 7.83038 20.9568 7.77479 20.578L7.7013 19.9966C7.68563 19.9436 7.61646 19.7682 7.49378 19.4703C7.44585 19.3589 7.40121 19.2431 7.35987 19.1228L6.83888 17.6714C6.80754 17.5654 6.73472 17.4458 6.6204 17.3126C6.52609 17.208 6.37895 17.0124 6.17897 16.7259C5.97786 16.4317 5.79867 16.233 5.64138 16.1297C5.34227 15.9209 5.15999 15.7819 5.09453 15.7125C5.00135 15.6156 4.89293 15.5763 4.76925 15.5944C4.65331 15.6115 4.52428 15.6738 4.38216 15.7815C4.07588 16.0081 3.82469 16.3411 3.62861 16.7805C3.52464 17.0405 3.44592 17.2574 3.39245 17.431C3.33784 17.597 3.29334 17.8048 3.25894 18.0547C3.22454 18.3045 3.18511 18.6814 3.14064 19.1854C3.12447 19.2904 3.10886 19.3993 3.09383 19.5121C3.08539 19.616 3.07411 19.7005 3.06 19.7658C3.05361 19.8299 3.04939 19.8818 3.04733 19.9216C3.04414 19.9537 3.04368 19.9774 3.04595 19.9929L3.06435 20.0375C3.07116 20.0839 3.06751 20.1397 3.05339 20.205C3.04147 20.5542 3.07575 21.1374 3.15622 21.9547C3.18841 22.2816 3.21812 22.5378 3.24535 22.7233C3.29753 23.0789 3.42482 23.5695 3.62719 24.1952C3.68967 24.3518 3.79039 24.6884 3.92938 25.205C3.99433 25.4323 4.05248 25.6133 4.10382 25.7479C4.19309 25.9796 4.4377 26.3819 4.83765 26.9549C5.47983 27.8872 6.04441 28.3176 6.53138 28.2461ZM15.7879 27.9653C15.757 27.9699 15.7294 27.97 15.7051 27.9657C15.568 27.9463 15.4624 27.9263 15.3883 27.9055C15.3142 27.8848 15.26 27.8652 15.2257 27.8465C15.1902 27.8201 15.1619 27.7887 15.1408 27.7524C15.0797 27.6587 15.0412 27.5577 15.0253 27.4495C15.0094 27.3413 15.0174 27.2612 15.0492 27.2091C15.0888 27.1559 15.1057 27.11 15.1001 27.0714C15.0944 27.0327 15.0584 27.0025 14.992 26.9806C14.9588 26.9697 14.9267 26.9665 14.8958 26.9711C14.8108 26.9835 14.6599 27.1123 14.4432 27.3573C14.1749 27.6809 13.9359 27.8818 13.7263 27.96C13.5232 28.0293 13.3831 28.0696 13.3058 28.0809C13.0816 28.1138 12.8942 28.0742 12.7435 27.9621C12.5196 27.7817 12.3905 27.6823 12.3562 27.6636C12.3207 27.6372 12.2858 27.6147 12.2515 27.5961C12.1663 27.5533 12.0791 27.4437 11.9901 27.2673C11.9076 27.082 11.8469 26.9645 11.8081 26.9149C11.7458 26.8135 11.6749 26.6265 11.5954 26.3539C11.478 25.9843 11.4006 25.6719 11.3632 25.4168C11.3371 25.239 11.3278 25.1219 11.3353 25.0656C11.3494 25.0003 11.3536 24.9484 11.3479 24.9097C11.3434 24.8788 11.3261 24.8419 11.2961 24.7989C11.2316 24.682 11.1387 24.2101 11.0173 23.383C10.9322 22.8032 10.8643 22.2328 10.8135 21.6718C10.7222 20.6192 10.862 20.0657 11.2331 20.0112C11.3181 19.9987 11.4154 20.016 11.5249 20.0631C11.6345 20.1102 11.7294 20.2187 11.8096 20.3885C11.8898 20.5584 11.9491 20.7471 11.9874 20.9546C12.0181 21.1633 12.0088 21.3424 11.9596 21.4917C11.928 21.599 11.9196 21.7029 11.9343 21.8034C11.9513 21.9193 12.0031 22.0302 12.0897 22.1359C12.1363 22.1843 12.2067 22.5293 12.3009 23.1709C12.4495 24.1835 12.5566 24.7521 12.6223 24.8767C12.64 24.8899 12.7 25.1101 12.8021 25.5372C12.9295 26.1897 13.0381 26.5528 13.1278 26.6265C13.2165 26.6924 13.2801 26.7226 13.3188 26.7169C13.4347 26.6999 13.575 26.553 13.7397 26.2761C14.1043 25.6936 14.3241 25.2546 14.3992 24.9594C14.4821 24.6629 14.4843 24.2481 14.406 23.7147C14.3198 23.1272 14.2893 22.8119 14.3146 22.7687C14.3387 22.7178 14.3445 22.6499 14.332 22.5648L14.2884 22.4291C14.2793 22.3673 14.3111 22.2876 14.3836 22.1901C14.4562 22.0926 14.4879 22.0129 14.4788 21.9511C14.4686 21.8815 14.4137 21.8303 14.3142 21.7976C14.136 21.7132 14.0317 21.5942 14.0012 21.4408C13.9697 21.2796 13.9505 21.1758 13.9437 21.1294C13.9085 20.8898 13.912 20.6445 13.9541 20.3936C14.0072 20.1094 14.1202 19.9112 14.2933 19.7989C14.4156 19.7178 14.5231 19.6705 14.6159 19.6568C14.7628 19.6353 14.8812 19.689 14.9712 19.8179C15.1145 20.0416 15.2475 20.5709 15.37 21.4057C15.4302 21.8154 15.6281 23.0024 15.9637 24.9666L16.2589 26.7355C16.3065 27.0601 16.3277 27.2584 16.3225 27.3302C16.2979 27.5391 16.2112 27.7019 16.0625 27.8184C15.9645 27.9039 15.873 27.9529 15.7879 27.9653ZM18.8998 27.3783C18.7915 27.3942 18.6838 27.3863 18.5765 27.3547C18.4071 27.2769 18.2761 27.1106 18.1835 26.8557C18.0974 26.592 18.0419 26.3751 18.0169 26.205C17.9885 26.0118 17.9801 25.8196 17.9915 25.6284C18.0022 25.54 18.0036 25.4687 17.9956 25.4146C17.9811 25.3693 17.9544 25.3219 17.9155 25.2724C17.8644 25.193 17.8281 25.0799 17.8065 24.933L17.7946 24.8519C17.7594 24.6123 17.7171 24.3776 17.6676 24.148L17.434 22.8794C17.3392 22.3406 17.2548 21.9542 17.181 21.7203C17.1485 21.6066 17.1277 21.5189 17.1187 21.457C17.1085 21.3874 17.11 21.3438 17.1231 21.3261C17.1395 21.2763 17.1245 21.0929 17.0779 20.776L17.0201 20.3818C16.9566 19.9489 16.9544 19.665 17.0135 19.53C17.0715 19.3872 17.1971 19.3017 17.3904 19.2733C17.6532 19.2347 17.8328 19.2479 17.9292 19.3127C18.0321 19.3686 18.1187 19.4744 18.1889 19.6299C18.2391 19.7568 18.2797 19.8179 18.3106 19.8134L18.3686 19.8049C18.4381 19.7947 18.5544 19.7263 18.7175 19.5997C19.1968 19.2609 19.6037 19.0472 19.9381 18.9586C20.2803 18.8689 20.5248 18.8133 20.6716 18.7917C20.9963 18.7441 21.2852 18.749 21.5385 18.8066C21.921 18.8847 22.1345 19.0745 22.1787 19.3759C22.19 19.4532 22.1776 19.5301 22.1415 19.6065C22.1119 19.674 22.0701 19.7117 22.0159 19.7196C22.0082 19.7208 21.9598 19.7674 21.8706 19.8594C21.7651 20.0012 21.5809 20.0914 21.3181 20.13C21.2408 20.1413 21.1508 20.1467 21.0481 20.146C20.953 20.1441 20.8476 20.1517 20.7316 20.1687C20.4301 20.213 20.1295 20.3163 19.8296 20.4788C19.4128 20.7058 19.0956 20.9655 18.878 21.258C18.6603 21.5505 18.5679 21.8089 18.6008 22.033C18.6076 22.0794 18.6183 22.1252 18.6329 22.1705C18.6551 22.2146 18.6691 22.256 18.6748 22.2946C18.6804 22.3333 18.6778 22.3692 18.6669 22.4024C18.6548 22.4278 18.6516 22.4599 18.6573 22.4985C18.6653 22.5526 18.6871 22.6205 18.7227 22.7021C18.7661 22.7826 18.8003 22.9079 18.8253 23.0779L18.8749 23.497C18.9101 23.7367 18.9439 23.9133 18.9764 24.027C19.0077 24.1329 19.028 24.2168 19.037 24.2787C19.0384 24.3416 19.0287 24.4102 19.008 24.4843C18.9861 24.5507 18.9803 24.6186 18.9905 24.6882L19.0174 24.7908C19.1054 24.9595 19.1584 25.1057 19.1766 25.2294C19.1936 25.3454 19.1834 25.4377 19.1461 25.5063C19.1154 25.5661 19.088 25.6214 19.0639 25.6723L19.2003 25.7945C19.3046 25.9134 19.3743 26.0927 19.4095 26.3323C19.4458 26.5796 19.4272 26.7758 19.3538 26.9208C19.3208 26.9652 19.267 27.056 19.1924 27.1932C19.1496 27.2785 19.094 27.3301 19.0256 27.348C18.9572 27.366 18.9152 27.3761 18.8998 27.3783ZM32.1482 25.6471C31.8699 25.6879 31.6545 25.6998 31.5019 25.6827C31.1814 25.6508 30.9181 25.5512 30.7119 25.3841C30.6499 25.3379 30.5934 25.3028 30.5425 25.2787C30.4982 25.2457 30.4683 25.2303 30.4528 25.2326C30.3678 25.2451 30.2244 25.1556 30.0225 24.9641C29.8273 24.7638 29.6409 24.5424 29.4631 24.3C29.2843 24.0499 29.1841 23.8514 29.1626 23.7045C29.1455 23.5886 29.0954 23.4894 29.0123 23.4068C28.8359 23.2274 28.6899 22.7435 28.5741 21.955C28.5036 21.4206 28.6422 21.1278 28.9901 21.0767C29.2065 21.045 29.3845 21.0741 29.524 21.1642C29.6416 21.2654 29.7771 21.5969 29.9306 22.1587C30.0269 22.492 30.0973 22.7027 30.1418 22.7909C30.1718 22.8339 30.201 22.952 30.2294 23.1453L30.26 23.354C30.2713 23.4313 30.3146 23.4841 30.3899 23.5126C30.4928 23.5685 30.602 23.667 30.7175 23.808C30.7829 23.8773 30.8567 23.9494 30.9387 24.0242C31.0285 24.0979 31.1077 24.1534 31.1764 24.1907C31.2793 24.2467 31.4106 24.334 31.5702 24.4527C31.702 24.5439 31.7949 24.5855 31.8491 24.5776C31.8954 24.5708 31.9357 24.5491 31.9698 24.5125C32.0116 24.4748 32.0585 24.4442 32.1103 24.4208C32.1699 24.3963 32.219 24.3812 32.2576 24.3755C32.3736 24.3585 32.4574 24.3106 32.509 24.232C32.5595 24.1456 32.637 24.0553 32.7416 23.961C32.9047 23.8344 33.0897 23.5348 33.2967 23.0622L33.5826 22.4281C33.6659 22.2421 33.6837 21.9868 33.636 21.6622C33.5668 21.1907 33.3993 20.7218 33.1335 20.2554C32.8665 19.7814 32.6215 19.4304 32.3986 19.2025C32.1822 18.9658 31.8026 18.6662 31.2599 18.3037C31.0737 18.1652 30.9795 18.0882 30.9772 18.0727C30.9738 18.0496 30.955 18.0286 30.9207 18.01C30.8863 17.9913 30.8487 17.9771 30.8078 17.9673C30.7657 17.9498 30.6977 17.9164 30.6036 17.867C30.5083 17.8099 30.4081 17.7457 30.3029 17.6743C30.0724 17.5028 29.9041 17.4051 29.7979 17.3812C29.6984 17.3484 29.5638 17.2655 29.3942 17.1325C29.2313 16.9906 29.0744 16.836 28.9235 16.6686C28.7725 16.5012 28.6637 16.3514 28.5969 16.2191C28.5378 16.0856 28.4684 15.9892 28.3886 15.9298C28.0948 15.6492 27.9047 15.2152 27.8185 14.6277C27.7411 14.0469 27.7665 13.4667 27.8947 12.8873C28.0294 12.299 28.2603 11.8545 28.5873 11.5538C28.6853 11.4684 28.7987 11.353 28.9274 11.2078C29.2619 10.8508 29.6881 10.6342 30.206 10.5582C30.9403 10.4504 31.532 10.6084 31.9811 11.032C32.1397 11.1982 32.2655 11.3022 32.3585 11.3438C32.4581 11.3766 32.5567 11.4568 32.6544 11.5846C32.6867 11.6431 32.7222 11.6971 32.7611 11.7466C32.7988 11.7885 32.8304 11.8154 32.8559 11.8275C33.0222 11.9926 33.2548 12.4204 33.5536 13.1109C33.6908 13.454 33.7741 13.726 33.8036 13.927C33.8342 14.1357 33.8183 14.2959 33.7557 14.4078C33.6921 14.5119 33.5344 14.5942 33.2827 14.6549C33.159 14.673 33.0401 14.6431 32.926 14.5651C32.8108 14.4793 32.7452 14.3824 32.7294 14.2741C32.718 14.1968 32.6735 14.1086 32.5958 14.0095C32.5124 13.8717 32.4533 13.7382 32.4186 13.6091C32.3838 13.48 32.3437 13.395 32.2983 13.3543C32.2528 13.3136 32.1622 13.1808 32.0266 12.956C31.9655 12.8623 31.9093 12.7758 31.8582 12.6964C31.8137 12.6082 31.7897 12.5525 31.7863 12.5293C31.7738 12.4443 31.6878 12.3424 31.5283 12.2237C31.3687 12.105 31.1921 12.0046 30.9984 11.9224C30.8114 11.8315 30.6631 11.79 30.5538 11.7982C30.0768 11.884 29.7072 12.1633 29.445 12.6361C29.1816 13.1011 29.0538 13.4949 29.0617 13.8175C29.0695 14.1401 29.0797 14.3439 29.0922 14.4289C29.1557 14.8618 29.335 15.2224 29.63 15.5108C29.7098 15.5701 29.7619 15.6296 29.7865 15.6891C29.8153 15.7244 29.8796 15.786 29.9794 15.874C30.0858 15.9532 30.2093 16.0416 30.35 16.1394C30.4907 16.2372 30.6403 16.3416 30.7987 16.4526C31.1178 16.69 31.3593 16.8559 31.5232 16.9503C31.6373 17.0283 31.7325 17.0854 31.8089 17.1216C32.048 17.2444 32.3803 17.4641 32.8058 17.7807C32.9665 17.9071 33.0485 17.9819 33.0519 18.0051C33.0553 18.0283 33.1263 18.1087 33.265 18.2463C33.4068 18.3518 33.5056 18.4597 33.5612 18.57C33.6701 18.7198 33.7611 18.8288 33.8343 18.8971C33.954 19.0137 34.0524 19.173 34.1294 19.3749C34.1651 19.4565 34.2008 19.5381 34.2364 19.6198C34.2787 19.6925 34.3098 19.7432 34.3298 19.7719C34.5819 20.0902 34.7612 20.6127 34.8678 21.3393C34.9098 21.6253 34.9202 21.8843 34.899 22.1164C34.883 22.2767 34.8741 22.4043 34.8723 22.4994C34.862 22.6983 34.7868 22.9659 34.6467 23.3024C34.5131 23.6299 34.3601 23.9327 34.1877 24.2107C34.0231 24.4875 33.8944 24.6327 33.8016 24.6463C33.7166 24.6588 33.6422 24.7171 33.5785 24.8212C33.5149 24.9253 33.4173 24.987 33.2859 25.0063C33.1622 25.0244 33.0845 25.0595 33.0526 25.1116C33.0197 25.1559 32.9635 25.2036 32.8841 25.2548C32.8412 25.2848 32.8208 25.3075 32.8231 25.323L32.8364 25.3328C32.9016 25.347 32.9359 25.3656 32.9394 25.3888C32.9473 25.4429 32.8177 25.5014 32.5506 25.5643C32.4292 25.5979 32.295 25.6255 32.1482 25.6471ZM38.8918 24.3849L38.6814 24.4039C38.277 24.3922 37.8842 24.2445 37.503 23.961C37.1285 23.6685 36.8775 23.3303 36.7501 22.9463C36.7176 22.8326 36.6579 22.6953 36.5711 22.5343C36.5123 22.4561 36.4604 22.3176 36.4154 22.1189C36.3929 22.0195 36.3664 21.8655 36.3358 21.6568C36.3063 21.4558 36.2869 21.2968 36.2776 21.1797C36.2683 21.0627 36.2733 20.9356 36.2927 20.7985C36.3198 20.6603 36.3643 20.4524 36.4262 20.1748C36.4535 20.0919 36.4735 19.9863 36.4863 19.8581C36.4893 19.7708 36.4879 19.7078 36.4823 19.6692C36.4664 19.5609 36.5019 19.4531 36.5888 19.3456L36.7058 19.1744L36.4834 19.1123C36.2666 19.0336 36.136 18.8435 36.0918 18.542C36.0396 18.1865 36.0697 17.8267 36.1821 17.4628C36.3023 17.0977 36.4907 16.8213 36.7474 16.6336C37.1078 16.3991 37.4271 16.2615 37.7054 16.2206C37.9527 16.1843 38.1684 16.2277 38.3522 16.3507C38.4154 16.4046 38.4702 16.4282 38.5166 16.4214L38.5861 16.4111C38.7098 16.393 38.8941 16.4647 39.1388 16.6261C39.4114 16.8151 39.6747 17.0489 39.9287 17.3275C40.1894 17.5971 40.3328 17.8209 40.3589 17.9987C40.3702 18.076 40.4076 18.1692 40.471 18.2783C40.7655 18.7247 40.9444 19.1366 41.0077 19.5143C41.0699 19.8842 41.105 20.0961 41.1129 20.1503C41.2048 20.7764 41.1807 21.2576 41.0406 21.594C40.9792 21.7136 40.9277 21.8475 40.8863 21.9957C40.8526 22.1428 40.8403 22.2472 40.8494 22.3091L40.8528 22.3323C40.8619 22.3941 40.8473 22.4831 40.8091 22.5992C40.7697 22.7077 40.7199 22.8255 40.6596 22.9528C40.5982 23.0724 40.5394 23.156 40.4833 23.2037C40.4348 23.2503 40.3837 23.3052 40.3298 23.3684C40.2836 23.4305 40.2452 23.4914 40.2145 23.5512C40.0673 23.7859 39.8664 23.9773 39.6117 24.1252C39.3637 24.2643 39.1237 24.3508 38.8918 24.3849ZM38.7346 23.1524C38.8119 23.1411 38.8869 23.1143 38.9597 23.072C39.0622 23.0175 39.2278 22.8274 39.4564 22.5017C39.541 22.3787 39.5969 22.2757 39.6242 22.1928C39.6679 22.06 39.7078 21.9555 39.744 21.8791C39.7802 21.8027 39.7946 21.6861 39.7874 21.5292C39.7802 21.3724 39.7881 21.2646 39.811 21.206C39.834 21.1473 39.8184 20.8259 39.7642 20.2416L39.6856 19.6254C39.6596 19.4476 39.6409 19.3477 39.6298 19.3256C39.5966 19.3147 39.5755 19.2783 39.5664 19.2165C39.5573 19.1547 39.4994 19.0289 39.3926 18.8393C39.1268 18.373 38.9029 18.0584 38.7211 17.8956C38.5747 17.7591 38.4583 17.638 38.3717 17.5323C38.2928 17.4254 38.2059 17.3711 38.1109 17.3692C38.0236 17.3662 37.9645 17.367 37.9335 17.3716C37.8253 17.3874 37.7261 17.4375 37.6358 17.5219C37.5016 17.6837 37.4217 17.8652 37.3959 18.0664C37.3779 18.2664 37.3763 18.4167 37.391 18.5172C37.4058 18.6177 37.4343 18.7043 37.4765 18.777C37.532 18.8321 37.601 18.9522 37.6834 19.1375C37.7659 19.3228 37.8692 19.4617 37.9933 19.554C38.124 19.6375 38.1944 19.714 38.2046 19.7835L38.2152 19.936C38.2197 19.9669 38.2452 19.9789 38.2915 19.9721C38.4075 19.9551 38.4935 20.057 38.5496 20.2777L38.5564 20.3241C38.6006 20.6256 38.4179 20.8064 38.0083 20.8665C37.7764 20.9005 37.653 21.0016 37.6382 21.1696C37.6311 21.3364 37.6332 21.4585 37.6446 21.5358C37.6775 21.76 37.7713 22.0225 37.926 22.3236C38.0173 22.5155 38.0698 22.6578 38.0834 22.7506L38.0854 22.845C38.0922 22.8914 38.1151 22.9394 38.1539 22.9889C38.1917 23.0308 38.2299 23.0489 38.2685 23.0432C38.3149 23.0364 38.3813 23.0582 38.4676 23.1087C38.5529 23.1515 38.6419 23.1661 38.7346 23.1524ZM44.8927 23.4686C44.7613 23.4879 44.6199 23.4928 44.4685 23.4835C44.0884 23.4761 43.809 23.375 43.6304 23.1801L43.1797 22.7725C43.0101 22.6394 42.8676 22.5024 42.7522 22.3614C42.6433 22.2116 42.581 22.0826 42.5651 21.9743C42.5537 21.897 42.5131 21.8083 42.4431 21.708C42.2342 21.4149 42.0686 20.8509 41.946 20.0161C41.8212 19.1659 41.8044 18.513 41.8954 18.0574C41.9496 17.781 41.9733 17.6196 41.9665 17.5732C41.9586 17.5191 41.9918 17.3958 42.0662 17.2033C42.144 17.0339 42.1871 16.8973 42.1955 16.7934C42.2151 16.7116 42.2645 16.6175 42.3436 16.5111C42.4339 16.4268 42.4745 16.3537 42.4654 16.2919C42.462 16.2687 42.4762 16.2311 42.5081 16.179C42.5695 16.0594 42.6234 15.9963 42.6698 15.9895C42.7239 15.9815 42.7778 15.9183 42.8314 15.7999C42.9104 15.6383 43.0418 15.4848 43.2258 15.3393C43.4945 15.1262 43.741 15.0031 43.9652 14.9702C44.0579 14.9566 44.1309 14.9696 44.1841 15.0092C44.2439 15.0399 44.4124 15.0586 44.6898 15.0652L44.834 15.0796C45.0452 15.1197 45.2834 15.29 45.5486 15.5906C45.8215 15.8901 46.0133 16.2015 46.124 16.5248C46.1855 16.7289 46.2574 16.8961 46.3397 17.0261C46.4108 17.1341 46.4515 17.2229 46.4617 17.2925C46.4776 17.4007 46.4275 17.4633 46.3116 17.4803C46.1956 17.4973 46.1223 17.5357 46.0916 17.5955C46.0686 17.6542 46.0223 17.6886 45.9528 17.6988C45.8214 17.7181 45.6842 17.6711 45.5412 17.5579C45.4271 17.4798 45.3616 17.3829 45.3446 17.2669C45.3377 17.2205 45.3266 17.1985 45.3112 17.2008C45.2957 17.203 45.2691 17.1832 45.2314 17.1414C45.1925 17.0918 45.152 17.0307 45.1097 16.9579C44.8375 16.5557 44.5545 16.3761 44.2607 16.4192C43.9593 16.4635 43.705 16.6943 43.4977 17.1116C43.2894 17.5212 43.1859 18.0536 43.1873 18.7087C43.2167 19.4467 43.237 19.8543 43.2483 19.9316C43.2597 20.0089 43.2782 20.0812 43.3039 20.1485C43.3295 20.2158 43.3592 20.3101 43.3928 20.4315C43.4253 20.5452 43.4539 20.6595 43.4786 20.7743C43.5022 20.8814 43.5291 20.984 43.5594 21.0822C43.5962 21.1716 43.6257 21.2383 43.648 21.2824C43.6691 21.3188 43.7014 21.3772 43.7448 21.4577C43.787 21.5305 43.8254 21.6038 43.86 21.6777C43.9479 21.8464 44.03 21.9488 44.1064 21.985C44.1407 22.0037 44.1795 22.0256 44.2227 22.0509C44.2647 22.0684 44.2996 22.0909 44.3273 22.1184C44.4048 22.1623 44.49 22.1774 44.5827 22.1638C44.6368 22.1559 44.697 22.1352 44.7631 22.1018C44.933 22.0216 45.0844 21.8967 45.2175 21.7272C45.3505 21.5576 45.4299 21.3723 45.4556 21.1711C45.4739 21.0263 45.5176 20.8935 45.5867 20.7728C45.6636 20.651 45.6997 20.5746 45.6952 20.5437C45.6714 20.3814 45.7167 20.2326 45.831 20.0974C45.9532 19.961 46.0523 19.8833 46.1285 19.8642C46.2124 19.844 46.262 19.8328 46.2775 19.8305C46.4089 19.8112 46.514 19.855 46.5929 19.9619C46.614 19.9982 46.6434 20.0374 46.6812 20.0792C46.7266 20.1199 46.7721 20.1606 46.8175 20.2013C46.863 20.242 46.8942 20.3203 46.9112 20.4363C46.9203 20.4981 46.9234 20.5727 46.9204 20.66C46.9146 20.8898 46.858 21.0955 46.7504 21.2772C46.7086 21.3149 46.6774 21.3984 46.6569 21.5278C46.6364 21.6571 46.562 21.8496 46.4337 22.1054C46.3043 22.3533 46.228 22.479 46.2048 22.4824C46.1893 22.4847 46.158 22.513 46.1107 22.5673C46.0633 22.6216 46.0145 22.692 45.964 22.7784C45.6981 23.1727 45.341 23.4028 44.8927 23.4686ZM49.6707 22.6133L49.5779 22.627C49.4895 22.6162 49.4144 22.6154 49.3525 22.6245C49.283 22.6347 49.2107 22.6532 49.1356 22.68L49.0562 22.7035C49.0021 22.7115 48.9567 22.6984 48.9201 22.6643C48.8658 22.617 48.7823 22.5858 48.6695 22.5708C48.5236 22.5448 48.441 22.4661 48.4217 22.3347C48.4137 22.2806 48.418 22.2287 48.4343 22.1789C48.4573 22.1203 48.462 22.0446 48.4484 21.9518C48.3849 21.5189 48.3281 21.2667 48.2781 21.1951L48.2628 21.0907C48.2614 21.0277 48.2661 20.952 48.2768 20.8636C48.2896 20.7354 48.2914 20.6404 48.2824 20.5785C48.2767 20.5399 48.25 20.4925 48.2023 20.4363C48.13 20.3206 48.0757 20.139 48.0394 19.8917C48.0077 19.6753 48.0021 19.53 48.0228 19.4559C48.0436 19.3818 48.0511 19.3254 48.0454 19.2868C48.0397 19.2481 48.0158 19.1924 47.9735 19.1196C47.9312 19.0469 47.9044 18.9719 47.8931 18.8946C47.8874 18.8559 47.8883 18.8084 47.8958 18.752C47.9034 18.6956 47.9032 18.6404 47.8952 18.5863C47.8873 18.5322 47.8689 18.4875 47.84 18.4523C47.8189 18.4159 47.8004 18.3436 47.7845 18.2354C47.7697 18.1349 47.7576 17.9985 47.7481 17.8262C47.7418 17.6218 47.7318 17.4732 47.7182 17.3805C47.698 17.2966 47.6668 17.2182 47.6245 17.1455C47.59 17.0716 47.5625 16.9651 47.5421 16.8259L47.4468 16.1767C47.3781 15.5471 47.4397 15.1867 47.6316 15.0954C47.7573 15.0375 47.8472 15.0045 47.9013 14.9966C48.0405 14.9762 48.1831 15.0065 48.3293 15.0877C48.5286 15.2085 48.6598 15.4301 48.7229 15.7525C48.7411 15.8761 48.7614 15.9877 48.7839 16.087C48.8064 16.1864 48.8232 16.2471 48.8343 16.2691C48.8454 16.2912 48.8527 16.3138 48.8561 16.337C48.8641 16.3911 48.8544 16.4596 48.8271 16.5426C48.7998 16.6256 48.7901 16.6941 48.798 16.7482C48.8026 16.7791 48.8198 16.8161 48.8498 16.8591C48.9798 17.0453 49.1253 17.6872 49.2864 18.7848C49.4078 19.6119 49.4911 20.1524 49.5363 20.4063L49.6738 21.2626C49.6342 21.3158 49.5919 21.3773 49.5469 21.4471C49.5007 21.5091 49.4805 21.5595 49.4862 21.5981C49.493 21.6445 49.5543 21.6592 49.6703 21.6422C49.7244 21.6342 49.7628 21.7076 49.7855 21.8621C49.8138 22.0554 49.809 22.2377 49.771 22.4091C49.735 22.5407 49.7016 22.6088 49.6707 22.6133ZM47.4785 13.6492C47.4012 13.6605 47.3261 13.6597 47.2531 13.6467C46.9101 13.5154 46.7199 13.3223 46.6825 13.0672L46.6719 12.9148C46.6939 12.5799 46.9178 12.3575 47.3439 12.2476C47.6917 12.1965 47.9305 12.2365 48.0603 12.3675C48.1889 12.4907 48.2595 12.5949 48.272 12.6799C48.289 12.7959 48.2475 12.9164 48.1474 13.0417C48.0726 13.1237 48.0215 13.2062 47.9942 13.2892C47.921 13.4895 47.7491 13.6094 47.4785 13.6492ZM56.2886 22.2698C56.1649 22.2879 56.0427 22.2624 55.9221 22.1933C55.8257 22.1285 55.7536 22.068 55.7059 22.0118C55.6648 21.9468 55.6301 21.8453 55.602 21.7073C55.5738 21.5693 55.5382 21.3534 55.4951 21.0597C55.4599 20.8201 55.4371 20.6378 55.4267 20.513C55.4152 20.3805 55.4098 20.2905 55.4108 20.243C55.4183 20.1866 55.4347 20.1368 55.4599 20.0936C55.484 20.0427 55.4932 19.9979 55.4876 19.9593C55.4842 19.9361 55.4775 19.9173 55.4675 19.903C55.4229 19.8148 55.3822 19.6984 55.3451 19.5538C55.3036 19.3783 55.2674 19.2928 55.2364 19.2973C55.2055 19.3018 55.1654 19.3512 55.116 19.4453L54.8673 19.8489C54.6333 20.1912 54.5191 20.3817 54.5248 20.4204C54.5305 20.459 54.397 20.6523 54.1243 21.0003C53.8593 21.3471 53.7037 21.524 53.6573 21.5308C53.6109 21.5376 53.5631 21.588 53.5137 21.6821C53.438 21.8117 53.3389 21.917 53.2166 21.9982C53.0931 22.0715 52.985 22.1151 52.8923 22.1287C52.8536 22.1343 52.8105 22.1367 52.763 22.1358C52.7144 22.1271 52.6707 22.1256 52.6321 22.1313C52.5702 22.1404 52.4859 22.1844 52.379 22.2632C52.2799 22.3409 52.1607 22.39 52.0216 22.4104C51.8979 22.4286 51.7626 22.4208 51.6155 22.3871C51.3213 22.3198 51.1225 22.1752 51.0189 21.9535C50.9898 21.8631 50.9092 21.7446 50.7772 21.5982C50.6517 21.4428 50.5799 21.3034 50.5618 21.1797C50.5504 21.1024 50.5629 21.0256 50.599 20.9492C50.6229 20.843 50.6309 20.7629 50.623 20.7088C50.6139 20.6469 50.6159 20.6072 50.6291 20.5894C50.6501 20.5706 50.6876 20.5572 50.7417 20.5492C50.8731 20.5299 50.9337 20.4855 50.9235 20.4159C50.9155 20.3618 50.8579 20.319 50.7506 20.2873C50.7097 20.2775 50.6776 20.2744 50.6545 20.2778C50.6313 20.2812 50.6163 20.2597 50.6095 20.2133C50.5913 20.0896 50.6528 19.8358 50.7938 19.4519C50.9884 18.8943 51.166 18.5445 51.3268 18.4024C51.3984 18.3524 51.4804 18.2654 51.5727 18.1413C51.6298 18.0461 51.7437 17.9346 51.9145 17.8069C52.0732 17.7046 52.1762 17.6263 52.2235 17.572C52.2708 17.5177 52.3904 17.4449 52.5823 17.3535C52.7819 17.2611 52.9612 17.1913 53.1201 17.1443C53.3463 17.0716 53.4771 17.0209 53.5123 16.992C53.6248 16.9518 53.8628 16.905 54.2261 16.8517L54.342 16.8347C54.6357 16.7916 54.8024 16.7434 54.842 16.6902C54.8893 16.6359 54.9067 16.5662 54.8942 16.4812C54.8817 16.3962 54.8465 16.2908 54.7886 16.1651C54.6434 15.7679 54.4921 15.49 54.3346 15.3315C54.176 15.1653 53.9613 15.0744 53.6905 15.0589C53.5302 15.0429 53.3965 15.0192 53.2892 14.9875C53.1885 14.947 53.0867 14.9264 52.984 14.9257C52.8271 14.9329 52.7204 14.9052 52.6638 14.8424C52.5852 14.7908 52.5188 14.769 52.4647 14.7769C52.3874 14.7882 52.3479 14.869 52.3463 15.0193C52.3576 15.0966 52.3551 15.1601 52.3387 15.2099C52.3224 15.2597 52.2833 15.3168 52.2217 15.3811C52.1194 15.4909 52.0585 15.6143 52.0392 15.7514C52.0187 15.8807 51.9848 15.9725 51.9375 16.0269C51.8968 16.0723 51.8262 16.1024 51.7257 16.1172C51.6329 16.1308 51.5888 16.153 51.5934 16.184L51.6288 16.3446C51.6492 16.4837 51.5821 16.5646 51.4275 16.5873C51.3425 16.5998 51.2413 16.5831 51.1241 16.5371C50.8717 16.432 50.7269 16.2519 50.6894 15.9968C50.6713 15.8732 50.6752 15.7384 50.7011 15.5924C50.7433 15.3414 50.831 15.1588 50.9642 15.0445C51.0645 14.9745 51.1217 14.9069 51.1358 14.8416C51.1586 14.7278 51.2619 14.5981 51.4459 14.4527C51.6364 14.2983 51.8569 14.1594 52.1072 14.0358C52.4094 13.8888 52.7034 13.7943 52.9894 13.7523C54.0639 13.5946 54.845 13.8866 55.3329 14.6283C55.4206 14.7418 55.4778 14.8084 55.5044 14.8282C55.6351 14.9117 55.7723 15.2548 55.916 15.8575C56.0586 16.4525 56.1775 17.0746 56.2728 17.7239L56.3736 18.4908C56.4394 18.9391 56.4965 19.3019 56.5451 19.579C56.6291 20.151 56.6868 20.6518 56.7183 21.0815C56.7575 21.51 56.7657 21.7813 56.7429 21.8951C56.6806 22.0622 56.597 22.1653 56.4922 22.2044C56.3951 22.2423 56.3273 22.2641 56.2886 22.2698ZM52.1758 21.1205C52.2453 21.1103 52.3347 21.0735 52.4438 21.0101C52.5518 20.9389 52.7026 20.7826 52.8961 20.541C53.0974 20.2982 53.2854 20.0456 53.46 19.7831C53.6424 19.5194 53.7522 19.3256 53.7893 19.2018C53.8263 19.0779 53.8811 18.9396 53.9534 18.7868C54.0248 18.6816 54.0835 18.5703 54.1294 18.453C54.182 18.3269 54.2054 18.2445 54.1998 18.2058C54.1952 18.1749 54.1427 18.1668 54.0422 18.1816C53.563 18.2519 53.1291 18.4696 52.7404 18.8345C52.5456 19.0132 52.4037 19.1761 52.3147 19.3234C52.0877 19.7673 51.9519 20.0794 51.9073 20.2597C51.8616 20.4322 51.8478 20.5803 51.8659 20.704C51.8773 20.7813 51.8996 20.853 51.933 20.9192C51.9755 21.0472 52.0172 21.1161 52.0581 21.1259C52.1056 21.1268 52.1449 21.125 52.1758 21.1205ZM59.5211 21.6177L59.2013 21.6172C59.0997 21.6243 59.0145 21.6091 58.9459 21.5718C58.885 21.5334 58.7979 21.4514 58.6848 21.3259C58.6304 21.2786 58.5565 21.017 58.463 20.5412C58.4124 20.3038 58.3678 20.0537 58.3292 19.7909C58.3099 19.6595 58.2982 19.4994 58.2942 19.3105L58.2803 19.1348C58.2701 19.0653 58.2511 19.0167 58.2234 18.9892C58.2022 18.9528 58.1843 18.8844 58.1695 18.7839C58.1537 18.6757 58.1376 18.5122 58.1213 18.2935C58.1115 18.066 58.0953 17.8749 58.0726 17.7203C58.05 17.5657 58.0078 17.3863 57.9463 17.1822C57.8925 16.9769 57.8553 16.8046 57.8349 16.6655C57.8156 16.5341 57.8062 16.3894 57.8067 16.2314C57.8138 16.0645 57.8123 15.9463 57.8021 15.8768C57.7907 15.7995 57.7572 15.7057 57.7016 15.5954C57.6325 15.4476 57.5843 15.281 57.5571 15.0955C57.5193 14.7299 57.4861 14.4505 57.4578 14.2573C57.4217 14.0651 57.3863 13.9045 57.3515 13.7754C57.3313 13.6915 57.3133 13.5954 57.2974 13.4872C57.2972 13.432 57.3113 13.3667 57.3397 13.2915C57.3857 13.1742 57.403 13.0769 57.3916 12.9996C57.3826 12.9378 57.3503 12.8793 57.2948 12.8243C57.2471 12.7682 57.1892 12.5082 57.1212 12.0444C57.0678 11.6811 57.0465 11.4552 57.0572 11.3668C57.0757 11.2772 57.0792 11.1938 57.0679 11.1165C57.0645 11.0933 57.0566 11.0668 57.0444 11.0371C57.0321 11.0073 57.0237 10.9769 57.0192 10.946C57.0078 10.8687 57.0176 10.8278 57.0485 10.8233C57.064 10.821 57.0834 10.8458 57.1068 10.8976C57.1379 10.9483 57.1657 10.9758 57.19 10.9802L57.248 10.9716C57.2866 10.966 57.3224 10.941 57.3554 10.8967C57.3686 10.8789 57.3746 10.8662 57.3735 10.8585C57.3701 10.8353 57.328 10.8178 57.2473 10.8059C57.0107 10.7538 56.8748 10.6079 56.8396 10.3683C56.8283 10.291 56.8463 10.2252 56.8936 10.1709C56.9397 10.1088 56.9594 10.0546 56.9526 10.0082C56.9458 9.96185 56.9125 9.92331 56.8527 9.8926C56.7918 9.85417 56.7339 9.72843 56.6789 9.51541C56.6408 9.36308 56.6081 9.19416 56.5808 9.00865C56.5275 8.64536 56.5038 8.37641 56.5098 8.20182C56.5224 8.01837 56.5099 7.7991 56.4725 7.54402C56.4416 7.28007 56.4388 7.12651 56.4641 7.08332C56.4959 7.03127 56.509 6.98592 56.5033 6.94727C56.4965 6.9009 56.5278 6.84498 56.5972 6.77953C56.6654 6.70635 56.7304 6.66522 56.7922 6.65614C56.8927 6.64139 56.9784 6.6604 57.0493 6.71316C57.1203 6.76592 57.1591 6.81549 57.1659 6.86187C57.1693 6.88506 57.1683 6.90495 57.1628 6.92154C57.1465 6.97133 57.1405 7.01168 57.1451 7.0426C57.1473 7.05805 57.1535 7.07295 57.1635 7.08727C57.1735 7.1016 57.1901 7.10706 57.2133 7.10365C57.2287 7.10138 57.2436 7.09525 57.2579 7.08525C57.2723 7.07525 57.291 7.06855 57.3142 7.06515C57.376 7.05607 57.4314 7.08348 57.4802 7.14738C57.5291 7.21127 57.5603 7.2896 57.574 7.38235C57.5978 7.54468 57.563 7.68402 57.4695 7.80039C57.4156 7.86358 57.3938 7.92995 57.404 7.99952C57.4153 8.07682 57.462 8.15287 57.5441 8.22769C57.7115 8.40051 57.8151 8.62219 57.8549 8.89273C57.8673 8.97776 57.8604 9.038 57.834 9.07345C57.8154 9.10778 57.8168 9.19837 57.8384 9.34523C57.8588 9.48437 57.8913 9.59804 57.9358 9.68626C58.0001 9.74789 58.2022 10.8829 58.5422 13.0913L58.8557 14.9049C59.183 16.7045 59.3858 17.8711 59.4641 18.4044L59.6002 19.332C59.7227 20.1668 59.773 20.7516 59.7511 21.0865C59.7292 21.4213 59.6526 21.5984 59.5211 21.6177ZM68.1634 20.6217C68.0475 20.6387 67.9462 20.5943 67.8596 20.4886C67.823 20.4545 67.7903 20.4198 67.7615 20.3846C67.7315 20.3416 67.707 20.3096 67.6882 20.2887C67.6659 20.2446 67.6334 20.1309 67.5907 19.9477C67.5546 19.7556 67.5219 19.559 67.4924 19.3581C67.464 19.1648 67.453 19.0361 67.4594 18.972C67.4646 18.9002 67.4639 18.8411 67.457 18.7947C67.4491 18.7406 67.4351 18.6992 67.4151 18.6706C67.394 18.6342 67.38 18.5928 67.3732 18.5464C67.3653 18.4923 67.3645 18.4332 67.3709 18.3691C67.3839 18.2962 67.3864 18.2326 67.3785 18.1785C67.3716 18.1321 67.3477 18.0764 67.3065 18.0114C67.2654 17.9464 67.2245 17.8023 67.1839 17.5793C67.1034 17.0305 67.0505 16.6435 67.0253 16.4182C66.9909 16.0758 66.9812 15.8482 66.9962 15.7355C67.0049 15.6868 67.0046 15.6316 66.9956 15.5697C66.9888 15.5234 66.9637 15.4599 66.9203 15.3794C66.8769 15.2989 66.8518 15.2355 66.8449 15.1891C66.8381 15.1428 66.8451 15.0825 66.8658 15.0084C66.8854 14.9266 66.8962 14.8658 66.8982 14.826C66.8926 14.7873 66.8759 14.7543 66.8481 14.7267C66.7948 14.6319 66.7323 14.341 66.6608 13.8541C66.6075 13.4908 66.5889 13.2566 66.6051 13.1516C66.6281 13.0929 66.6373 13.0482 66.6328 13.0172C66.6282 12.9863 66.6038 12.9544 66.5595 12.9214C66.5218 12.8796 66.4768 12.6809 66.4246 12.3253C66.4042 12.1862 66.396 12.0768 66.4002 11.9972C66.4068 11.9884 66.4089 11.9762 66.4066 11.9607C66.4044 11.9453 66.3971 11.9227 66.3848 11.8929C66.3714 11.8554 66.3575 11.814 66.3429 11.7687C66.335 11.7146 66.3288 11.6721 66.3242 11.6412C66.3106 11.5485 66.312 11.4772 66.3284 11.4274C66.3723 11.3499 66.388 11.2686 66.3755 11.1836C66.3619 11.0908 66.32 10.9667 66.2498 10.8112C66.1784 10.6479 66.1016 10.3394 66.0192 9.88565L65.9089 9.21486C66.0187 9.04871 66.0758 8.95348 66.0801 8.92915C66.0922 8.9037 66.0965 8.87937 66.0931 8.85618C66.0829 8.78662 66.0161 8.65429 65.8927 8.4592C65.8282 8.34233 65.7835 8.19887 65.7585 8.02882C65.7335 7.85877 65.7269 7.70577 65.7385 7.56982C65.7579 7.43275 65.7946 7.36024 65.8487 7.3523C65.9105 7.34322 65.9711 7.29879 66.0305 7.21902C66.0503 7.19242 66.0585 7.16753 66.0551 7.14434C66.0528 7.12888 65.9914 7.1142 65.8709 7.1003C65.7571 7.07754 65.6873 7.03251 65.6616 6.96521C65.6437 6.89677 65.6336 6.85483 65.6313 6.83937C65.6165 6.73888 65.6399 6.62886 65.7013 6.5093C65.7475 6.44725 65.7721 6.4002 65.7753 6.36815C65.7629 6.28312 65.7488 6.21412 65.7331 6.16115C65.6963 6.07179 65.6728 5.99233 65.6626 5.92277C65.6546 5.86866 65.6765 5.80228 65.7281 5.72364C65.7875 5.64386 65.8635 5.59717 65.9563 5.58355C66.0568 5.5688 66.134 5.52984 66.1879 5.46665C66.2306 5.38142 66.2791 5.33483 66.3332 5.32688C66.395 5.31781 66.508 5.38809 66.6721 5.53772C66.9393 5.79855 67.0952 5.97307 67.1398 6.06129C67.1832 6.14178 67.2077 6.20135 67.2134 6.23999C67.2259 6.32502 67.2068 6.41072 67.1564 6.49709C67.1027 6.61552 67.0792 6.69792 67.086 6.7443C67.094 6.79841 67.1327 6.82036 67.2023 6.81015C67.2487 6.80334 67.3016 6.78767 67.3612 6.76313C67.4197 6.73087 67.4721 6.71133 67.5184 6.70452C67.5659 6.70545 67.6769 6.81551 67.8512 7.03471C68.0721 7.30234 68.1882 7.47481 68.1995 7.55211C68.2018 7.56757 68.2141 7.59735 68.2363 7.64146C68.2652 7.6767 68.2979 7.71138 68.3345 7.74549C68.4288 7.85009 68.4777 7.91399 68.4811 7.93718C68.4845 7.96037 68.5012 7.99345 68.5312 8.03642C68.5689 8.07826 68.6072 8.12397 68.6461 8.17354C68.6915 8.21424 68.7292 8.25608 68.7592 8.29906C68.7958 8.33317 68.8158 8.36182 68.8192 8.38501C68.8226 8.4082 68.9265 8.55088 69.1308 8.81305C69.2285 8.94084 69.2979 9.03725 69.339 9.10228C69.3879 9.16617 69.4163 9.22518 69.4242 9.27928C69.4277 9.30247 69.4245 9.33453 69.4147 9.37544C69.4049 9.41636 69.4034 9.46001 69.4102 9.50639C69.4213 9.52844 69.4568 9.55482 69.5166 9.58553C69.6052 9.65148 69.6512 9.69605 69.6546 9.71924C69.658 9.74243 69.7424 9.83271 69.9076 9.99007C70.0428 10.1045 70.192 10.2602 70.3552 10.4574C70.504 10.6645 70.6055 10.7641 70.6596 10.7562C70.706 10.7494 70.7647 10.6381 70.8357 10.4224C70.863 10.3394 70.8771 10.2742 70.878 10.2267C70.8865 10.1228 70.9252 10.0105 70.9944 9.88978L71.106 9.60098C71.1135 9.54461 71.1403 9.48539 71.1865 9.42334C71.2393 9.35243 71.2605 9.28219 71.2503 9.21262C71.2276 9.05803 71.2743 8.97222 71.3902 8.95521C71.4211 8.95067 71.462 8.96045 71.513 8.98457C71.5705 8.99981 71.6186 9.0046 71.6572 8.99893C71.75 8.98532 71.7873 8.91667 71.7691 8.793C71.7555 8.70024 71.6899 8.60326 71.5724 8.50207C71.5358 8.46796 71.5119 8.41225 71.5005 8.33496C71.4756 8.1649 71.5199 7.90178 71.6334 7.54557C71.7044 7.32985 71.7579 7.15619 71.7938 7.02457C71.8375 6.89182 71.8736 6.78782 71.902 6.71258C71.9325 6.59756 71.9455 6.52459 71.9409 6.49367C71.9364 6.46275 71.9636 6.35216 72.0225 6.1619C72.0892 5.9705 72.1203 5.85935 72.1157 5.82843C72.1101 5.78978 72.127 5.74386 72.1666 5.69068C72.2127 5.62863 72.2411 5.52577 72.2516 5.38209C72.2819 5.21183 72.3267 5.08681 72.386 5.00703C72.452 4.91839 72.4804 4.84315 72.4713 4.78131C72.4623 4.71947 72.4996 4.65083 72.5833 4.57538C72.6658 4.4922 72.7573 4.44323 72.8578 4.42848C73.0279 4.40353 73.1832 4.43994 73.3239 4.53774C73.4712 4.62667 73.5562 4.74843 73.5789 4.90302C73.5868 4.95713 73.6003 5.02226 73.6194 5.09843C73.6451 5.16572 73.6735 5.22473 73.7046 5.27543C73.7357 5.32613 73.7569 5.36251 73.768 5.38457C73.7791 5.40662 73.7858 5.42538 73.7881 5.44084C73.7915 5.46403 73.7734 5.50222 73.7339 5.5554C73.7009 5.59972 73.6884 5.64894 73.6963 5.70304C73.7108 5.74829 73.7647 5.81934 73.8579 5.91622C73.9811 6.05606 74.0534 6.19942 74.075 6.34628C74.084 6.40812 74.0798 6.46006 74.0623 6.50211L74.081 6.62965C74.0912 6.69922 74.1115 6.78311 74.1417 6.88133C74.1719 6.97955 74.1921 7.06344 74.2023 7.13301C74.2114 7.19484 74.2104 7.24236 74.1995 7.27554C74.1875 7.301 74.1848 7.33692 74.1916 7.3833C74.1973 7.42195 74.2202 7.46992 74.2601 7.52722C74.299 7.57679 74.3213 7.6209 74.3269 7.65955C74.3338 7.70593 74.3334 7.7573 74.3259 7.81368C74.3172 7.86233 74.3163 7.90984 74.3231 7.95622C74.3288 7.99487 74.3428 8.03625 74.365 8.08035C74.4152 8.20722 74.5213 8.79571 74.6834 9.84581C74.7592 10.3085 74.8287 10.7286 74.892 11.1062C74.9631 11.4827 75.0148 11.7278 75.0473 11.8415C75.0798 11.9551 75.1017 12.0506 75.1131 12.1279C75.121 12.182 75.1239 12.229 75.1219 12.2687C75.1046 12.366 75.0432 12.4856 74.9376 12.6274C74.8398 12.7681 74.7983 12.8887 74.8131 12.9892C74.8376 13.0488 74.8924 13.0723 74.9774 13.0598L75.0917 13.0312C75.1535 13.0221 75.2168 13.1037 75.2815 13.2758C75.3529 13.439 75.41 13.6399 75.4529 13.8784C75.4892 14.1257 75.5028 14.3527 75.4936 14.5594L75.3313 14.5832C75.2463 14.5957 75.1873 14.6241 75.1543 14.6684L75.1628 14.7264C75.2426 14.7857 75.3555 14.856 75.5017 14.9372C75.5726 14.99 75.6193 15.066 75.6418 15.1654C75.6631 15.257 75.6863 15.3878 75.7112 15.5579C75.807 16.0492 75.8622 16.3174 75.8767 16.3627C75.8901 16.4002 75.8997 16.4383 75.9053 16.4769C75.9167 16.5542 75.913 16.61 75.8944 16.6444C75.8835 16.6775 75.8905 16.7792 75.9154 16.9492C75.9381 17.1038 75.9836 17.3064 76.052 17.5569C76.147 17.8273 76.2109 18.0745 76.2438 18.2987C76.2823 18.5615 76.2766 18.7913 76.2265 18.9882C76.158 19.2746 76.0156 19.4337 75.7991 19.4654C75.5982 19.4949 75.4249 19.4177 75.2795 19.2338C75.1341 19.0498 75.0483 18.8689 75.0222 18.6911C75.0074 18.5907 75.0187 18.5061 75.056 18.4374C75.0692 18.4197 75.073 18.3915 75.0673 18.3529C75.0571 18.2833 75.0263 18.1812 74.975 18.0466C74.908 17.8591 74.8574 17.6493 74.8234 17.4174C74.8105 17.2219 74.8271 17.0932 74.8733 17.0311C74.9008 17.0034 74.9134 16.9818 74.9112 16.9663C74.9089 16.9509 74.8995 16.9404 74.8829 16.9349C74.874 16.9284 74.869 16.9212 74.8679 16.9135C74.8645 16.8903 74.8837 16.8598 74.9255 16.8221C74.9662 16.7766 74.9826 16.7269 74.9747 16.6727C74.9656 16.6109 74.9218 16.5542 74.8431 16.5025C74.7988 16.4696 74.7616 16.4316 74.7316 16.3886C74.7016 16.3456 74.6715 16.275 74.6413 16.1768C74.6177 16.0698 74.5873 15.9163 74.5501 15.7165C74.3553 14.7659 74.208 13.9505 74.1081 13.2703L73.8032 11.112C73.7794 10.9497 73.7873 10.842 73.8268 10.7888C73.8653 10.7279 73.8794 10.6626 73.8692 10.5931C73.8544 10.4926 73.7905 10.3796 73.6773 10.254C73.6241 10.2145 73.5873 10.1251 73.5669 9.98599C73.5467 9.90209 73.4929 9.56256 73.4055 8.96737C73.3658 8.69683 73.3292 8.50086 73.2956 8.37945L73.1249 7.53986C73.0614 7.107 73.0065 6.89397 72.9601 6.90077C72.9292 6.90531 72.8964 7.00488 72.8618 7.19946C72.8095 7.38086 72.7178 7.67069 72.5867 8.06894C72.531 8.22715 72.4877 8.33614 72.457 8.39592C72.4329 8.44684 72.4237 8.49162 72.4294 8.53027C72.4441 8.63076 72.3938 8.77237 72.2785 8.95512C72.2214 9.05035 72.1898 9.15765 72.1836 9.27699C72.1763 9.38861 72.1435 9.46056 72.085 9.49282C72.0255 9.51736 71.9763 9.53246 71.9377 9.53813C71.8836 9.54607 71.8233 9.53912 71.757 9.51728C71.6563 9.47679 71.5969 9.3947 71.5787 9.27103C71.5696 9.20919 71.5607 9.17497 71.5518 9.16838L71.4658 9.22837C71.3976 9.30155 71.3709 9.38839 71.3856 9.48887C71.3981 9.5739 71.4132 9.62301 71.4309 9.6362C71.4564 9.64825 71.4791 9.66861 71.4991 9.69726C71.5393 9.8098 71.58 9.89858 71.6211 9.96361C71.6623 10.0286 71.7017 10.0821 71.7394 10.1239C71.7771 10.1658 71.8017 10.2253 71.813 10.3026C71.8266 10.3954 71.8199 10.5109 71.7928 10.6491C71.7507 10.9 71.6516 11.1396 71.4956 11.3678C71.4703 11.411 71.449 11.4536 71.4314 11.4957C71.4217 11.5366 71.419 11.5725 71.4236 11.6034C71.4281 11.6344 71.4146 11.7035 71.3829 11.8108C71.359 11.9169 71.3274 12.0242 71.288 12.1326C71.2475 12.2333 71.2075 12.3103 71.1679 12.3635C71.0865 12.4544 70.984 12.5089 70.8603 12.527C70.783 12.5384 70.704 12.5381 70.6233 12.5263C70.3812 12.4908 70.2073 12.3821 70.1017 12.2002C70.0426 12.0667 69.9566 11.9648 69.8436 11.8945C69.7993 11.8616 69.7583 11.8242 69.7206 11.7823C69.6906 11.7393 69.6733 11.7024 69.6688 11.6715C69.6631 11.6328 69.597 11.532 69.4704 11.369C69.4149 11.3139 69.3622 11.2506 69.3122 11.179C69.2268 11.081 69.1373 10.9559 69.0439 10.8038C68.8274 10.5118 68.6973 10.298 68.6537 10.1623C68.6235 10.064 68.5452 9.96104 68.4188 9.85325C68.2924 9.74545 68.1787 9.61607 68.0776 9.46509C67.9842 9.31298 67.919 9.16462 67.882 9.02003C67.845 8.87543 67.7783 8.77073 67.6819 8.70591C67.5855 8.64109 67.5118 8.56901 67.4606 8.48965C67.4172 8.40916 67.3878 8.37005 67.3724 8.37232C67.3569 8.37459 67.3309 8.35867 67.2943 8.32456C67.2566 8.28272 67.221 8.22872 67.1876 8.16255C67.0597 7.93655 66.9725 7.82695 66.9261 7.83375C66.8566 7.84396 66.857 8.08869 66.9273 8.56793C66.9715 8.86939 66.9923 9.09139 66.9895 9.23392C66.9809 9.28257 66.9639 9.32849 66.9387 9.37168C66.9123 9.40713 66.9019 9.44418 66.9076 9.48283C66.9167 9.54467 66.9562 9.62573 67.0262 9.726C67.1273 9.87698 67.1915 10.0452 67.2187 10.2307C67.2675 10.5631 67.2269 10.7704 67.0968 10.8527C67.0152 10.8884 66.9761 10.9178 66.9795 10.941C66.9829 10.9642 67.0211 10.9822 67.094 10.9952C67.167 11.0082 67.2063 11.034 67.212 11.0727C67.2177 11.1113 67.1897 11.1628 67.1281 11.2271C67.073 11.2826 67.0501 11.3412 67.0591 11.4031C67.0814 11.4472 67.1362 11.4707 67.2235 11.4737C67.2633 11.4757 67.2959 11.4828 67.3213 11.4949C67.3745 11.5344 67.431 11.7038 67.4907 12.003C67.5583 12.3563 67.6608 13.0006 67.7981 13.9359L68.2654 16.9587C68.2901 17.0735 68.3121 17.169 68.3311 17.2451C68.3579 17.3201 68.3855 17.4543 68.4139 17.6475C68.4661 18.0031 68.4686 18.2356 68.4215 18.3452C68.4029 18.3795 68.3958 18.4122 68.4004 18.4431C68.406 18.4817 68.4211 18.5308 68.4457 18.5904C68.5493 18.8121 68.613 19.0041 68.6368 19.1664L68.6794 19.4563C68.7134 19.6882 68.7241 19.8958 68.7116 20.0793C68.6958 20.2948 68.6454 20.4088 68.5604 20.4213C68.5372 20.4247 68.4827 20.4564 68.3967 20.5164C68.3108 20.5764 68.233 20.6115 68.1634 20.6217ZM68.2486 18.6193C68.2772 18.5993 68.2842 18.5391 68.2694 18.4386C68.2524 18.3227 68.2168 18.2687 68.1627 18.2766C68.1473 18.2789 68.1341 18.2966 68.1232 18.3298C68.12 18.3618 68.1206 18.3933 68.1252 18.4242C68.1354 18.4938 68.1511 18.5468 68.1722 18.5832C68.1999 18.6107 68.2254 18.6227 68.2486 18.6193ZM67.5813 15.768C67.6277 15.7612 67.6724 15.7428 67.7154 15.7128C67.7363 15.694 67.7456 15.6768 67.7434 15.6613C67.7399 15.6381 67.7194 15.6056 67.6817 15.5638C67.6428 15.5142 67.5886 15.4945 67.519 15.5048C67.4804 15.5104 67.4473 15.5271 67.4198 15.5549C67.4 15.5814 67.3929 15.6141 67.3986 15.6527C67.4111 15.7377 67.4411 15.7807 67.4886 15.7816C67.535 15.7748 67.5659 15.7703 67.5813 15.768ZM80.6628 18.4673C80.5777 18.4798 80.5081 18.4624 80.4537 18.4151C80.4006 18.3755 80.3711 18.3364 80.3655 18.2978C80.3587 18.2514 80.3321 18.2316 80.2857 18.2384C80.2161 18.2486 80.1329 18.3003 80.036 18.3935C79.9787 18.4335 79.9114 18.4592 79.8341 18.4705C79.695 18.4909 79.5164 18.4579 79.2984 18.3715C78.9211 18.2216 78.6146 17.9625 78.379 17.5944C77.9581 17.0403 77.7017 16.4502 77.6098 15.8241C77.5803 15.6231 77.578 15.4458 77.6028 15.2921C77.6277 15.1384 77.6367 15.0384 77.6299 14.992C77.6253 14.9611 77.6131 14.9313 77.5931 14.9027C77.5353 14.8322 77.498 14.739 77.4809 14.623C77.4628 14.4993 77.4503 14.4143 77.4435 14.3679C77.3834 13.9583 77.3827 13.6307 77.4414 13.3852C77.5088 13.091 77.551 12.8677 77.5681 12.7151C77.6038 12.5283 77.6672 12.3413 77.7582 12.1542C77.8569 11.966 77.9242 11.8061 77.9602 11.6745C77.9962 11.5429 78.0878 11.3873 78.2352 11.2078L78.448 10.9633C78.6361 10.7383 78.7968 10.5686 78.93 10.4543C79.2484 10.2023 79.4578 10.0689 79.5583 10.0542C79.6587 10.0394 79.7591 9.99706 79.8594 9.92707C79.9244 9.88594 79.984 9.8614 80.0381 9.85346C80.0767 9.84779 80.1165 9.84985 80.1574 9.85963C80.2713 9.8824 80.4028 9.89073 80.552 9.88464C80.7088 9.87741 80.8266 9.8996 80.9052 9.95123C80.9905 9.99399 81.0931 10.1013 81.2131 10.2732C81.4085 10.5288 81.5176 10.7339 81.5403 10.8885C81.5527 10.9735 81.5398 11.0465 81.5013 11.1074C81.4618 11.1606 81.4454 11.2104 81.4522 11.2567L81.4706 11.3014C81.5094 11.351 81.5328 11.4028 81.5408 11.4569C81.5533 11.542 81.52 11.6653 81.4411 11.8269C81.3808 11.9542 81.3459 12.0659 81.3363 12.1621C81.3267 12.2582 81.2901 12.3584 81.2264 12.4625C81.1705 12.5654 81.1124 12.6806 81.0521 12.8078C80.9984 12.9263 80.9044 13.0388 80.77 13.1454C80.6422 13.2431 80.5355 13.3772 80.45 13.5476C80.3645 13.7181 80.3063 13.8056 80.2753 13.8102C80.2444 13.8147 80.2004 13.8646 80.1433 13.9598C80.1138 14.0273 80.0796 14.0639 80.041 14.0696C80.0255 14.0719 79.9813 14.0665 79.9084 14.0535C79.842 14.0317 79.7856 14.0242 79.7392 14.031C79.7083 14.0355 79.6818 14.0434 79.6598 14.0545C79.5638 14.1002 79.5221 14.1655 79.5346 14.2505C79.5402 14.2892 79.5569 14.3223 79.5847 14.3498C79.6201 14.3762 79.6395 14.4009 79.643 14.4241C79.6498 14.4705 79.6223 14.5259 79.5607 14.5902C79.465 14.6911 79.3057 14.7895 79.0829 14.8854C78.9142 14.9733 78.8537 15.1796 78.9013 15.5042C78.9478 15.8211 79.0623 16.1439 79.2448 16.4724C79.435 16.7998 79.6535 17.0244 79.9003 17.1461C80.0087 17.1854 80.1557 17.1915 80.3412 17.1643C80.4572 17.1473 80.5598 17.1204 80.6492 17.0835C80.7683 17.0345 80.825 16.9906 80.8194 16.952C80.8137 16.9133 80.8709 16.8457 80.991 16.7491C81.1176 16.6437 81.1792 16.5794 81.1758 16.5562C81.1724 16.533 81.1928 16.5103 81.2369 16.488C81.2876 16.4569 81.3157 16.433 81.3211 16.4164C81.32 16.4087 81.31 16.3943 81.2911 16.3734C81.2723 16.3525 81.2611 16.3304 81.2577 16.3073C81.2475 16.2377 81.2902 16.1248 81.3857 15.9687L81.5751 15.6448C81.7286 15.3459 81.8379 15.1759 81.9029 15.1347C81.9679 15.0936 82.0198 15.0702 82.0584 15.0645C82.1512 15.0509 82.2684 15.0693 82.41 15.1195C82.5516 15.1698 82.6551 15.2296 82.7206 15.299C82.786 15.3683 82.8295 15.4765 82.8511 15.6233C82.8733 15.9359 82.7538 16.3325 82.4927 16.813C82.2393 17.2923 81.949 17.6548 81.6218 17.9002L81.3094 18.1119C81.0406 18.325 80.8251 18.4435 80.6628 18.4673ZM78.8275 13.5489C78.8584 13.5444 78.9477 13.4799 79.0953 13.3556C79.256 13.2136 79.3556 13.1121 79.3941 13.0512C79.4314 12.9825 79.4682 12.9377 79.5046 12.9165C79.5487 12.8943 79.6094 12.8775 79.6867 12.8661C79.9031 12.8343 80.0023 12.7566 79.9841 12.6329C79.9784 12.5943 79.9612 12.5574 79.9323 12.5221C79.9112 12.4857 79.8984 12.4521 79.8938 12.4212C79.8904 12.398 79.9161 12.331 79.9709 12.2203C80.0949 11.9889 80.1594 11.8097 80.1644 11.6826C80.1761 11.5467 80.1785 11.4555 80.1717 11.4091C80.1513 11.27 80.0947 11.2073 80.0019 11.2209C79.9323 11.2311 79.8448 11.3071 79.7393 11.4489C79.6811 11.5364 79.598 11.6434 79.4903 11.7697C79.334 11.9427 79.1591 12.2842 78.9655 12.7943C78.8276 13.1462 78.7678 13.3839 78.7859 13.5076C78.7905 13.5385 78.8043 13.5523 78.8275 13.5489ZM89.034 17.2387C88.9567 17.25 88.8639 17.236 88.7554 17.1967C88.6559 17.1639 88.5772 17.1123 88.5195 17.0418C88.4618 16.9713 88.4088 16.8527 88.3607 16.6861C88.3203 16.5183 88.2735 16.2804 88.2204 15.9723L88.0897 15.1624L88.1872 15.1007C88.2534 15.0673 88.2881 15.0346 88.2913 15.0025C88.2879 14.9793 88.2579 14.9364 88.2013 14.8736C88.1436 14.8031 88.094 14.7077 88.0527 14.5875C88.0191 14.4661 87.9949 14.3551 87.9801 14.2546L87.9611 14.0442C87.9271 13.8123 87.871 13.5916 87.7928 13.3819C87.7794 13.3444 87.76 13.3196 87.7346 13.3076C87.7168 13.2944 87.6809 13.2918 87.6268 13.2997C87.5109 13.3167 87.4608 13.3794 87.4767 13.4876C87.4835 13.5339 87.503 13.5864 87.5353 13.6448C87.5753 13.7021 87.6015 13.7733 87.614 13.8583C87.6188 13.9444 87.6008 14.0102 87.5601 14.0557C87.5271 14.1 87.5231 14.2072 87.5481 14.3773C87.573 14.5473 87.5641 14.675 87.5214 14.7602C87.4338 14.9705 87.3763 15.1171 87.349 15.2C87.2439 15.4524 87.1755 15.6045 87.1436 15.6566C87.1184 15.6998 87.0811 15.7684 87.0317 15.8625C86.9824 15.9566 86.9297 16.0552 86.8737 16.1581C86.7245 16.4327 86.5509 16.6753 86.3528 16.886C86.0513 17.1987 85.8078 17.3687 85.6223 17.3959C85.5372 17.4084 85.4703 17.3827 85.4214 17.3188C85.3792 17.2461 85.331 17.2137 85.2769 17.2216L85.2653 17.2233C85.2057 17.2478 85.1744 17.3037 85.1715 17.391C85.1685 17.4783 85.1521 17.5281 85.1223 17.5404C85.0141 17.5563 84.8876 17.5551 84.7428 17.5369C84.5582 17.5166 84.4382 17.4789 84.3827 17.4239C84.3261 17.3611 84.2859 17.2486 84.2621 17.0863L84.2516 16.9338C84.2345 16.8179 84.199 16.7639 84.1449 16.7718C84.1062 16.7775 84.0627 16.8036 84.0142 16.8502C83.9658 16.8968 83.9261 16.9224 83.8952 16.9269C83.8102 16.9394 83.7313 16.8325 83.6587 16.6063C83.6441 16.5611 83.6146 16.4943 83.57 16.4061C83.3965 16.0842 83.2916 15.8271 83.2555 15.635C83.2183 15.4352 83.1946 15.3005 83.1844 15.2309C83.1379 14.914 83.1228 14.5964 83.1393 14.2781C83.1377 14.1599 83.1329 14.0462 83.1247 13.9368C83.1243 13.8263 83.1283 13.7191 83.1367 13.6152C83.1518 13.5025 83.1669 13.4174 83.1822 13.3598C83.219 13.1807 83.2361 13.0282 83.2334 12.9022C83.2317 12.7288 83.2648 12.5778 83.3328 12.4494C83.3997 12.3133 83.4263 12.1988 83.4127 12.106C83.3979 12.0056 83.4492 11.8164 83.5663 11.5387C83.6944 11.2277 83.8782 10.8928 84.1177 10.5339L84.3268 10.1834C84.6311 9.72813 84.9327 9.44303 85.2317 9.32808C85.5384 9.212 85.7613 9.14375 85.9005 9.12333C86.2097 9.07795 86.512 9.12043 86.8075 9.25078C86.9271 9.31219 87.0178 9.33836 87.0796 9.32928C87.1646 9.31681 87.1895 9.19076 87.1544 8.95114L87.0611 8.3963C87.0339 8.21079 87.0306 8.08098 87.0513 8.00687C87.0709 7.92504 87.0778 7.8648 87.0722 7.82615C87.0588 7.78863 87.0221 7.7269 86.9621 7.64095C86.9098 7.55387 86.857 7.32868 86.8037 6.96538C86.7504 6.60209 86.7265 6.2779 86.732 5.99283C86.7384 5.92872 86.7371 5.86575 86.728 5.80391C86.7189 5.74207 86.7032 5.6891 86.681 5.64499C86.6062 5.45856 86.5314 5.11026 86.4566 4.6001C86.4039 4.13405 86.3774 3.68392 86.3768 3.24971C86.384 2.81437 86.4293 2.53135 86.5128 2.40066C86.604 2.26883 86.7037 2.19497 86.8119 2.17909C86.8892 2.16774 86.9727 2.19891 87.0625 2.27259C87.2609 2.44088 87.4078 2.84967 87.5031 3.49896C87.2789 3.53186 87.1525 3.55831 87.1238 3.57831C87.1018 3.58944 87.0959 3.62979 87.1061 3.69936C87.1095 3.72255 87.1156 3.73744 87.1245 3.74403C87.1411 3.74949 87.1841 3.74712 87.2537 3.73691C87.416 3.71308 87.528 3.80325 87.5895 4.00742C87.6577 4.20272 87.6997 4.35447 87.7156 4.46269C87.7485 4.68685 87.7477 4.92385 87.7133 5.17368C87.6972 5.2787 87.693 5.35827 87.701 5.41238C87.7078 5.45875 87.7262 5.50343 87.7562 5.5464C87.8873 5.74036 87.9863 6.06536 88.0533 6.52141C88.0771 6.68374 88.0954 6.86265 88.1084 7.05816C88.1292 7.30778 88.151 7.50989 88.1737 7.66448C88.1895 7.7727 88.2059 7.85716 88.2227 7.91786C88.274 8.05246 88.3133 8.21251 88.3405 8.39802C88.3544 8.54602 88.3371 8.64332 88.2886 8.68991C88.2391 8.72877 88.2182 8.77525 88.2262 8.82936C88.233 8.87574 88.2724 8.92917 88.3445 8.98966C88.3699 9.00172 88.3921 9.01821 88.4109 9.03913C88.4366 9.10643 88.4685 9.21624 88.5067 9.36856C88.5713 9.80915 88.6268 10.1603 88.6731 10.422C88.7537 10.9708 88.8055 11.3777 88.8286 11.6428C88.8517 11.9079 88.8425 12.0869 88.8008 12.1799C88.7581 12.2651 88.6799 12.324 88.5662 12.3564C88.5055 12.3732 88.4614 12.3955 88.4339 12.4232C88.4052 12.4432 88.3949 12.4803 88.4028 12.5344C88.4119 12.5962 88.4435 12.6232 88.4976 12.6152C88.5208 12.6118 88.5411 12.5891 88.5586 12.5471C88.5839 12.5039 88.6622 12.4726 88.7936 12.4533C88.8488 12.4531 88.8931 12.4585 88.9262 12.4694C89.0017 12.5531 89.1381 13.2674 89.3355 14.6124C89.5284 15.9264 89.6031 16.6774 89.5596 16.8654C89.5137 16.9827 89.4719 17.0481 89.4344 17.0615L89.3781 17.0816C89.324 17.0895 89.2913 17.0548 89.28 16.9775C89.2777 16.9621 89.2727 16.9549 89.265 16.9561C89.2572 16.9572 89.2424 16.991 89.2206 17.0573C89.1967 17.1635 89.1345 17.2239 89.034 17.2387ZM84.96 16.2732C85.0218 16.2641 85.1078 16.2041 85.2179 16.0932C85.3918 15.9334 85.5672 15.7024 85.7439 15.4001C85.9283 15.0967 86.0724 14.7873 86.1762 14.472C86.315 14.0726 86.4254 13.7761 86.5076 13.5824C86.5569 13.4883 86.5983 13.3401 86.6318 13.1378C86.6423 12.9941 86.6928 12.7735 86.7834 12.476C86.8817 12.1773 86.928 12.0086 86.9223 11.97C86.9155 11.9236 86.9459 11.7809 87.0135 11.542C87.0877 11.2943 87.1163 11.1124 87.0992 10.9964C87.0756 10.8894 86.9973 10.7864 86.8644 10.6874C86.6039 10.473 86.4179 10.3621 86.3062 10.3548C86.2012 10.3386 86.1255 10.3339 86.0791 10.3408C85.9246 10.3634 85.7613 10.4348 85.5894 10.5548C85.4462 10.6548 85.2559 10.7301 85.0185 10.7807C84.7812 10.8313 84.6487 10.8705 84.6212 10.8982C84.6014 10.9248 84.5761 10.9404 84.5452 10.9449C84.5142 10.9495 84.4744 10.9474 84.4258 10.9387C84.3772 10.9301 84.3451 10.9269 84.3296 10.9292C84.313 10.9237 84.3009 10.9215 84.2932 10.9227C84.27 10.9261 84.2623 10.9548 84.2703 11.0089C84.2771 11.0553 84.3114 11.074 84.3733 11.0649L84.6034 11.0193C84.8508 10.983 84.9841 11.0305 85.0034 11.1619C85.017 11.2547 84.9334 11.3578 84.7527 11.4711C84.7086 11.4934 84.6933 11.5509 84.7069 11.6437L84.7154 11.7016C84.7381 11.8562 84.7277 12.0275 84.6843 12.2155C84.6397 12.3958 84.5783 12.543 84.5003 12.6571C84.4387 12.7214 84.3997 12.7784 84.3833 12.8282C84.3747 12.8769 84.3777 12.9514 84.3925 13.0519C84.4118 13.1833 84.4043 13.4016 84.3701 13.7066C84.3603 14.016 84.3582 14.1901 84.3638 14.2287L84.3958 14.3661L84.3829 14.4391C84.3599 14.4978 84.3614 14.616 84.3875 14.7938C84.4261 15.0566 84.4913 15.3392 84.583 15.6415C84.6514 15.8921 84.7161 16.0642 84.7773 16.1579C84.8373 16.2438 84.8982 16.2823 84.96 16.2732ZM87.3284 13.2843C87.3659 13.2709 87.3836 13.2565 87.3813 13.241C87.3722 13.1792 87.3206 13.1236 87.2265 13.0742C87.1856 13.0644 87.1497 13.0618 87.1188 13.0663C87.0681 13.0975 87.0478 13.1478 87.058 13.2174C87.0626 13.2483 87.0781 13.2736 87.1047 13.2934C87.1302 13.3055 87.1854 13.3053 87.2705 13.2928L87.3284 13.2843ZM92.6168 16.3101L92.5241 16.3237C92.4357 16.313 92.3605 16.3122 92.2987 16.3213C92.2291 16.3315 92.1568 16.35 92.0818 16.3768L92.0023 16.4003C91.9482 16.4083 91.9029 16.3952 91.8663 16.3611C91.812 16.3138 91.7284 16.2826 91.6157 16.2676C91.4697 16.2416 91.3871 16.1629 91.3678 16.0315C91.3599 15.9774 91.3641 15.9255 91.3805 15.8757C91.4035 15.817 91.4082 15.7413 91.3945 15.6486C91.331 15.2157 91.2742 14.9635 91.2243 14.8919L91.2089 14.7875C91.2076 14.7245 91.2123 14.6488 91.223 14.5604C91.2358 14.4322 91.2376 14.3372 91.2285 14.2753C91.2228 14.2367 91.1962 14.1893 91.1484 14.1331C91.0762 14.0174 91.0219 13.8358 90.9856 13.5885C90.9538 13.372 90.9483 13.2268 90.969 13.1527C90.9897 13.0786 90.9972 13.0222 90.9915 12.9835C90.9859 12.9449 90.9619 12.8892 90.9196 12.8164C90.8774 12.7437 90.8506 12.6686 90.8392 12.5913C90.8336 12.5527 90.8345 12.5052 90.842 12.4488C90.8495 12.3924 90.8493 12.3372 90.8414 12.2831C90.8334 12.229 90.815 12.1843 90.7862 12.1491C90.765 12.1127 90.7465 12.0404 90.7306 11.9322C90.7159 11.8317 90.7038 11.6953 90.6943 11.5229C90.688 11.3186 90.678 11.17 90.6644 11.0772C90.6442 10.9934 90.6129 10.915 90.5707 10.8423C90.5361 10.7684 90.5087 10.6619 90.4882 10.5227L90.3929 9.87344C90.3242 9.24393 90.3858 8.88351 90.5777 8.79217C90.7035 8.73424 90.7934 8.7013 90.8475 8.69336C90.9866 8.67294 91.1293 8.70333 91.2754 8.78453C91.4748 8.9053 91.606 9.12687 91.6691 9.44925C91.6872 9.57293 91.7076 9.68444 91.73 9.78379C91.7525 9.88314 91.7693 9.94384 91.7805 9.9659C91.7916 9.98795 91.7989 10.0106 91.8023 10.0338C91.8102 10.0879 91.8005 10.1564 91.7732 10.2394C91.7459 10.3223 91.7362 10.3909 91.7442 10.445C91.7487 10.4759 91.766 10.5129 91.796 10.5558C91.926 10.7421 92.0715 11.384 92.2326 12.4816C92.354 13.3087 92.4373 13.8492 92.4824 14.1031L92.62 14.9594C92.5804 15.0126 92.5381 15.0741 92.4931 15.1439C92.4469 15.2059 92.4266 15.2563 92.4323 15.2949C92.4391 15.3413 92.5005 15.356 92.6164 15.339C92.6705 15.331 92.7089 15.4043 92.7316 15.5589C92.76 15.7522 92.7552 15.9345 92.7172 16.1059C92.6812 16.2375 92.6478 16.3056 92.6168 16.3101ZM90.4247 7.34594C90.3474 7.35729 90.2723 7.35647 90.1993 7.34349C89.8563 7.21222 89.6661 7.01905 89.6286 6.76397L89.6181 6.61154C89.64 6.27668 89.864 6.0543 90.2901 5.94439C90.6379 5.89334 90.8767 5.9333 91.0065 6.06428C91.1351 6.18753 91.2057 6.29167 91.2181 6.3767C91.2352 6.49264 91.1936 6.61323 91.0936 6.73847C91.0188 6.82051 90.9677 6.90302 90.9404 6.98599C90.8671 7.18625 90.6952 7.30623 90.4247 7.34594ZM99.2348 15.9666C99.1111 15.9847 98.9889 15.9592 98.8682 15.8901C98.7718 15.8253 98.6998 15.7648 98.6521 15.7086C98.6109 15.6436 98.5763 15.5421 98.5481 15.4041C98.52 15.2661 98.4844 15.0502 98.4413 14.7565C98.4061 14.5168 98.3833 14.3346 98.3729 14.2098C98.3613 14.0773 98.356 13.9873 98.3569 13.9397C98.3644 13.8834 98.3808 13.8336 98.4061 13.7904C98.4302 13.7395 98.4394 13.6947 98.4337 13.6561C98.4303 13.6329 98.4236 13.6141 98.4136 13.5998C98.3691 13.5116 98.3283 13.3952 98.2913 13.2506C98.2497 13.075 98.2135 12.9896 98.1826 12.9941C98.1517 12.9986 98.1115 13.048 98.0622 13.1421L97.8135 13.5457C97.5794 13.888 97.4653 14.0785 97.4709 14.1172C97.4766 14.1558 97.3431 14.3491 97.0704 14.6971C96.8055 15.0439 96.6498 15.2207 96.6035 15.2276C96.5571 15.2344 96.5092 15.2848 96.4599 15.3789C96.3841 15.5085 96.2851 15.6138 96.1628 15.6949C96.0393 15.7683 95.9312 15.8118 95.8384 15.8255C95.7998 15.8311 95.7567 15.8335 95.7092 15.8326C95.6605 15.8239 95.6169 15.8224 95.5782 15.8281C95.5164 15.8372 95.432 15.8811 95.3252 15.96C95.226 16.0377 95.1069 16.0868 94.9678 16.1072C94.8441 16.1254 94.7087 16.1176 94.5616 16.0839C94.2675 16.0165 94.0686 15.872 93.965 15.6503C93.9359 15.5598 93.8554 15.4414 93.7233 15.2949C93.5979 15.1396 93.5261 15.0001 93.5079 14.8765C93.4966 14.7992 93.509 14.7223 93.5452 14.646C93.5691 14.5398 93.5771 14.4597 93.5691 14.4056C93.56 14.3437 93.5621 14.3039 93.5753 14.2862C93.5962 14.2674 93.6337 14.2539 93.6878 14.246C93.8192 14.2267 93.8798 14.1823 93.8696 14.1127C93.8617 14.0586 93.8041 14.0158 93.6968 13.9841C93.6559 13.9743 93.6238 13.9711 93.6006 13.9745C93.5774 13.9779 93.5624 13.9565 93.5556 13.9101C93.5375 13.7864 93.5989 13.5326 93.74 13.1487C93.9345 12.5911 94.1122 12.2413 94.2729 12.0992C94.3445 12.0492 94.4265 11.9622 94.5189 11.8381C94.5759 11.7429 94.6899 11.6314 94.8606 11.5037C95.0193 11.4014 95.1223 11.3231 95.1696 11.2688C95.2169 11.2145 95.3365 11.1417 95.5284 11.0503C95.7281 10.9579 95.9073 10.8881 96.0663 10.8411C96.2925 10.7684 96.4232 10.7176 96.4585 10.6888C96.571 10.6486 96.8089 10.6018 97.1722 10.5485L97.2882 10.5315C97.5819 10.4884 97.7485 10.4402 97.7881 10.387C97.8354 10.3327 97.8528 10.263 97.8403 10.178C97.8279 10.093 97.7926 9.9876 97.7347 9.86187C97.5896 9.46468 97.4382 9.18683 97.2807 9.02833C97.1221 8.86211 96.9074 8.77123 96.6367 8.75569C96.4764 8.73973 96.3426 8.71594 96.2353 8.68431C96.1346 8.64382 96.0329 8.62321 95.9301 8.6225C95.7733 8.62973 95.6666 8.60197 95.61 8.53921C95.5313 8.48758 95.4649 8.46574 95.4108 8.47368C95.3335 8.48502 95.2941 8.56583 95.2924 8.7161C95.3038 8.79339 95.3013 8.85693 95.2849 8.90672C95.2685 8.9565 95.2295 9.01355 95.1679 9.07786C95.0655 9.18764 95.0047 9.31106 94.9853 9.44814C94.9648 9.57749 94.9309 9.66932 94.8836 9.72364C94.8429 9.7691 94.7723 9.7992 94.6719 9.81395C94.5791 9.82756 94.535 9.84983 94.5395 9.88075L94.5749 10.0414C94.5954 10.1805 94.5283 10.2614 94.3737 10.2841C94.2887 10.2966 94.1875 10.2798 94.0702 10.2339C93.8179 10.1288 93.673 9.9487 93.6356 9.69362C93.6174 9.56995 93.6213 9.43514 93.6473 9.2892C93.6894 9.03823 93.7771 8.85559 93.9104 8.74128C94.0106 8.67129 94.0678 8.60368 94.0819 8.53843C94.1047 8.42455 94.2081 8.29488 94.392 8.14944C94.5826 7.99513 94.803 7.85618 95.0533 7.73258C95.3555 7.58558 95.6496 7.49109 95.9356 7.44912C97.01 7.29142 97.7912 7.58343 98.279 8.32513C98.3668 8.4386 98.4239 8.50522 98.4505 8.52501C98.5812 8.60847 98.7184 8.95156 98.8622 9.55426C99.0048 10.1492 99.1237 10.7714 99.219 11.4207L99.3197 12.1876C99.3855 12.6359 99.4427 12.9987 99.4913 13.2758C99.5752 13.8478 99.6329 14.3486 99.6644 14.7783C99.7036 15.2068 99.7118 15.478 99.6891 15.5919C99.6267 15.759 99.5432 15.8621 99.4384 15.9011C99.3413 15.9391 99.2734 15.9609 99.2348 15.9666ZM95.1219 14.8172C95.1915 14.807 95.2808 14.7702 95.39 14.7068C95.498 14.6357 95.6488 14.4794 95.8423 14.2378C96.0435 13.995 96.2315 13.7424 96.4062 13.4799C96.5886 13.2162 96.6983 13.0224 96.7354 12.8985C96.7725 12.7747 96.8272 12.6363 96.8995 12.4836C96.971 12.3784 97.0296 12.2671 97.0756 12.1498C97.1281 12.0236 97.1516 11.9412 97.1459 11.9026C97.1414 11.8717 97.0889 11.8636 96.9884 11.8783C96.5091 11.9487 96.0752 12.1663 95.6866 12.5313C95.4917 12.71 95.3498 12.8729 95.2609 13.0202C95.0339 13.4641 94.8981 13.7762 94.8535 13.9565C94.8077 14.129 94.7939 14.2771 94.8121 14.4008C94.8234 14.4781 94.8458 14.5498 94.8792 14.616C94.9217 14.744 94.9634 14.8129 95.0043 14.8227C95.0518 14.8236 95.091 14.8218 95.1219 14.8172Z" fill="#333333"/>
</svg>
