<svg width="76" height="43" viewBox="0 0 76 43" fill="none" xmlns="http://www.w3.org/2000/svg">
<path d="M7.65805 31.9334C7.25224 31.993 6.93811 32.0103 6.71566 31.9854C6.24822 31.9389 5.86418 31.7937 5.56356 31.5499C5.47307 31.4826 5.3907 31.4314 5.31644 31.3962C5.25181 31.3481 5.20822 31.3257 5.18568 31.329C5.06168 31.3472 4.85252 31.2167 4.5582 30.9375C4.2735 30.6453 4.00157 30.3225 3.74242 29.969C3.4816 29.6043 3.33548 29.3148 3.30405 29.1006C3.27923 28.9315 3.20617 28.7868 3.08486 28.6664C2.82767 28.4048 2.6147 27.6991 2.44594 26.5493C2.34306 25.7698 2.54524 25.3429 3.05251 25.2684C3.36813 25.2221 3.62771 25.2646 3.83123 25.3959C4.00259 25.5435 4.20021 26.0269 4.42409 26.8462C4.56452 27.3323 4.66721 27.6396 4.73215 27.7683C4.7759 27.831 4.81845 28.0032 4.85981 28.285L4.90448 28.5894C4.92103 28.7021 4.98416 28.7792 5.09389 28.8207C5.24405 28.9023 5.40331 29.0459 5.57167 29.2515C5.66712 29.3526 5.77467 29.4577 5.89432 29.5668C6.02524 29.6743 6.14076 29.7552 6.24087 29.8096C6.39102 29.8912 6.58245 30.0186 6.81513 30.1917C7.00738 30.3247 7.14296 30.3854 7.22187 30.3738C7.2895 30.3639 7.34819 30.3322 7.39794 30.2789C7.45895 30.2239 7.52726 30.1793 7.60286 30.1452C7.68973 30.1094 7.76135 30.0874 7.81771 30.0791C7.9868 30.0543 8.10898 29.9845 8.18427 29.8698C8.25791 29.7439 8.371 29.6121 8.52354 29.4746C8.7613 29.29 9.03112 28.8531 9.33301 28.1639L9.75 27.2391C9.87142 26.9679 9.89738 26.5956 9.82789 26.1222C9.72697 25.4346 9.48266 24.7507 9.09496 24.0706C8.70561 23.3793 8.34837 22.8675 8.02323 22.5352C7.70771 22.19 7.15418 21.753 6.36264 21.2244C6.09118 21.0224 5.95379 20.9101 5.95048 20.8876C5.94552 20.8538 5.91801 20.8232 5.86796 20.796C5.8179 20.7688 5.76304 20.7481 5.70337 20.7338C5.64204 20.7083 5.54276 20.6595 5.40553 20.5875C5.26664 20.5043 5.12047 20.4106 4.967 20.3065C4.6309 20.0564 4.38544 19.9139 4.23063 19.8791C4.08543 19.8313 3.8892 19.7104 3.64193 19.5164C3.40428 19.3094 3.17543 19.0839 2.95536 18.8399C2.73529 18.5958 2.57655 18.3773 2.47914 18.1843C2.39299 17.9897 2.29175 17.8491 2.17541 17.7625C1.74686 17.3533 1.46971 16.7203 1.34397 15.8636C1.23116 15.0165 1.2682 14.1705 1.45509 13.3254C1.6516 12.4675 1.98828 11.8193 2.46515 11.3808C2.60807 11.2562 2.77339 11.088 2.96109 10.8762C3.44892 10.3555 4.07046 10.0397 4.82571 9.92888C5.8966 9.77171 6.7595 10.002 7.41443 10.6199C7.64577 10.8623 7.82923 11.0138 7.96481 11.0745C8.11 11.1223 8.25385 11.2394 8.39636 11.4258C8.44341 11.511 8.49527 11.5897 8.55194 11.662C8.60696 11.723 8.65303 11.7623 8.69016 11.7799C8.93277 12.0207 9.27191 12.6445 9.70759 13.6515C9.90769 14.1518 10.0293 14.5486 10.0723 14.8416C10.1169 15.146 10.0937 15.3797 10.0024 15.5428C9.90958 15.6946 9.67963 15.8147 9.3126 15.9031C9.13224 15.9296 8.95886 15.886 8.79247 15.7722C8.62442 15.6472 8.52881 15.5058 8.50565 15.3479C8.4891 15.2352 8.42416 15.1066 8.31082 14.962C8.1892 14.761 8.10306 14.5664 8.05239 14.3781C8.00172 14.1898 7.94324 14.0659 7.87695 14.0066C7.81066 13.9472 7.6786 13.7535 7.48077 13.4256C7.39163 13.289 7.30978 13.1628 7.23522 13.0471C7.17027 12.9184 7.13532 12.8372 7.13036 12.8034C7.11216 12.6794 6.98672 12.5308 6.75403 12.3577C6.52135 12.1846 6.26379 12.0381 5.98136 11.9184C5.70855 11.7857 5.49241 11.7253 5.33294 11.7372C4.63736 11.8623 4.09834 12.2696 3.71589 12.9591C3.33179 13.6373 3.14547 14.2116 3.15694 14.682C3.16841 15.1525 3.18325 15.4497 3.20145 15.5737C3.2941 16.205 3.55553 16.7308 3.98573 17.1513C4.10208 17.2379 4.17814 17.3246 4.21392 17.4115C4.25601 17.4629 4.3498 17.5528 4.49531 17.6811C4.65043 17.7965 4.83058 17.9255 5.03576 18.0682C5.24093 18.2108 5.45904 18.363 5.69007 18.5249C6.15544 18.8711 6.50762 19.1131 6.74661 19.2507C6.91301 19.3645 7.0519 19.4477 7.16327 19.5005C7.51199 19.6796 7.9966 20 8.61709 20.4616C8.85143 20.646 8.97108 20.7551 8.97604 20.789C8.98101 20.8228 9.08458 20.94 9.28675 21.1406C9.49358 21.2945 9.63759 21.4519 9.71877 21.6127C9.87751 21.8312 10.0102 21.9902 10.117 22.0897C10.2916 22.2598 10.4351 22.4921 10.5474 22.7865C10.5994 22.9056 10.6515 23.0246 10.7035 23.1436C10.7651 23.2498 10.8105 23.3237 10.8397 23.3655C11.2072 23.8297 11.4687 24.5916 11.6243 25.6513C11.6855 26.0683 11.7006 26.4461 11.6697 26.7846C11.6464 27.0183 11.6334 27.2045 11.6307 27.3431C11.6157 27.6331 11.5061 28.0235 11.3017 28.5141C11.107 28.9918 10.8839 29.4333 10.6325 29.8387C10.3923 30.2424 10.2046 30.4542 10.0693 30.4741C9.94535 30.4923 9.83691 30.5773 9.74404 30.7291C9.65117 30.8809 9.50892 30.9709 9.31729 30.999C9.13693 31.0255 9.02353 31.0767 8.97709 31.1526C8.929 31.2172 8.8471 31.2868 8.73137 31.3614C8.6687 31.4051 8.63902 31.4383 8.64233 31.4608L8.66172 31.4752C8.75686 31.4958 8.80692 31.523 8.81188 31.5568C8.82346 31.6357 8.63446 31.721 8.24489 31.8128C8.06784 31.8618 7.87223 31.902 7.65805 31.9334ZM17.9491 40.735C17.8025 40.7565 17.626 40.7306 17.4195 40.6573C17.1871 40.5647 17.0086 40.4469 16.884 40.304C16.7723 40.1707 16.6737 39.8915 16.5883 39.4665C16.5029 39.0414 16.3842 38.3507 16.2323 37.3942C16.0652 36.2557 15.8953 35.2154 15.7225 34.2735L15.2086 31.3607C15.1292 30.8196 15.095 30.508 15.106 30.4258C15.1282 30.3419 15.1343 30.2661 15.1244 30.1985C15.1178 30.1534 15.0999 30.11 15.0707 30.0682C14.9915 29.9992 14.7151 28.5083 14.2415 25.5953L14.182 25.1895C14.1092 24.6935 14.0503 24.2531 14.0053 23.8681L13.9552 23.4091C13.9072 23.0822 13.8735 22.8914 13.8539 22.8367C13.789 22.7081 13.735 22.4972 13.692 22.2041C13.6357 21.8208 13.6155 21.369 13.6312 20.8485C13.6339 20.7099 13.6303 20.6068 13.6203 20.5391C13.5991 20.4732 13.5675 20.4145 13.5254 20.3631C13.4542 20.2699 13.4086 20.1557 13.3888 20.0204C13.3424 19.7048 13.4241 19.3588 13.6337 18.9826C13.7617 18.7566 13.9103 18.6311 14.0794 18.6063C14.6543 18.5219 15.0556 18.9812 15.2835 19.9841L15.5288 20.95C15.5696 21.0706 15.6125 21.1277 15.6576 21.1211C15.7703 21.1045 15.8778 20.9736 15.9799 20.7283C16.0118 20.6315 16.0228 20.5493 16.0128 20.4816C15.9946 20.3576 15.9983 20.265 16.0239 20.2037C16.0494 20.1423 16.1096 20.0817 16.2044 20.0217C16.3056 19.9262 16.3855 19.7648 16.4443 19.5374C16.4791 19.3826 16.5198 19.2672 16.5662 19.1913C16.6239 19.1138 16.7058 19.0442 16.8119 18.9825C16.979 18.8659 17.0689 18.7721 17.0815 18.7011C17.0941 18.6302 17.1752 18.555 17.3248 18.4754L17.8192 18.1956C17.9767 18.0919 18.0892 18.035 18.1569 18.0251C18.2696 18.0086 18.4574 18.0328 18.7203 18.0979C19.0654 18.1739 19.2782 18.2118 19.3588 18.2114C19.5103 18.2238 19.6653 18.2989 19.8237 18.4368C19.9934 18.5732 20.1148 18.7338 20.1881 18.9188C20.2709 19.0909 20.373 19.2371 20.4943 19.3575C20.6252 19.465 20.7508 19.6538 20.8711 19.9241C20.9913 20.1943 21.0924 20.4904 21.1742 20.8123C21.199 20.9814 21.2551 21.1286 21.3426 21.2539C21.3605 21.2974 21.3885 21.4487 21.4265 21.708C21.4759 21.9656 21.5245 22.2579 21.5725 22.5848C21.674 23.4335 21.7129 23.8942 21.689 23.9668C21.6651 24.0394 21.6634 24.2239 21.6838 24.5203C21.6966 24.9214 21.6067 25.4068 21.4139 25.9763C21.3326 26.207 21.2598 26.3386 21.1955 26.3711C21.1424 26.4019 21.1192 26.4398 21.1258 26.4849C21.1291 26.5075 21.1445 26.534 21.172 26.5645C21.24 26.6351 21.2806 26.7155 21.2938 26.8057C21.3517 27.2003 21.0255 27.8412 20.3151 28.7285C19.8581 29.3022 19.173 29.6561 18.26 29.7901C17.9669 29.8331 17.6471 29.8513 17.3007 29.8446L17.1629 29.8475C17.0727 29.8607 17.0157 29.9037 16.9918 29.9763C16.9775 30.0359 16.9812 30.139 17.0027 30.2856L17.1581 31.1091C17.1862 31.3008 17.1812 31.4627 17.143 31.595C17.1161 31.7256 17.1068 31.8191 17.1151 31.8755C17.1234 31.9318 17.164 32.0122 17.2369 32.1167C17.3211 32.2195 17.3969 32.4617 17.4644 32.8433L17.7266 34.3939L18.0115 36.2176C18.0545 36.5107 18.0624 36.6822 18.0352 36.7323C18.0097 36.7936 17.9865 36.8316 17.9656 36.8461C17.9576 36.8703 17.9488 36.8889 17.9392 36.9018C17.8702 36.981 17.8374 37.0319 17.8407 37.0545C17.8423 37.0657 17.8657 37.0681 17.9108 37.0615C17.9559 37.0548 18.0076 37.0933 18.0659 37.1769C18.1259 37.2717 18.1658 37.3868 18.1857 37.522C18.275 38.1307 18.3897 38.6378 18.5299 39.0433C18.5723 39.1753 18.6026 39.3033 18.6208 39.4273C18.6803 39.8331 18.6196 40.1644 18.4385 40.4213C18.3151 40.6006 18.152 40.7052 17.9491 40.735ZM17.9626 27.8819C18.143 27.8555 18.3376 27.7693 18.5465 27.6235C19.4146 27.1046 19.7999 25.885 19.7023 23.9647C19.6848 23.6103 19.6741 23.3413 19.6702 23.1576C19.6663 22.9739 19.6641 22.8418 19.6638 22.7613C19.6731 22.6678 19.6866 22.6025 19.7042 22.5653C19.7201 22.5169 19.7247 22.4702 19.7181 22.4251C19.7032 22.3237 19.665 22.2199 19.6033 22.1138C19.4947 21.9225 19.4034 21.6537 19.3296 21.3076C19.2541 20.9502 19.1613 20.7105 19.0513 20.5884L18.7356 20.2029C18.6385 20.0905 18.5167 20.0451 18.3701 20.0666C18.0545 20.1129 17.8353 20.3063 17.7125 20.6467L17.3294 21.5666C17.1217 22.0347 17.027 22.3307 17.0452 22.4547C17.0617 22.5674 17.0196 22.7118 16.9187 22.8878C16.8179 23.0638 16.7724 23.1856 16.7824 23.2533L16.7923 23.3209C16.7989 23.366 16.7936 23.4474 16.7763 23.5651C16.759 23.6828 16.7313 23.8077 16.6932 23.94C16.655 24.0723 16.6127 24.1764 16.5663 24.2523C16.5294 24.3153 16.5226 24.4257 16.5458 24.5835L16.5582 24.668C16.5764 24.792 16.5792 24.8895 16.5666 24.9604C16.5539 25.0314 16.5131 25.1064 16.4442 25.1857C16.3752 25.2649 16.3118 25.3433 16.2541 25.4208C16.4113 26.4917 16.5152 27.1213 16.5659 27.3096C16.6149 27.4867 16.679 27.6097 16.7582 27.6787C16.8487 27.746 16.9714 27.7971 17.1262 27.832C17.4584 27.8984 17.6752 27.9241 17.7766 27.9092L17.9626 27.8819ZM27.6486 28.9131C27.5246 28.9313 27.423 28.9059 27.3438 28.8369C27.2662 28.7792 27.2233 28.7221 27.2151 28.6658C27.2051 28.5982 27.1663 28.5693 27.0987 28.5792C26.9973 28.5941 26.8759 28.6695 26.7346 28.8054C26.6511 28.8637 26.5529 28.9012 26.4402 28.9177C26.2373 28.9475 25.9769 28.8993 25.659 28.7733C25.1087 28.5546 24.6618 28.1769 24.3181 27.64C23.7043 26.8319 23.3305 25.9713 23.1964 25.0583C23.1534 24.7652 23.15 24.5066 23.1862 24.2825C23.2224 24.0584 23.2356 23.9125 23.2256 23.8449C23.219 23.7998 23.2011 23.7564 23.172 23.7146C23.0878 23.6118 23.0333 23.4758 23.0085 23.3068C22.982 23.1264 22.9638 23.0024 22.9539 22.9348C22.8662 22.3373 22.8652 21.8596 22.9508 21.5016C23.0491 21.0726 23.1106 20.7469 23.1356 20.5244C23.1877 20.2519 23.2801 19.9793 23.4128 19.7065C23.5568 19.432 23.655 19.1988 23.7074 19.0068C23.7598 18.8149 23.8935 18.588 24.1084 18.3262L24.4188 17.9697C24.6931 17.6416 24.9274 17.3941 25.1217 17.2274C25.5859 16.8599 25.8913 16.6654 26.0379 16.6439C26.1844 16.6224 26.3308 16.5606 26.477 16.4585C26.5719 16.3985 26.6587 16.3627 26.7377 16.3512C26.794 16.3429 26.852 16.3459 26.9117 16.3602C27.0778 16.3934 27.2696 16.4055 27.4871 16.3966C27.7158 16.3861 27.8875 16.4185 28.0022 16.4937C28.1265 16.5561 28.2762 16.7126 28.4512 16.9633C28.7362 17.336 28.8952 17.6351 28.9283 17.8606C28.9465 17.9846 28.9276 18.091 28.8715 18.1798C28.8138 18.2574 28.7899 18.33 28.7999 18.3976L28.8267 18.4628C28.8834 18.5351 28.9175 18.6107 28.9291 18.6896C28.9473 18.8136 28.8988 18.9934 28.7837 19.2291C28.6958 19.4147 28.6449 19.5776 28.6309 19.7179C28.6169 19.8581 28.5635 20.0041 28.4706 20.1559C28.389 20.3061 28.3043 20.474 28.2164 20.6596C28.1381 20.8323 28.001 20.9964 27.805 21.1518C27.6186 21.2943 27.4631 21.4899 27.3384 21.7385C27.2136 21.9871 27.1287 22.1147 27.0836 22.1214C27.0385 22.128 26.9744 22.2007 26.8911 22.3396C26.848 22.4381 26.7982 22.4914 26.7419 22.4997C26.7193 22.503 26.6549 22.4952 26.5484 22.4763C26.4516 22.4444 26.3694 22.4335 26.3018 22.4434C26.2567 22.45 26.2181 22.4614 26.1859 22.4777C26.046 22.5443 25.9851 22.6396 26.0033 22.7636C26.0116 22.8199 26.036 22.8682 26.0764 22.9083C26.1281 22.9468 26.1564 22.9829 26.1614 23.0167C26.1713 23.0844 26.1314 23.1651 26.0415 23.2589C25.9019 23.406 25.6696 23.5495 25.3446 23.6893C25.0986 23.8176 25.0103 24.1184 25.0798 24.5918C25.1477 25.054 25.3146 25.5247 25.5807 26.0038C25.8581 26.4813 26.1767 26.8088 26.5367 26.9862C26.6948 27.0436 26.9092 27.0525 27.1797 27.0128C27.3488 26.988 27.4985 26.9487 27.6288 26.895C27.8026 26.8235 27.8853 26.7595 27.877 26.7032C27.8687 26.6468 27.9521 26.5482 28.1272 26.4073C28.3119 26.2536 28.4018 26.1598 28.3968 26.1259C28.3919 26.0921 28.4216 26.059 28.4859 26.0265C28.5598 25.9811 28.6008 25.9463 28.6088 25.9221C28.6071 25.9108 28.5925 25.8899 28.565 25.8594C28.5375 25.8289 28.5213 25.7968 28.5163 25.763C28.5014 25.6615 28.5636 25.4969 28.7029 25.2692L28.9791 24.7968C29.203 24.3609 29.3623 24.113 29.4572 24.053C29.552 23.993 29.6276 23.9589 29.684 23.9506C29.8192 23.9308 29.9901 23.9575 30.1966 24.0309C30.4032 24.1042 30.5542 24.1914 30.6496 24.2926C30.7451 24.3937 30.8085 24.5514 30.8399 24.7655C30.8723 25.2214 30.6981 25.7997 30.3173 26.5004C29.9478 27.1995 29.5244 27.728 29.0473 28.086L28.5916 28.3947C28.1997 28.7055 27.8853 28.8783 27.6486 28.9131ZM24.9722 21.7403C25.0173 21.7337 25.1475 21.6398 25.3627 21.4585C25.5971 21.2513 25.7424 21.1034 25.7984 21.0145C25.8528 20.9144 25.9066 20.849 25.9596 20.8181C26.0239 20.7857 26.1125 20.7612 26.2252 20.7446C26.5408 20.6983 26.6854 20.5849 26.6589 20.4046C26.6507 20.3482 26.6255 20.2943 26.5834 20.2429C26.5526 20.1899 26.5339 20.1408 26.5272 20.0957C26.5223 20.0619 26.5598 19.9643 26.6397 19.8029C26.8205 19.4654 26.9145 19.204 26.9219 19.0187C26.9389 18.8204 26.9424 18.6875 26.9324 18.6199C26.9027 18.417 26.8201 18.3254 26.6849 18.3453C26.5834 18.3602 26.4558 18.471 26.3019 18.6779C26.217 18.8055 26.0959 18.9614 25.9387 19.1457C25.7109 19.398 25.4558 19.896 25.1734 20.6399C24.9724 21.153 24.8851 21.4998 24.9116 21.6801C24.9182 21.7252 24.9384 21.7453 24.9722 21.7403ZM39.684 27.4748C39.5037 27.5013 39.3255 27.4641 39.1495 27.3633C39.0089 27.2687 38.9039 27.1805 38.8343 27.0986C38.7743 27.0038 38.7238 26.8557 38.6827 26.6545C38.6417 26.4532 38.5897 26.1384 38.5268 25.7101C38.4756 25.3606 38.4423 25.0949 38.4271 24.9129C38.4103 24.7196 38.4025 24.5883 38.4039 24.519C38.4148 24.4368 38.4387 24.3642 38.4755 24.3012C38.5107 24.227 38.5241 24.1617 38.5159 24.1053C38.5109 24.0715 38.5011 24.0441 38.4865 24.0233C38.4216 23.8946 38.3621 23.7248 38.3082 23.514C38.2476 23.258 38.1947 23.1333 38.1496 23.14C38.1045 23.1466 38.046 23.2185 37.974 23.3557L37.6113 23.9444C37.27 24.4436 37.1035 24.7214 37.1118 24.7778C37.1201 24.8341 36.9254 25.116 36.5277 25.6235C36.1414 26.1293 35.9144 26.3872 35.8467 26.3971C35.7791 26.407 35.7093 26.4806 35.6373 26.6178C35.5269 26.8068 35.3824 26.9604 35.204 27.0787C35.024 27.1857 34.8663 27.2492 34.7311 27.269C34.6747 27.2773 34.6119 27.2808 34.5426 27.2794C34.4716 27.2668 34.408 27.2646 34.3516 27.2729C34.2614 27.2861 34.1384 27.3502 33.9826 27.4652C33.838 27.5786 33.6643 27.6501 33.4613 27.6799C33.281 27.7064 33.0836 27.6951 32.8691 27.6459C32.4401 27.5477 32.1501 27.3369 31.999 27.0136C31.9566 26.8817 31.8391 26.7089 31.6466 26.4954C31.4636 26.2689 31.3589 26.0654 31.3324 25.8851C31.3159 25.7724 31.334 25.6603 31.3867 25.5489C31.4216 25.3941 31.4332 25.2773 31.4217 25.1983C31.4084 25.1082 31.4114 25.0502 31.4307 25.0243C31.4612 24.9968 31.5159 24.9772 31.5948 24.9657C31.7864 24.9375 31.8748 24.8727 31.8599 24.7713C31.8483 24.6924 31.7643 24.6299 31.6078 24.5837C31.5481 24.5695 31.5014 24.5648 31.4676 24.5698C31.4338 24.5747 31.4119 24.5434 31.402 24.4758C31.3755 24.2954 31.4651 23.9253 31.6708 23.3654C31.9545 22.5522 32.2136 22.0421 32.448 21.8349C32.5525 21.762 32.672 21.6351 32.8067 21.4541C32.8899 21.3152 33.0561 21.1527 33.3051 20.9664C33.5366 20.8173 33.6868 20.7031 33.7558 20.6239C33.8247 20.5447 33.9991 20.4385 34.279 20.3053C34.5701 20.1704 34.8316 20.0687 35.0633 20.0002C35.3932 19.8942 35.5839 19.8201 35.6353 19.778C35.7994 19.7194 36.1464 19.6512 36.6762 19.5735L36.8452 19.5486C37.2736 19.4858 37.5166 19.4155 37.5743 19.338C37.6433 19.2588 37.6687 19.1572 37.6505 19.0332C37.6323 18.9092 37.581 18.7555 37.4965 18.5721C37.2848 17.9929 37.0641 17.5877 36.8344 17.3566C36.6031 17.1141 36.29 16.9816 35.8951 16.959C35.6614 16.9357 35.4663 16.901 35.3099 16.8549C35.163 16.7958 35.0147 16.7658 34.8648 16.7647C34.6361 16.7753 34.4804 16.7348 34.3979 16.6432C34.2832 16.568 34.1864 16.5361 34.1075 16.5477C33.9948 16.5642 33.9372 16.6821 33.9348 16.9012C33.9514 17.0139 33.9477 17.1066 33.9238 17.1792C33.8999 17.2518 33.843 17.335 33.7532 17.4288C33.6039 17.5889 33.5152 17.7689 33.487 17.9688C33.4571 18.1574 33.4076 18.2913 33.3387 18.3705C33.2793 18.4368 33.1763 18.4807 33.0298 18.5022C32.8945 18.5221 32.8302 18.5546 32.8368 18.5997L32.8885 18.8339C32.9183 19.0368 32.8204 19.1548 32.595 19.1879C32.471 19.2061 32.3235 19.1817 32.1524 19.1147C31.7844 18.9614 31.5732 18.6988 31.5186 18.3268C31.4921 18.1464 31.4978 17.9498 31.5357 17.737C31.5971 17.371 31.725 17.1046 31.9193 16.9379C32.0655 16.8359 32.1489 16.7373 32.1695 16.6421C32.2027 16.476 32.3534 16.2869 32.6217 16.0748C32.8996 15.8498 33.2211 15.6472 33.5861 15.4669C34.0268 15.2525 34.4557 15.1147 34.8728 15.0535C36.4396 14.8236 37.5788 15.2494 38.2903 16.3311C38.4182 16.4965 38.5016 16.5937 38.5404 16.6225C38.7309 16.7443 38.931 17.2446 39.1407 18.1235C39.3486 18.9912 39.5221 19.8985 39.6611 20.8454L39.8079 21.9638C39.9039 22.6176 39.9873 23.1466 40.0581 23.5508C40.1806 24.3849 40.2647 25.1153 40.3106 25.7419C40.3678 26.3669 40.3798 26.7624 40.3466 26.9285C40.2557 27.1721 40.1338 27.3224 39.981 27.3794C39.8394 27.4347 39.7404 27.4665 39.684 27.4748ZM33.6862 25.7987C33.7876 25.7838 33.9179 25.7302 34.0771 25.6377C34.2346 25.534 34.4545 25.306 34.7367 24.9536C35.0302 24.5996 35.3043 24.2312 35.559 23.8484C35.825 23.4639 35.9851 23.1813 36.0391 23.0006C36.0932 22.82 36.173 22.6182 36.2785 22.3955C36.3827 22.242 36.4682 22.0798 36.5353 21.9087C36.6119 21.7247 36.6461 21.6046 36.6378 21.5482C36.6312 21.5031 36.5546 21.4913 36.4081 21.5128C35.7092 21.6154 35.0764 21.9328 34.5096 22.4651C34.2254 22.7256 34.0185 22.9632 33.8888 23.178C33.5578 23.8254 33.3597 24.2806 33.2946 24.5434C33.2279 24.7951 33.2078 25.011 33.2343 25.1914C33.2508 25.3041 33.2835 25.4087 33.3322 25.5052C33.3941 25.6919 33.4549 25.7924 33.5146 25.8066C33.5839 25.808 33.6411 25.8053 33.6862 25.7987ZM49.962 25.949C49.8381 25.9672 49.6995 25.9645 49.5463 25.941C49.3239 25.916 49.0259 25.7295 48.6523 25.3812C48.4939 25.2433 48.4081 25.1292 48.3948 25.039C48.3915 25.0165 48.393 24.9875 48.3993 24.952C48.404 24.9053 48.403 24.8594 48.3964 24.8143C48.3716 24.6452 48.3028 24.5689 48.1901 24.5854C48.0886 24.6003 47.9603 24.5501 47.8052 24.4347C47.6501 24.3192 47.4884 24.1587 47.32 23.9531C47.1629 23.7459 47.0181 23.5829 46.8855 23.4642C46.7625 23.3325 46.6911 23.1991 46.6713 23.0638C46.658 22.9736 46.6377 22.9133 46.6102 22.8828C46.5939 22.8506 46.5512 22.8338 46.4819 22.8325C46.4239 22.8295 46.3156 22.759 46.1572 22.6211C46.01 22.4814 45.8621 22.3362 45.7132 22.1853C45.574 22.0215 45.4987 21.9001 45.4871 21.8212C45.4656 21.6747 45.4072 21.5911 45.3121 21.5705C45.2282 21.5483 45.1187 21.5471 44.9834 21.567C44.4198 21.6497 44.1537 21.7981 44.1851 22.0123C44.1934 22.0687 44.2258 22.133 44.2825 22.2053C44.3766 22.3757 44.4541 22.6292 44.515 22.9657C44.6474 23.8675 44.7298 24.5463 44.7621 25.0022C44.7981 25.5612 44.7826 25.9262 44.7156 26.0972C44.6068 26.2974 44.4799 26.4139 44.335 26.4467L44.0814 26.484C43.8334 26.5203 43.6133 26.472 43.421 26.3391C43.1883 26.1659 43.0367 25.9176 42.9662 25.594L42.8173 24.5795C42.7809 24.3315 42.7459 24.0142 42.7122 23.6276C42.6774 23.3909 42.6077 23.0729 42.5031 22.6737L42.4832 22.5385C42.4276 22.3163 42.3907 22.1433 42.3725 22.0193C42.3576 21.9178 42.3798 21.8339 42.4392 21.7676C42.5082 21.6884 42.5344 21.5925 42.5178 21.4797C42.5046 21.3896 42.4551 21.2874 42.3692 21.1734C42.3271 21.122 42.2774 20.9796 42.2202 20.7461C42.1907 20.6238 42.0957 20.0159 41.9352 18.9225L41.7178 17.6762C41.6814 17.4282 41.6728 17.2913 41.692 17.2654C41.7096 17.2283 41.7401 17.2008 41.7835 17.1829C41.827 17.165 41.8454 17.1335 41.8388 17.0884C41.8338 17.0546 41.7989 16.9734 41.7339 16.8447C41.6802 16.7144 41.6426 16.576 41.6211 16.4295L41.5963 16.2604C41.5715 16.0913 41.5185 15.9263 41.4373 15.7655C41.3658 15.5918 41.3209 15.4429 41.3027 15.3189C41.2911 15.24 41.2908 15.1594 41.3018 15.0772C41.324 14.9934 41.3302 14.9176 41.3202 14.85C41.312 14.7936 41.2932 14.7445 41.2641 14.7028C41.1829 14.5419 40.9041 12.8383 40.4276 9.59183C40.2108 8.11514 40.1167 7.31712 40.1453 7.19778C40.1741 7.159 40.1853 7.11706 40.1786 7.07197C40.172 7.02688 40.1404 6.96819 40.0837 6.8959C40.0254 6.81234 39.9846 6.69165 39.9615 6.53384C39.9135 6.20694 39.909 5.86215 39.9479 5.49946C39.9991 4.98528 40.2276 4.6984 40.6334 4.63884C41.0279 4.58094 41.3502 4.81575 41.6004 5.34328C41.6491 5.43977 41.6965 5.60555 41.7425 5.84062C41.7998 6.07403 41.8738 6.46045 41.9645 6.99987C42.1382 8.18348 42.4008 9.85496 42.7522 12.0143C42.8711 12.7454 42.9427 13.1552 42.9672 13.2437L43.004 13.3765C43.0172 13.4666 43.0063 13.5489 42.9711 13.6231C42.92 13.7458 42.8293 13.8339 42.699 13.8876C42.5687 13.9413 42.5052 13.9794 42.5085 14.0019C42.5184 14.0696 42.5549 14.1218 42.6179 14.1586C42.6808 14.1954 42.7574 14.2072 42.8476 14.194C42.9491 14.1791 43.0218 14.2433 43.0659 14.3865C43.1212 14.5281 43.2023 14.8847 43.3092 15.4562C43.481 16.548 43.5887 17.1252 43.6325 17.1879C43.6875 17.2489 43.7263 17.2778 43.7488 17.2745C43.8277 17.2629 43.9395 17.0047 44.0842 16.4998C44.2259 16.0529 44.4772 15.6072 44.838 15.1628C44.9839 14.9801 45.0851 14.8847 45.1414 14.8764C45.2091 14.8665 45.3198 14.7581 45.4737 14.5513C45.9546 13.9049 46.4656 13.5421 47.0067 13.4626C47.1758 13.4378 47.349 13.4412 47.5263 13.4727C48.5938 13.6845 49.2161 14.3935 49.3931 15.5997C49.4791 16.1859 49.372 16.8292 49.0718 17.5296C48.9922 17.7716 48.95 17.916 48.9454 17.9627C48.9105 18.1175 48.8402 18.266 48.7344 18.4082C48.5775 18.6731 48.4775 18.8547 48.4344 18.9532C48.3912 19.0516 48.3128 19.184 48.199 19.3504C48.0836 19.5056 47.9674 19.655 47.8503 19.7989C47.7316 19.9315 47.6553 20.0002 47.6215 20.0052C47.2608 20.0582 47.1019 20.2312 47.1449 20.5243C47.1879 20.8173 47.4245 21.1741 47.8548 21.5946C48.0844 21.8258 48.2318 22.0057 48.2967 22.1343C48.4312 22.3449 48.5761 22.5079 48.7312 22.6233C48.938 22.7772 49.438 23.3199 50.2311 24.2513C50.4578 24.5405 50.5885 24.8034 50.6232 25.0402C50.648 25.2093 50.6301 25.3616 50.5694 25.4972C50.4688 25.7537 50.2664 25.9044 49.962 25.949ZM44.9218 19.3823C45.0346 19.3658 45.2461 19.2772 45.5565 19.1165C45.7173 19.0353 45.8491 18.9526 45.9519 18.8684C46.2619 18.6272 46.5853 18.2803 46.9219 17.8279C47.1769 17.5256 47.4566 17.3521 47.761 17.3074C47.8399 17.2958 47.8873 17.2659 47.9032 17.2175C47.9288 17.1561 47.9399 17.1142 47.9366 17.0917C47.93 17.0466 47.9073 17.0096 47.8685 16.9807C47.8281 16.9406 47.7954 16.836 47.7706 16.6669C47.7474 16.5091 47.7599 16.3979 47.808 16.3332C47.8674 16.267 47.8904 16.1887 47.8772 16.0985C47.8656 16.0196 47.8243 15.9739 47.7534 15.9613C47.6629 15.8939 47.5933 15.812 47.5446 15.7155C47.4568 15.5096 47.334 15.4183 47.1762 15.4414C47.0973 15.453 47.0064 15.5009 46.9036 15.5851C46.7992 15.658 46.644 15.7383 46.4381 15.8261C46.3287 15.8652 46.2057 15.9293 46.0691 16.0185C46.0177 16.0606 45.9525 16.0874 45.8736 16.099L45.7697 16.097C45.7358 16.1019 45.7231 16.1326 45.7313 16.1889C45.7396 16.2453 45.7663 16.2702 45.8114 16.2636C45.8339 16.2602 45.8556 16.2513 45.8765 16.2367C45.9087 16.2205 45.9417 16.2099 45.9755 16.2049L46.0093 16.2C46.0226 16.2901 45.9283 16.5112 45.7267 16.8633C45.6451 17.0134 45.5698 17.1281 45.5008 17.2073C45.3373 17.4271 45.2605 17.5708 45.2704 17.6384C45.2804 17.7061 45.1994 18.0173 45.0275 18.5723C44.8712 18.9982 44.7997 19.2563 44.8129 19.3465C44.8179 19.3803 44.8542 19.3923 44.9218 19.3823ZM55.6156 24.8083C55.4916 24.8265 55.39 24.8012 55.3108 24.7322C55.2332 24.6745 55.1903 24.6174 55.182 24.5611C55.1721 24.4934 55.1333 24.4646 55.0657 24.4745C54.9642 24.4894 54.8429 24.5648 54.7016 24.7007C54.6181 24.759 54.5199 24.7964 54.4072 24.813C54.2043 24.8428 53.9439 24.7946 53.626 24.6685C53.0757 24.4499 52.6287 24.0722 52.2851 23.5353C51.6713 22.7272 51.2974 21.8666 51.1634 20.9536C51.1204 20.6605 51.117 20.4019 51.1532 20.1778C51.1894 19.9537 51.2025 19.8078 51.1926 19.7402C51.186 19.6951 51.1681 19.6516 51.1389 19.6099C51.0548 19.5071 51.0003 19.3711 50.9755 19.202C50.949 19.0217 50.9308 18.8977 50.9209 18.83C50.8332 18.2326 50.8321 17.7549 50.9178 17.3968C51.016 16.9679 51.0776 16.6422 51.1026 16.4197C51.1547 16.1472 51.2471 15.8746 51.3798 15.6017C51.5237 15.3273 51.6219 15.0941 51.6744 14.9021C51.7268 14.7102 51.8605 14.4833 52.0754 14.2214L52.3858 13.865C52.6601 13.5368 52.8944 13.2894 53.0887 13.1227C53.5529 12.7552 53.8583 12.5607 54.0049 12.5392C54.1514 12.5176 54.2978 12.4559 54.444 12.3538C54.5389 12.2938 54.6257 12.258 54.7046 12.2464C54.761 12.2382 54.819 12.2412 54.8787 12.2554C55.0448 12.2886 55.2366 12.3008 55.454 12.2919C55.6828 12.2814 55.8545 12.3137 55.9692 12.389C56.0935 12.4514 56.2432 12.6079 56.4181 12.8586C56.7031 13.2313 56.8622 13.5304 56.8953 13.7559C56.9135 13.8798 56.8946 13.9863 56.8385 14.0751C56.7808 14.1527 56.7569 14.2253 56.7668 14.2929L56.7937 14.358C56.8503 14.4303 56.8845 14.5059 56.896 14.5848C56.9142 14.7088 56.8658 14.8887 56.7507 15.1244C56.6628 15.31 56.6118 15.4729 56.5979 15.6132C56.5839 15.7534 56.5305 15.8994 56.4376 16.0512C56.356 16.2014 56.2713 16.3693 56.1834 16.5549C56.1051 16.7276 55.9679 16.8917 55.772 17.0471C55.5856 17.1896 55.4301 17.3852 55.3053 17.6338C55.1806 17.8824 55.0957 18.01 55.0506 18.0166C55.0055 18.0233 54.9414 18.096 54.8581 18.2349C54.815 18.3334 54.7652 18.3867 54.7089 18.395C54.6863 18.3983 54.6218 18.3905 54.5154 18.3716C54.4186 18.3397 54.3364 18.3287 54.2688 18.3387C54.2237 18.3453 54.1851 18.3567 54.1529 18.3729C54.013 18.4395 53.9521 18.5348 53.9703 18.6588C53.9786 18.7152 54.0029 18.7634 54.0434 18.8036C54.0951 18.842 54.1234 18.8782 54.1284 18.912C54.1383 18.9796 54.0983 19.0604 54.0085 19.1542C53.8688 19.3013 53.6366 19.4448 53.3116 19.5846C53.0656 19.7128 52.9773 20.0137 53.0468 20.4871C53.1146 20.9493 53.2816 21.42 53.5477 21.8991C53.825 22.3766 54.1437 22.704 54.5037 22.8815C54.6618 22.9389 54.8762 22.9478 55.1467 22.9081C55.3158 22.8832 55.4655 22.844 55.5958 22.7903C55.7695 22.7188 55.8523 22.6548 55.844 22.5984C55.8357 22.5421 55.9191 22.4435 56.0942 22.3026C56.2789 22.1488 56.3688 22.055 56.3638 22.0212C56.3589 21.9874 56.3885 21.9543 56.4529 21.9218C56.5268 21.8764 56.5678 21.8416 56.5757 21.8174C56.5741 21.8061 56.5595 21.7852 56.532 21.7547C56.5045 21.7242 56.4882 21.6921 56.4833 21.6582C56.4684 21.5568 56.5306 21.3922 56.6699 21.1645L56.946 20.6921C57.1699 20.2562 57.3293 20.0083 57.4241 19.9483C57.519 19.8883 57.5946 19.8542 57.6509 19.8459C57.7862 19.8261 57.9571 19.8528 58.1636 19.9261C58.3702 19.9995 58.5211 20.0867 58.6166 20.1878C58.712 20.289 58.7755 20.4466 58.8069 20.6608C58.8393 21.1167 58.6651 21.695 58.2843 22.3957C57.9148 23.0948 57.4914 23.6233 57.0142 23.9812L56.5586 24.2899C56.1667 24.6008 55.8523 24.7736 55.6156 24.8083ZM52.9392 17.6356C52.9843 17.629 53.1145 17.535 53.3297 17.3538C53.5641 17.1466 53.7094 16.9986 53.7654 16.9098C53.8198 16.8097 53.8735 16.7442 53.9266 16.7134C53.9909 16.6809 54.0795 16.6564 54.1922 16.6399C54.5078 16.5936 54.6524 16.4802 54.6259 16.2999C54.6176 16.2435 54.5925 16.1896 54.5504 16.1382C54.5196 16.0852 54.5008 16.0361 54.4942 15.991C54.4893 15.9572 54.5267 15.8596 54.6067 15.6981C54.7875 15.3607 54.8815 15.0993 54.8889 14.914C54.9058 14.7157 54.9094 14.5828 54.8994 14.5152C54.8697 14.3122 54.7871 14.2207 54.6519 14.2406C54.5504 14.2555 54.4227 14.3663 54.2688 14.5732C54.1839 14.7008 54.0629 14.8567 53.9057 15.041C53.6779 15.2932 53.4228 15.7913 53.1404 16.5352C52.9394 17.0483 52.8521 17.3951 52.8786 17.5754C52.8852 17.6205 52.9054 17.6406 52.9392 17.6356ZM61.9241 23.6579C61.7663 23.6811 61.6092 23.6696 61.4527 23.6235C61.2057 23.51 61.0147 23.2674 60.8795 22.8957C60.754 22.5111 60.673 22.1948 60.6366 21.9468C60.5952 21.665 60.5829 21.3847 60.5995 21.1059C60.6152 20.9769 60.6172 20.873 60.6056 20.7941C60.5844 20.7281 60.5455 20.659 60.4888 20.5867C60.4142 20.471 60.3612 20.306 60.3298 20.0918L60.3124 19.9735C60.2611 19.624 60.1994 19.2819 60.1272 18.947L59.7866 17.097C59.6482 16.3112 59.5252 15.7478 59.4176 15.4066C59.3702 15.2408 59.3399 15.1128 59.3267 15.0226C59.3118 14.9212 59.314 14.8575 59.3332 14.8317C59.3571 14.7591 59.3351 14.4917 59.2673 14.0295L59.1829 13.4546C59.0903 12.8234 59.0871 12.4093 59.1733 12.2124C59.2579 12.0042 59.4411 11.8795 59.7229 11.8381C60.1062 11.7818 60.3681 11.801 60.5087 11.8955C60.6588 11.9771 60.7851 12.1313 60.8875 12.3581C60.9607 12.5431 61.0198 12.6323 61.0649 12.6257L61.1495 12.6133C61.2509 12.5984 61.4205 12.4986 61.6583 12.3141C62.3573 11.8199 62.9506 11.5083 63.4384 11.3791C63.9373 11.2483 64.2939 11.1672 64.5081 11.1358C64.9815 11.0663 65.4029 11.0735 65.7722 11.1575C66.3302 11.2714 66.6414 11.5481 66.7059 11.9878C66.7224 12.1005 66.7043 12.2125 66.6516 12.3239C66.6085 12.4224 66.5475 12.4774 66.4686 12.489C66.4573 12.4906 66.3866 12.5586 66.2566 12.6928C66.1028 12.8996 65.8342 13.0312 65.4509 13.0874C65.3382 13.104 65.2069 13.1117 65.0571 13.1107C64.9185 13.108 64.7646 13.1191 64.5956 13.1439C64.1559 13.2084 63.7174 13.3591 63.2801 13.596C62.6723 13.9271 62.2097 14.3059 61.8923 14.7325C61.5749 15.159 61.4402 15.5358 61.4882 15.8627C61.4981 15.9303 61.5137 15.9971 61.5349 16.0631C61.5674 16.1274 61.5877 16.1878 61.596 16.2441C61.6043 16.3005 61.6004 16.3529 61.5845 16.4013C61.5669 16.4384 61.5623 16.4852 61.5706 16.5415C61.5821 16.6204 61.6139 16.7194 61.6659 16.8384C61.7292 16.9558 61.7791 17.1385 61.8155 17.3865L61.8879 17.9977C61.9392 18.3471 61.9885 18.6047 62.0359 18.7705C62.0816 18.925 62.1111 19.0474 62.1243 19.1376C62.1263 19.2294 62.1121 19.3293 62.0819 19.4374C62.0501 19.5342 62.0416 19.6333 62.0565 19.7348L62.0957 19.8845C62.224 20.1305 62.3013 20.3437 62.3278 20.5241C62.3526 20.6932 62.3378 20.8277 62.2834 20.9279C62.2386 21.015 62.1987 21.0958 62.1635 21.17L62.3624 21.3481C62.5145 21.5215 62.6162 21.783 62.6675 22.1324C62.7204 22.4931 62.6933 22.7792 62.5862 22.9907C62.5381 23.0554 62.4597 23.1878 62.3509 23.388C62.2885 23.5123 62.2074 23.5875 62.1076 23.6137C62.0078 23.6399 61.9467 23.6546 61.9241 23.6579ZM71.7521 22.0082C71.5492 22.0379 71.3382 22.0516 71.119 22.0493C70.8548 22.0535 70.6396 22.039 70.4736 22.0058C70.3075 21.9726 70.1485 21.9096 69.9967 21.8167C69.7852 21.7096 69.5898 21.5943 69.4105 21.4709C69.2408 21.3346 69.1526 21.2439 69.146 21.1988C69.1394 21.1537 69.0544 21.0453 68.891 20.8735C68.5755 20.5283 68.372 20.2012 68.2806 19.8922C68.2004 19.5815 68.1521 19.3698 68.1356 19.2571C68.0925 18.964 68.1239 18.7464 68.2297 18.6042C68.3451 18.4491 68.4367 18.3665 68.5043 18.3566C68.5719 18.3467 68.6197 18.3973 68.6475 18.5083C68.6866 18.6177 68.7399 18.6675 68.8076 18.6576C68.8752 18.6476 68.9515 18.5789 69.0364 18.4513C69.1309 18.3107 69.2345 18.2322 69.3473 18.2156C69.5389 18.1875 69.7442 18.3704 69.9633 18.7643C70.2764 19.3287 70.4631 19.6985 70.5234 19.8739C70.5608 19.9721 70.6506 20.074 70.7928 20.1798L71.0061 20.3385C71.3327 20.21 71.5129 20.1432 71.5467 20.1383C71.743 20.0634 71.8781 20.0033 71.9521 19.9579C72.0357 19.8996 72.0765 19.8245 72.0745 19.7326C72.0725 19.6408 72.0624 19.5329 72.0442 19.4089L72.012 19.1891C71.9226 18.5804 71.6278 17.9442 71.1273 17.2807C70.6594 16.6815 70.1987 16.2885 69.7452 16.1017C69.5983 16.0427 69.4512 15.9031 69.3037 15.6829C69.2325 15.5897 69.1935 15.5206 69.1869 15.4755C69.1803 15.4304 69.0275 15.2916 68.7285 15.0591C68.4408 14.825 68.2468 14.6404 68.1463 14.5055C67.7914 13.9703 67.5834 13.4941 67.5222 13.0771C67.4758 12.7614 67.5046 12.4866 67.6084 12.2526C67.7235 12.0169 67.7753 11.8596 67.7637 11.7807C67.7505 11.6905 67.8095 11.5437 67.9409 11.3401C68.5064 10.4856 69.2513 9.99052 70.1756 9.85485C70.5363 9.80191 70.8539 9.84742 71.1284 9.99138C71.2172 10.0474 71.4029 10.1353 71.6853 10.2551C71.9306 10.3573 72.1149 10.5145 72.2382 10.7267C72.4082 10.9436 72.5101 11.0495 72.5439 11.0446C72.589 11.0379 72.6538 11.1263 72.7383 11.3097C72.8211 11.4818 72.8766 11.6636 72.9047 11.8552C72.951 12.1709 72.9236 12.3764 72.8225 12.4719C72.7197 12.556 72.5781 12.6114 72.3977 12.6378C72.161 12.6726 71.9306 12.6719 71.7065 12.6357C71.5646 12.6104 71.3498 12.4807 71.0621 12.2466C70.7857 12.0108 70.6007 11.8882 70.5072 11.8789C70.4234 11.8567 70.3589 11.8489 70.3138 11.8555C70.2236 11.8687 70.1263 11.9118 70.0219 11.9847C69.6409 12.2134 69.476 12.5024 69.5273 12.8519C69.5918 13.2915 69.9975 13.8192 70.7442 14.4351C71.2696 14.8762 71.5914 15.1859 71.7097 15.3643C71.828 15.5427 71.8953 15.648 71.9115 15.6801C72.002 15.7475 72.0698 15.7778 72.1149 15.7712C72.2309 15.7772 72.3431 15.8356 72.4515 15.9464C72.4936 15.9977 72.6214 16.1229 72.8348 16.3219C72.9933 16.4599 73.1033 16.5819 73.1649 16.688C73.2266 16.7941 73.3359 16.9508 73.493 17.1581C73.5901 17.2705 73.6599 17.3927 73.7023 17.5246C73.7559 17.6549 73.8147 17.8593 73.8786 18.1378C73.9737 18.5499 74.0361 18.8575 74.0658 19.0604C74.0956 19.2633 74.0923 19.4365 74.0558 19.58C74.0305 19.7219 73.9756 19.897 73.891 20.1051C73.5021 21.2216 72.7892 21.856 71.7521 22.0082Z" fill="#333333"/>
</svg>
