<svg width="34" height="50" viewBox="0 0 34 50" fill="none" xmlns="http://www.w3.org/2000/svg">
<path d="M32.6137 6.32394C32.5553 5.75203 32.9129 4.92044 32.1878 4.67717C28.5933 2.73899 24.741 1.32249 20.7812 0.356029C20.4055 0.298245 20.0271 0.340924 19.6585 0.465486C15.6476 6.64954 12.028 13.1655 9.66523 20.1838C7.66454 24.6675 6.98768 29.6016 6.38419 34.434C4.5017 34.8906 2.50677 35.1211 0.800646 36.094C-0.191536 36.6837 0.496769 38.011 1.05862 38.667C3.05154 40.7546 5.33025 42.5761 7.85036 44.0049C9.82783 45.1028 11.5526 46.6826 13.7442 47.3641C15.0904 47.7971 16.3095 48.5163 17.5946 49.113C19.4262 46.7549 20.6607 44.0186 22.3721 41.5747C23.335 40.1043 24.5978 38.7324 24.9721 36.9755C25.2604 36.0545 24.4778 35.3907 23.963 34.7608C23.9585 34.5586 23.9419 34.1332 23.9374 33.931C23.3785 33.6483 22.8184 33.3756 22.2657 33.124C24.8058 24.8682 27.5818 16.5012 32.5905 9.36523C33.3402 8.46247 33.0361 7.28479 32.6137 6.32394ZM8.27328 42.1031C6.29832 40.9854 4.54854 39.5234 2.98268 37.8831C4.59889 37.2214 7.07804 37.3849 7.80613 35.4613C7.82579 34.2743 7.51304 33.0855 7.75347 31.9064C8.35005 28.0811 9.62231 24.4121 10.8524 20.7579C12.2495 16.6613 14.3184 12.8314 16.3822 9.04112C17.6158 6.78855 18.9893 4.62432 20.5387 2.58323C23.8029 3.47144 27.0245 4.53569 30.0592 6.03991C26.7217 9.69868 24.1323 13.9766 22.0138 18.4353C20.5965 21.4205 19.5584 24.5951 18.9146 27.8398C18.5657 29.9527 17.0802 31.6491 16.5763 33.712C16.6694 34.3287 17.0144 34.8664 17.2874 35.4152C18.8109 35.2457 20.3404 35.1879 21.8735 35.181C20.679 37.126 19.373 38.9964 17.8924 40.7337C16.5697 42.2593 15.6161 44.0535 14.421 45.6859C12.2199 44.7613 10.3424 43.273 8.27328 42.1031Z" fill="#008080"/>
</svg>
